{"glyphs":{"0":{"ha":815,"x_min":0,"x_max":779,"o":"m 438 987 l 445 987 q 636 869 535 972 q 733 699 694 798 q 779 473 758 639 q 664 132 779 338 q 469 7 569 29 q 438 0 446 0 l 434 0 q 414 28 414 15 q 458 90 414 54 l 469 108 q 473 240 473 210 q 469 292 473 262 q 479 841 476 292 q 441 918 474 918 q 420 959 420 933 q 438 987 420 977 m 334 980 l 337 980 q 355 952 355 971 q 302 872 302 892 l 302 720 q 306 653 302 671 q 302 581 302 620 l 302 504 q 295 118 302 302 q 344 52 296 100 q 347 38 347 46 l 347 28 q 327 3 347 3 q 146 108 252 16 q 10 378 29 245 l 0 458 q 240 952 0 796 q 334 980 298 980 z "},"1":{"ha":426,"x_min":0,"x_max":426,"o":"m 332 978 q 346 939 346 960 l 346 115 q 405 66 346 84 q 426 35 426 50 q 356 0 426 9 q 304 3 321 3 l 297 3 q 10 21 10 3 q 0 45 0 37 q 63 87 0 62 q 80 185 80 101 l 80 318 q 73 444 80 345 q 84 758 84 564 l 84 828 q 21 901 84 901 q 3 929 3 912 q 154 971 3 971 q 332 978 154 975 z "},"2":{"ha":737,"x_min":0,"x_max":680,"o":"m 353 975 q 625 804 519 975 q 646 716 639 775 q 615 595 637 627 q 373 407 546 465 q 172 313 190 313 q 124 309 166 313 q 118 319 118 318 l 118 330 q 283 477 155 382 q 357 615 357 551 q 363 696 361 615 q 330 888 351 888 q 306 938 306 918 q 353 975 306 975 m 212 962 q 235 925 235 962 q 205 884 235 918 l 205 864 q 256 797 205 852 q 273 743 273 748 q 195 639 235 639 q 155 622 181 622 l 127 622 q 14 713 67 622 q 7 753 7 736 q 195 958 7 899 q 212 962 206 958 m 646 323 q 680 273 680 311 l 680 245 q 592 64 680 163 q 427 0 517 0 q 235 50 399 0 q 127 67 171 67 l 101 67 q 37 31 87 67 l 31 31 q 0 71 0 31 q 98 229 0 136 q 259 283 172 274 q 491 245 416 267 l 565 245 q 615 299 600 245 q 646 323 633 321 z "},"3":{"ha":743,"x_min":0,"x_max":681,"o":"m 357 984 q 606 878 484 984 q 667 735 647 839 q 671 711 671 722 q 606 579 649 616 q 517 511 577 553 l 517 490 q 596 443 521 481 q 681 273 681 370 l 681 266 q 429 3 681 77 q 398 0 416 0 l 364 0 q 323 37 323 0 q 368 81 323 68 q 401 180 401 107 q 398 368 398 315 q 340 463 398 444 q 279 504 279 484 q 354 551 279 539 q 388 715 388 565 q 398 797 398 769 l 398 858 q 344 920 398 891 q 334 954 334 937 l 334 960 q 357 984 334 984 m 241 964 l 245 964 q 259 950 250 964 q 218 899 259 922 l 218 875 q 269 797 218 851 q 276 770 276 785 q 167 633 276 665 l 157 633 q 44 708 92 633 q 31 780 31 758 q 116 906 77 890 q 241 964 184 964 m 136 351 q 256 224 256 304 l 256 221 q 194 116 256 181 l 194 99 q 241 68 194 73 q 262 34 262 52 l 262 31 q 245 3 262 12 l 235 3 q 75 75 193 3 q 0 214 0 149 q 89 337 0 288 q 136 351 106 347 z "},"4":{"ha":710,"x_min":0,"x_max":748,"o":"m 563 978 q 618 920 608 978 q 628 545 621 674 l 628 508 q 621 415 621 425 l 621 350 q 683 319 621 319 q 748 278 748 311 l 748 271 q 690 233 748 233 l 655 233 q 625 199 625 233 l 625 175 q 686 79 625 100 q 700 52 700 64 q 590 10 700 10 q 433 0 527 3 q 378 3 413 3 l 343 3 q 264 52 264 12 l 264 55 q 319 100 264 81 q 343 172 343 124 q 340 378 340 349 q 363 806 351 806 q 494 971 469 960 l 563 978 m 278 669 q 285 659 278 667 l 285 638 q 117 395 285 614 q 79 330 79 346 l 79 315 q 90 305 79 311 l 100 305 q 151 309 136 305 q 210 305 177 305 l 254 305 q 288 278 288 305 l 288 268 q 243 233 288 240 q 161 237 195 237 l 85 237 q 0 281 0 237 q 148 511 0 327 q 275 669 246 650 l 278 669 z "},"5":{"ha":725,"x_min":0,"x_max":680,"o":"m 118 972 l 427 948 l 494 948 l 606 965 l 615 951 q 498 797 576 852 q 397 733 426 738 q 323 726 347 726 l 252 726 q 64 783 64 726 q 108 968 90 968 q 118 972 111 968 m 87 703 q 118 666 118 703 q 115 582 118 646 l 124 575 l 141 575 l 222 608 l 239 608 q 252 575 252 605 q 205 522 248 522 q 81 460 110 471 l 77 460 q 37 528 43 460 l 37 551 q 67 696 53 696 q 87 703 78 703 m 350 632 q 612 511 468 632 q 680 330 680 440 q 608 121 680 236 q 447 17 530 42 q 360 0 389 0 q 299 47 299 0 q 350 124 299 82 q 373 330 373 154 l 373 360 q 353 511 373 511 q 313 575 313 536 q 350 632 313 632 m 134 360 q 242 273 187 360 q 249 232 249 245 q 192 127 240 190 l 192 118 q 242 74 192 97 q 249 43 249 62 q 218 14 244 14 q 14 161 64 64 q 0 218 0 208 q 108 357 0 315 q 134 360 116 357 z "},"6":{"ha":761,"x_min":0,"x_max":719,"o":"m 326 987 q 356 953 356 980 q 309 892 356 932 q 285 844 285 866 l 285 831 q 288 800 285 800 q 285 749 285 766 l 285 617 q 278 315 285 471 q 295 85 281 85 q 332 37 332 68 l 332 24 q 305 7 323 7 q 139 102 249 11 q 0 478 0 269 l 0 515 q 85 807 0 646 q 326 987 250 987 m 424 980 l 444 980 q 614 895 503 980 q 671 770 671 810 q 529 641 630 641 q 431 705 481 641 q 414 756 414 743 l 414 770 q 458 848 414 795 l 458 885 q 414 936 458 900 q 410 949 410 942 l 410 966 q 424 980 410 972 m 475 570 l 509 570 q 661 481 570 564 q 719 322 719 410 q 631 109 719 213 q 465 10 568 41 q 410 0 422 0 q 387 34 387 9 q 431 95 387 58 q 444 285 444 134 l 444 288 q 417 471 444 471 q 404 475 411 475 l 366 475 q 342 488 348 475 l 342 505 q 475 570 342 549 z "},"7":{"ha":618,"x_min":0,"x_max":606,"o":"m 293 978 q 446 925 374 972 q 519 905 490 905 l 532 905 q 585 928 537 905 l 589 928 q 606 898 606 920 q 545 779 606 889 q 446 715 545 754 q 379 705 391 705 l 130 751 l 126 751 q 50 675 50 751 q 30 652 44 660 l 20 652 q 0 685 0 663 q 50 935 34 935 l 63 935 q 83 895 69 935 q 96 891 89 891 l 106 891 q 193 948 121 891 q 293 978 274 978 m 463 659 l 469 659 q 479 648 474 659 l 439 529 q 433 386 433 439 q 452 216 433 345 l 452 199 q 416 73 452 113 q 283 0 372 0 q 143 113 203 0 q 123 193 133 132 q 326 542 123 369 q 426 648 377 584 q 463 659 452 659 z "},"8":{"ha":688,"x_min":0,"x_max":638,"o":"m 377 935 q 529 874 456 935 q 614 701 614 791 q 532 549 614 624 q 468 507 481 524 l 468 494 q 526 460 468 485 q 632 302 632 382 q 638 279 636 302 q 526 93 638 168 q 374 56 436 56 l 361 56 q 340 87 340 72 q 374 138 340 100 q 383 166 374 144 q 386 345 386 285 l 386 406 q 343 491 386 445 q 340 509 343 494 q 368 564 340 520 q 377 606 377 592 q 374 741 377 661 q 377 813 377 783 q 337 883 377 854 l 337 895 q 377 935 347 935 m 277 923 l 283 923 q 298 892 292 923 q 261 850 298 878 l 255 819 q 258 688 258 716 q 255 576 258 673 q 292 522 258 560 l 295 503 q 261 452 295 494 q 255 425 255 437 q 261 148 255 387 q 298 84 298 98 l 298 78 q 261 47 298 47 l 240 47 q 94 87 129 59 q 0 279 0 151 q 146 491 0 398 l 146 515 q 67 591 73 578 q 24 707 24 655 q 82 850 24 781 q 277 923 191 923 z "},"9":{"ha":800,"x_min":0,"x_max":755,"o":"m 315 992 q 339 964 336 992 q 294 898 339 948 l 294 891 q 297 748 294 825 q 294 559 294 640 q 325 513 294 513 l 370 513 q 395 500 389 513 l 395 486 q 234 409 395 439 q 39 538 139 409 q 0 664 22 538 l 0 674 q 52 825 28 825 q 234 975 116 932 q 315 992 296 992 m 433 989 q 559 933 485 979 q 678 783 678 821 q 755 500 733 695 l 755 440 q 703 237 755 361 q 486 18 621 89 q 416 0 452 6 q 391 28 395 0 l 391 31 q 440 84 391 56 q 461 151 461 114 q 454 734 454 690 q 458 863 454 762 q 416 947 458 914 q 412 961 412 953 l 412 975 q 433 989 419 989 m 196 349 q 318 224 318 309 l 318 213 q 269 115 318 198 l 269 94 q 315 49 269 75 l 321 24 l 321 18 q 294 0 312 0 q 140 60 186 19 q 49 189 49 127 q 185 349 49 303 l 196 349 z "},"\u0000":{"ha":0,"x_min":0,"x_max":0,"o":""}," ":{"ha":345,"x_min":0,"x_max":0,"o":""},"!":{"ha":381,"x_min":20,"x_max":331,"o":"m 178 993 l 184 993 q 315 879 315 958 q 331 816 331 846 l 331 799 q 234 505 331 757 q 197 345 210 382 l 181 331 l 171 331 q 131 404 136 331 q 41 709 107 534 q 20 819 31 722 q 111 972 20 924 q 178 993 144 993 m 178 281 q 278 224 227 276 q 308 137 308 171 q 218 10 308 81 q 164 0 196 0 l 154 0 q 27 123 73 0 l 27 137 q 131 267 27 217 q 178 281 145 274 z "},"\"":{"ha":600,"x_min":39,"x_max":515,"o":"m 153 1131 q 242 1074 187 1131 q 264 1003 264 1025 q 172 840 264 935 q 68 781 117 791 l 58 781 q 47 791 54 781 l 47 800 q 120 857 54 814 q 147 897 147 883 l 147 905 q 112 927 147 923 q 39 1030 39 964 q 93 1114 39 1072 q 153 1131 132 1131 m 404 1131 q 493 1074 438 1131 q 515 1003 515 1025 q 422 840 515 935 q 319 781 368 791 l 309 781 q 298 791 304 781 l 298 800 q 371 857 305 814 q 398 897 398 883 l 398 905 q 363 927 398 922 q 290 1030 290 964 q 344 1114 290 1072 q 404 1131 382 1131 z "},"#":{"ha":764,"x_min":9,"x_max":741,"o":"m 593 930 l 600 930 q 656 912 650 928 l 656 906 q 626 750 656 865 l 626 732 q 644 713 626 713 l 711 713 q 741 692 741 713 q 696 632 733 632 l 608 632 q 572 542 578 632 q 548 397 548 410 l 548 385 q 560 373 548 380 q 671 352 671 373 l 671 343 q 623 274 671 290 l 587 277 l 536 277 q 500 189 507 277 q 439 63 481 63 l 389 63 q 358 78 365 63 l 358 90 q 400 277 358 120 q 475 638 475 597 l 475 648 q 460 669 475 669 q 425 632 456 669 l 346 632 q 319 587 323 632 q 274 404 319 580 l 274 385 q 289 367 274 367 q 343 370 294 367 q 368 343 361 370 q 319 286 368 286 l 262 286 q 222 157 245 286 q 168 57 206 57 l 159 57 q 93 81 93 62 q 90 93 90 86 l 114 232 l 114 274 q 102 283 114 281 q 9 301 9 283 l 9 304 q 66 376 9 376 q 159 427 159 376 q 205 578 205 543 l 205 599 q 157 632 205 632 q 87 653 87 632 q 132 720 87 720 q 159 723 144 723 q 235 720 171 723 q 274 861 246 728 q 316 922 288 922 q 382 895 382 922 q 349 744 349 755 l 349 726 q 358 717 349 722 l 361 717 q 421 720 388 717 q 475 699 431 720 q 503 762 492 699 q 572 928 537 928 q 593 930 576 930 z "},"$":{"ha":688,"x_min":0,"x_max":632,"o":"m 302 1026 l 316 1026 q 340 959 332 1026 q 505 895 422 941 q 599 747 599 820 q 515 643 599 672 q 494 640 512 643 q 397 730 431 640 l 397 737 l 427 818 l 427 844 q 357 868 427 860 q 333 851 338 868 q 336 737 336 781 l 336 727 q 323 703 336 709 l 319 703 q 283 757 283 703 l 283 848 q 273 858 283 852 l 249 858 q 192 774 192 842 l 192 747 q 366 602 192 673 q 511 522 472 547 q 615 377 615 433 q 632 300 632 334 l 632 290 q 518 61 632 159 q 376 -6 484 27 q 336 -40 340 -6 l 336 -70 q 316 -111 336 -99 l 313 -111 q 283 -60 283 -111 l 283 -30 q 158 14 283 -16 q 14 142 53 59 q 0 192 0 182 l 0 195 q 108 317 0 298 l 118 317 q 215 212 189 317 q 158 115 215 182 l 158 98 q 229 58 158 71 l 266 58 q 286 71 283 58 q 283 209 283 159 l 283 216 q 296 246 283 241 l 299 246 q 336 162 336 246 l 336 132 q 333 68 333 86 l 347 58 l 366 58 q 457 149 457 87 l 457 192 q 353 307 457 253 q 27 650 27 435 q 91 827 42 766 q 259 942 213 942 q 289 1016 273 942 l 302 1026 z "},"%":{"ha":863,"x_min":0,"x_max":827,"o":"m 168 858 q 190 844 182 858 l 190 833 q 163 787 190 825 q 160 777 160 783 l 160 673 q 179 568 160 568 q 195 541 195 550 q 174 522 186 522 q 11 633 68 522 l 0 684 q 95 836 0 764 q 168 858 120 848 m 255 858 q 372 798 328 844 q 418 703 418 745 l 418 698 q 301 538 418 579 q 247 527 290 532 q 228 538 228 534 l 228 543 q 255 589 228 549 q 260 752 260 647 l 260 774 q 231 825 260 798 q 228 836 228 830 l 228 844 q 255 858 228 853 m 600 844 q 621 828 616 844 q 521 581 569 677 q 366 304 415 424 q 247 93 256 102 q 225 87 230 87 q 206 98 206 92 q 450 597 222 138 q 583 842 566 842 l 600 844 m 659 408 q 781 348 742 391 q 827 239 827 293 q 738 98 827 149 q 654 77 694 77 q 640 87 642 82 l 640 96 q 667 136 640 105 l 670 153 l 670 188 q 673 277 670 231 q 632 380 673 359 q 621 383 626 380 q 578 334 604 383 q 570 153 573 303 q 597 96 570 130 l 597 90 q 556 68 589 68 q 437 134 474 87 q 399 242 399 185 l 399 245 q 483 372 399 309 q 594 405 526 405 q 621 399 597 405 l 659 408 z "},"&":{"ha":928,"x_min":0,"x_max":890,"o":"m 509 976 q 532 946 532 972 l 532 939 q 498 859 532 901 l 498 795 q 689 384 549 616 q 776 217 697 374 q 869 70 847 70 q 890 46 890 48 l 890 39 q 756 -1 890 -1 q 646 6 694 6 l 595 6 q 522 80 558 6 q 401 297 504 108 q 214 725 214 604 l 214 728 q 348 929 214 842 q 509 976 442 976 m 612 946 q 722 769 722 886 q 649 652 701 689 q 639 648 642 648 q 616 678 616 659 q 656 742 616 691 l 656 785 q 595 892 656 846 q 592 920 592 911 q 612 946 592 939 m 796 605 q 853 548 853 587 q 857 522 857 545 q 786 374 857 447 l 772 374 q 756 408 764 374 q 763 461 763 456 l 763 508 l 743 565 q 796 605 743 587 m 201 508 q 234 461 217 508 q 227 421 227 438 l 227 411 q 398 110 227 380 q 485 39 485 88 q 345 -31 485 3 l 341 -31 q 164 9 256 -31 q 26 146 62 71 q 0 243 0 206 l 0 274 q 64 418 0 332 q 201 508 168 508 z "},"'":{"ha":324,"x_min":39,"x_max":264,"o":"m 153 1131 q 242 1074 187 1131 q 264 1003 264 1025 q 172 840 264 935 q 68 781 117 791 l 58 781 q 47 791 54 781 l 47 800 q 120 857 54 814 q 147 897 147 883 l 147 905 q 112 927 147 923 q 39 1030 39 964 q 93 1114 39 1072 q 153 1131 132 1131 z "},"(":{"ha":387,"x_min":0,"x_max":329,"o":"m 298 1005 q 329 978 319 1005 q 277 842 292 899 q 256 401 271 523 q 250 296 250 318 q 323 -15 250 140 l 323 -18 q 296 -45 319 -45 q 121 115 245 -45 q 0 450 16 285 l 0 453 q 283 999 0 810 q 298 1005 283 1004 z "},")":{"ha":411,"x_min":0,"x_max":336,"o":"m 26 1002 l 36 1002 q 196 847 68 1002 q 321 570 276 736 q 336 467 336 496 l 336 434 q 297 267 336 375 q 152 59 245 168 q 30 -30 80 -16 l 26 -30 q 0 -3 0 -26 q 39 155 39 89 q 71 425 46 155 q 75 568 75 472 l 75 597 q 47 859 62 809 q 9 975 27 933 q 26 1002 9 991 z "},"*":{"ha":694,"x_min":36,"x_max":616,"o":"m 216 1128 q 309 926 309 1128 l 309 903 q 294 877 304 877 q 107 956 234 877 q 85 1008 85 977 q 201 1124 85 1059 q 216 1128 209 1124 m 429 1113 q 549 1023 484 1113 q 557 997 557 1008 q 399 892 557 948 q 377 881 395 881 l 366 881 q 351 899 358 882 q 395 1101 351 1079 q 429 1113 422 1113 m 557 869 q 616 813 616 852 l 616 806 q 553 675 616 739 q 530 667 547 675 q 414 772 496 667 q 380 825 380 807 q 526 865 380 836 q 557 869 536 865 m 85 865 q 223 840 126 865 q 268 825 267 840 l 268 817 q 201 742 268 811 q 118 671 144 671 q 36 817 36 705 q 85 865 48 865 m 313 772 l 324 772 q 418 629 356 744 q 422 614 422 623 l 422 611 q 324 547 422 559 q 223 614 223 559 q 313 772 229 646 z "},"+":{"ha":688,"x_min":45,"x_max":631,"o":"m 370 753 q 416 701 416 753 l 422 631 q 419 538 419 585 l 430 530 q 623 503 623 522 q 631 457 631 481 q 587 403 631 403 l 566 403 q 471 392 542 403 q 444 395 456 395 q 422 376 427 395 q 425 283 425 319 l 425 281 q 389 164 425 164 q 387 161 389 161 q 330 164 351 164 l 316 164 q 264 292 264 164 l 264 362 q 240 397 260 397 q 161 395 192 395 l 118 395 q 50 419 62 395 q 45 460 45 445 l 45 468 q 88 525 45 516 q 205 528 161 528 l 251 528 q 270 538 266 528 l 270 663 q 311 753 270 753 l 370 753 z "},",":{"ha":429,"x_min":39,"x_max":319,"o":"m 180 258 q 292 186 224 258 q 319 98 319 125 q 204 -104 319 14 q 76 -179 136 -167 l 62 -179 q 49 -165 57 -179 l 49 -155 q 140 -85 58 -136 q 174 -34 174 -51 l 174 -24 q 130 3 174 -2 q 39 132 39 50 q 106 237 39 184 q 180 258 154 258 z "},"-":{"ha":531,"x_min":12,"x_max":418,"o":"m 118 635 l 164 631 l 330 631 q 418 555 418 631 l 418 536 q 380 453 418 453 q 84 446 133 446 q 16 522 16 446 q 12 578 16 545 q 118 635 12 621 z "},".":{"ha":480,"x_min":63,"x_max":359,"o":"m 198 281 l 205 281 q 356 165 317 281 l 359 138 q 258 7 359 47 q 210 0 241 0 l 198 0 q 66 101 121 0 l 63 127 l 63 153 q 142 270 63 219 q 198 281 172 281 z "},"/":{"ha":501,"x_min":0,"x_max":475,"o":"m 397 978 q 475 958 475 973 l 475 950 q 364 653 475 892 q 281 370 319 526 q 222 159 272 353 q 150 11 181 26 q 109 0 150 3 q 5 20 5 0 q 0 33 1 20 q 97 272 47 176 q 205 586 205 568 q 275 806 205 594 q 355 972 321 972 q 397 978 376 978 z "},":":{"ha":378,"x_min":20,"x_max":312,"o":"m 166 685 q 277 628 216 685 q 312 545 312 566 l 312 543 q 223 412 312 451 q 176 403 208 403 l 157 403 q 43 479 98 403 q 20 536 20 519 l 20 545 q 157 685 20 638 l 166 685 m 170 250 l 179 250 q 287 161 237 250 l 293 123 q 172 0 271 0 q 62 64 101 0 q 43 117 43 96 q 109 231 43 175 q 170 250 143 250 z "},";":{"ha":378,"x_min":34,"x_max":319,"o":"m 175 699 q 296 618 239 699 q 319 548 319 583 l 319 545 q 272 454 311 493 q 168 414 216 414 l 161 414 q 47 508 103 414 q 37 562 37 523 q 161 699 37 654 l 175 699 m 142 241 q 279 122 239 241 l 279 82 q 191 -66 255 3 q 62 -137 96 -137 l 54 -137 q 39 -123 50 -137 q 122 -52 39 -104 q 145 -12 145 -24 l 145 -1 q 96 20 145 6 q 34 134 34 67 q 68 205 34 165 q 142 241 108 239 z "},"<":{"ha":486,"x_min":27,"x_max":404,"o":"m 271 849 l 275 849 q 383 753 349 814 q 354 690 383 732 q 254 531 254 568 l 254 523 q 262 489 254 505 q 404 263 382 321 q 275 158 404 223 q 245 171 264 158 q 27 485 71 352 l 27 523 q 178 745 27 539 q 271 849 243 849 z "},"=":{"ha":688,"x_min":60,"x_max":638,"o":"m 353 694 q 622 673 622 691 q 638 621 638 655 q 600 562 638 562 q 158 553 307 562 q 68 572 68 555 q 60 605 62 572 l 60 643 q 147 689 60 689 q 353 694 196 689 m 448 453 q 622 434 622 453 q 630 404 630 413 l 630 374 q 565 331 630 331 q 380 320 428 320 q 74 350 74 320 q 66 382 67 350 l 66 399 q 128 450 66 450 l 144 450 q 448 453 252 450 z "},">":{"ha":474,"x_min":27,"x_max":404,"o":"m 161 849 q 253 745 188 849 q 404 523 404 539 l 404 485 q 186 171 360 352 q 157 158 168 158 q 27 263 27 223 q 170 489 49 321 q 178 523 178 505 l 178 531 q 77 690 178 568 q 48 753 48 732 q 157 849 83 814 l 161 849 z "},"?":{"ha":612,"x_min":0,"x_max":584,"o":"m 233 999 q 258 961 253 999 q 227 909 258 948 l 227 882 q 237 834 227 879 l 237 810 q 151 724 237 764 q 130 718 140 718 l 113 718 q 0 821 36 718 l 0 834 q 141 982 0 921 q 233 999 208 999 m 350 989 q 515 892 464 960 q 584 728 574 811 q 343 429 584 517 q 227 381 227 418 q 189 326 216 326 q 148 484 148 326 q 178 635 148 635 q 323 686 293 655 q 374 817 374 756 l 374 838 q 333 951 374 860 l 333 972 q 350 989 333 976 m 206 271 q 340 161 293 271 q 343 130 343 143 l 343 123 q 220 0 307 0 l 206 0 q 75 137 75 40 q 206 271 101 271 z "},"@":{"ha":1003,"x_min":0,"x_max":932,"o":"m 463 969 q 720 906 573 969 q 909 690 852 827 q 932 579 932 626 q 876 376 932 474 q 713 267 785 267 q 703 283 703 277 q 776 353 703 330 q 852 506 852 419 q 859 546 859 506 l 859 570 q 606 879 859 808 q 500 892 535 892 q 110 663 226 892 q 70 443 70 587 l 70 433 q 170 193 70 317 q 340 90 263 103 q 433 70 402 70 l 546 70 q 739 96 596 70 q 763 56 763 81 q 490 0 763 14 q 293 33 293 17 q 140 123 237 37 q 17 353 70 184 q 0 460 0 416 l 0 496 q 73 729 0 592 q 310 932 165 856 q 463 969 387 969 m 669 720 q 699 703 699 712 l 699 686 q 636 373 636 418 l 636 353 l 656 300 q 586 243 644 243 q 469 330 488 243 q 513 536 483 381 q 566 692 553 675 q 669 720 585 720 m 473 713 q 506 692 494 713 l 506 686 q 446 603 506 669 q 396 350 396 474 q 429 296 396 336 q 433 283 433 290 l 433 277 q 350 240 407 240 q 230 363 277 240 l 230 383 q 326 629 230 507 q 460 709 391 694 q 473 713 461 709 z "},"A":{"ha":812,"x_min":-41,"x_max":806,"o":"m 478 975 q 571 945 557 974 q 680 486 610 871 q 707 275 690 436 q 760 96 743 96 q 806 46 806 71 q 654 0 806 7 l 650 0 l 472 23 q 382 60 382 23 q 429 136 429 109 l 429 139 q 389 254 415 254 q 342 258 363 254 q 250 254 299 254 q 224 275 231 254 q 290 330 224 330 q 363 360 363 330 l 363 367 q 319 572 333 473 q 280 757 305 572 q 257 892 273 774 q 303 965 265 965 l 478 975 m 220 730 l 231 730 q 257 648 257 703 q 171 330 257 621 l 134 182 l 134 162 q 204 73 134 106 l 208 56 l 208 50 q 155 26 208 31 l 104 26 q 28 23 73 26 q -41 53 -19 23 l -41 63 q 35 125 -37 71 q 81 254 81 177 q 128 446 102 351 q 171 589 161 543 l 214 727 l 220 730 z "},"B":{"ha":869,"x_min":0,"x_max":800,"o":"m 494 947 q 671 903 631 934 q 779 752 779 832 q 782 712 782 732 q 720 585 782 661 l 627 526 l 627 517 q 699 477 627 500 q 766 406 762 428 q 800 286 800 336 q 763 177 773 193 q 637 66 719 99 q 568 47 574 47 q 488 54 528 54 l 476 54 q 417 51 451 54 q 386 87 391 51 l 386 91 q 448 140 386 129 q 473 186 473 170 q 476 329 473 231 q 439 468 476 468 q 393 502 393 490 l 393 517 q 460 564 393 545 q 482 635 482 595 l 482 709 q 448 848 482 837 q 395 876 440 858 q 386 903 386 889 q 470 943 386 943 q 494 947 492 947 m 309 935 q 337 897 337 935 l 337 894 q 352 696 337 857 l 352 675 q 365 332 352 557 q 355 199 355 221 l 355 109 q 330 63 355 63 l 330 60 l 216 66 q 77 63 151 63 l 56 63 q 0 97 0 63 q 50 140 0 113 l 52 155 l 52 313 q 46 505 52 404 q 56 761 56 698 l 56 838 q 12 879 56 859 l 3 891 l 3 907 q 46 931 20 931 q 309 935 224 935 z "},"C":{"ha":827,"x_min":0,"x_max":739,"o":"m 374 975 q 404 939 404 975 q 355 870 404 891 q 345 844 345 850 l 345 827 q 358 706 345 784 q 355 680 358 698 q 371 401 358 493 q 358 121 366 344 q 407 62 358 115 q 414 33 414 41 l 414 30 q 381 0 414 5 l 374 0 q 135 118 282 0 q 0 492 0 260 l 0 496 q 43 699 21 663 q 262 939 128 880 q 374 975 344 975 m 483 972 q 621 926 610 926 l 633 926 q 690 965 659 926 l 699 965 q 739 893 739 965 l 739 667 q 699 601 739 601 q 631 742 675 601 q 463 897 585 840 q 453 932 453 915 q 483 972 453 972 m 703 289 q 732 250 732 277 q 588 43 693 117 q 483 10 557 18 q 456 43 456 10 l 456 52 q 499 102 456 90 q 663 239 590 102 q 703 289 675 289 z "},"D":{"ha":941,"x_min":0,"x_max":865,"o":"m 142 987 q 329 983 233 983 q 370 929 370 983 q 400 509 383 650 l 400 342 q 393 207 393 221 l 393 92 q 400 58 393 85 q 353 0 382 0 q 139 24 165 24 l 71 24 q 0 64 0 24 q 58 115 1 81 l 61 132 l 61 142 q 47 539 61 299 q 61 719 61 671 l 61 875 q 10 919 61 906 l 0 932 l 0 939 q 142 987 0 987 m 468 983 l 478 983 q 631 946 551 983 q 746 844 640 946 q 841 688 808 787 q 865 532 854 688 l 865 515 q 715 156 865 397 q 570 54 622 54 q 465 20 541 37 l 448 20 q 420 61 420 39 q 461 105 420 84 q 512 186 512 126 l 512 342 q 509 417 512 402 q 512 505 512 455 l 512 814 q 488 888 512 874 q 431 949 431 914 l 431 953 q 468 983 431 983 z "},"E":{"ha":752,"x_min":0,"x_max":671,"o":"m 226 941 l 303 941 q 340 882 340 941 l 343 839 q 340 688 340 762 q 359 294 353 476 q 356 180 356 235 q 359 78 356 161 q 307 47 359 50 q 244 41 272 47 q 9 78 33 68 l 0 90 l 0 100 q 46 146 0 117 q 56 180 53 156 l 50 736 q 53 848 53 774 q 6 888 52 866 l 3 904 q 43 938 3 927 q 226 941 165 941 m 449 938 l 606 938 q 653 895 653 938 l 653 861 q 659 728 653 831 q 622 672 659 672 q 576 749 600 672 q 439 857 539 824 q 399 898 399 862 q 449 938 399 938 m 513 672 l 517 672 q 548 502 548 672 l 548 443 q 511 341 548 341 q 464 409 487 341 q 399 477 464 431 q 390 505 390 494 q 449 579 390 539 q 498 669 488 658 l 513 672 m 622 326 l 628 326 q 665 199 665 326 q 671 143 668 199 q 637 59 671 59 q 588 50 637 53 q 390 87 390 56 l 390 96 q 446 143 390 138 q 578 257 537 179 q 622 326 609 323 z "},"F":{"ha":773,"x_min":0,"x_max":742,"o":"m 125 978 q 271 975 191 978 q 347 978 311 978 q 389 922 389 978 q 395 655 395 760 q 389 222 389 307 l 389 111 q 454 62 389 79 q 468 31 468 44 q 420 0 460 0 l 215 0 q 38 3 152 0 q 0 28 0 18 l 0 45 q 66 97 3 54 l 69 121 l 69 159 q 49 468 49 368 l 49 503 q 73 787 49 553 l 73 860 q 21 919 73 899 q 14 940 14 930 l 14 950 q 125 978 14 978 m 486 975 l 541 975 q 669 971 597 975 q 707 975 688 975 q 739 933 739 969 l 739 850 q 742 725 739 802 q 714 683 730 683 l 707 683 q 655 763 674 683 q 600 839 628 815 q 471 895 550 878 q 451 940 451 916 q 486 975 456 975 m 589 686 q 628 610 628 673 l 628 604 q 610 371 610 441 l 610 361 q 586 312 610 329 l 569 312 q 524 409 555 313 q 458 461 516 420 q 451 489 451 474 l 451 499 q 510 569 451 534 q 562 673 526 588 q 589 686 576 686 z "},"G":{"ha":806,"x_min":0,"x_max":737,"o":"m 458 939 q 604 889 518 929 l 626 889 q 678 920 640 889 l 688 920 q 712 895 696 920 q 715 765 715 812 l 715 669 q 675 597 715 597 q 616 718 646 597 q 443 864 546 864 q 418 907 418 880 q 458 939 418 933 m 334 935 l 350 935 q 366 904 366 928 q 322 848 366 873 q 304 802 313 833 q 300 152 300 345 q 338 87 300 120 l 340 68 l 340 62 q 319 34 340 34 l 310 34 q 186 90 186 74 q 65 226 75 179 q 12 387 12 322 q 0 461 4 387 q 53 709 0 576 q 239 901 117 848 q 334 935 271 922 m 455 486 l 641 486 q 737 458 718 486 l 737 439 q 706 390 706 403 q 709 198 709 227 q 505 46 709 109 q 425 34 455 34 q 403 65 403 34 q 443 117 403 90 q 455 189 455 136 l 455 384 q 397 431 455 412 q 387 455 387 446 q 455 486 401 486 z "},"H":{"ha":968,"x_min":0,"x_max":896,"o":"m 665 965 q 873 945 688 965 q 896 916 896 934 q 843 869 896 888 q 833 833 838 854 q 840 326 837 738 q 837 115 837 210 q 892 73 841 100 q 896 53 892 70 q 857 20 891 35 q 800 23 818 23 l 724 23 q 566 3 663 23 l 445 13 q 395 0 427 13 q 16 33 16 16 q 3 59 3 47 q 50 102 3 74 l 53 119 l 53 155 l 36 448 q 56 814 50 606 q 36 876 56 876 q 0 912 3 896 q 79 958 11 958 l 85 958 q 247 949 231 949 l 349 949 q 385 952 363 949 q 448 932 437 932 l 461 932 l 540 962 q 665 965 652 965 m 372 804 q 376 576 372 731 l 372 543 q 376 534 376 537 l 372 504 q 395 109 386 138 q 445 82 433 82 q 511 151 511 102 l 511 158 q 507 214 511 193 l 520 441 q 500 448 509 448 l 445 448 q 415 477 415 452 l 415 491 q 458 540 415 540 l 517 540 q 527 550 519 540 q 494 869 527 869 q 451 892 456 892 q 376 823 376 869 q 372 804 372 823 z "},"I":{"ha":465,"x_min":0,"x_max":408,"o":"m 116 934 l 197 934 q 395 915 395 934 q 408 893 408 910 l 408 887 q 354 846 396 870 q 348 771 348 826 q 351 708 348 717 q 348 589 348 633 l 348 140 q 401 94 348 123 q 408 75 408 83 l 408 65 q 354 37 393 37 q 195 34 296 37 q 0 81 0 34 q 54 125 0 98 q 62 150 62 140 l 62 313 q 41 492 41 425 l 41 498 q 60 764 41 590 l 60 833 q 16 874 60 852 l 6 887 l 6 903 q 116 934 26 934 z "},"J":{"ha":755,"x_min":0,"x_max":716,"o":"m 454 975 q 635 972 534 972 l 659 972 q 716 938 716 972 l 716 928 q 663 888 708 914 l 659 871 l 659 814 q 673 635 659 772 q 676 323 673 517 q 602 81 676 143 q 410 0 515 0 q 296 40 296 0 l 296 57 q 333 118 296 75 q 336 185 336 163 q 330 249 336 213 q 347 373 338 249 l 347 397 q 357 857 357 760 q 309 905 357 905 q 286 924 286 920 l 286 935 q 387 972 286 972 q 454 975 408 972 m 172 400 q 296 282 238 400 q 302 249 302 256 q 235 141 287 175 q 215 115 215 133 l 215 108 q 239 50 239 59 q 212 27 239 31 q 40 121 93 54 q 0 232 0 179 q 141 400 0 350 l 172 400 z "},"K":{"ha":869,"x_min":0,"x_max":821,"o":"m 164 924 q 392 887 392 918 q 395 875 392 886 q 349 832 395 867 q 331 404 340 832 l 331 145 q 377 106 331 123 l 380 91 l 380 79 q 347 60 370 60 l 271 60 q 43 57 187 60 q 0 91 0 64 q 49 130 0 109 q 58 173 58 156 q 52 549 58 330 q 55 760 55 627 q 21 857 55 857 l 9 872 l 9 881 q 121 918 9 918 q 164 924 121 923 m 650 918 q 787 884 787 918 q 793 878 793 883 l 793 872 q 720 820 793 846 q 583 668 618 750 l 583 653 q 769 145 599 594 q 818 94 777 132 q 821 81 821 88 q 745 54 821 54 q 468 57 558 57 q 437 87 437 65 l 437 97 q 471 142 471 129 l 471 163 q 383 465 383 431 q 541 702 383 484 q 568 772 568 741 l 568 784 q 511 857 568 826 q 495 884 495 872 q 620 918 495 918 l 650 918 z "},"L":{"ha":737,"x_min":0,"x_max":699,"o":"m 227 972 q 340 974 227 972 q 454 931 454 975 q 389 883 454 909 q 375 846 375 865 l 375 825 q 385 726 385 749 l 385 703 q 375 542 385 682 l 375 422 q 382 34 375 233 q 303 0 382 0 q 239 3 266 3 l 65 3 q 0 41 0 3 l 0 44 q 54 89 0 67 q 62 106 54 95 q 65 276 62 131 q 62 426 65 365 q 65 696 65 543 l 65 852 q 7 913 65 890 l 0 935 q 227 972 0 968 m 672 334 q 699 303 688 330 q 696 225 696 241 q 699 51 696 180 q 665 14 693 14 q 460 7 491 10 q 430 44 430 14 q 508 102 430 90 q 614 249 580 149 q 672 334 633 334 z "},"M":{"ha":1006,"x_min":0,"x_max":949,"o":"m 741 945 q 770 941 758 941 l 792 941 q 949 906 949 937 l 949 899 q 905 854 949 877 l 901 839 l 901 739 l 888 473 q 892 448 888 465 q 879 123 885 326 q 930 79 879 103 l 933 62 l 933 59 q 850 31 933 37 l 818 33 l 571 33 q 516 59 540 33 l 516 75 q 577 111 521 85 q 590 155 590 125 l 590 752 q 606 925 590 925 q 738 945 622 934 l 741 945 m 125 938 q 215 935 168 935 l 311 935 q 378 829 359 935 l 462 579 l 469 576 l 481 576 q 516 656 493 576 l 523 659 l 529 646 q 526 633 529 639 q 529 572 529 598 q 433 242 529 557 q 375 53 395 102 q 366 46 368 46 l 356 46 q 311 146 336 52 q 141 678 269 267 q 77 848 86 846 q 19 880 77 857 q 6 903 6 899 q 58 935 16 935 q 125 938 109 935 m 96 559 l 100 559 q 151 435 123 534 q 154 409 151 427 q 151 258 151 325 q 170 140 151 161 q 247 72 246 77 l 247 56 q 170 27 247 32 q 0 72 0 27 q 48 117 0 87 q 83 194 83 158 l 83 467 q 96 559 85 559 z "},"N":{"ha":821,"x_min":0,"x_max":779,"o":"m 197 918 q 280 909 264 909 l 323 909 q 394 826 363 909 q 637 401 403 821 q 687 284 687 326 l 693 105 q 659 44 693 44 l 545 44 q 490 96 512 44 q 286 438 426 182 q 46 836 129 713 q 0 876 0 851 q 166 912 0 912 q 197 918 166 918 m 579 912 l 616 909 l 631 909 q 770 890 770 909 q 779 869 779 880 q 711 808 779 861 q 690 678 690 779 l 690 512 q 681 478 690 478 l 675 478 q 625 570 625 535 q 607 804 625 804 q 530 876 538 860 l 530 878 q 579 912 530 905 m 90 656 l 92 656 q 148 536 148 591 q 151 407 148 452 q 148 225 148 332 l 148 207 q 228 93 148 136 q 237 71 237 82 q 206 47 237 52 q 52 41 188 47 q 0 77 0 50 q 58 130 0 85 q 83 266 83 157 l 83 370 q 77 638 83 471 q 90 656 83 656 z "},"O":{"ha":917,"x_min":0,"x_max":861,"o":"m 492 972 q 732 837 631 943 q 847 608 827 722 q 861 533 861 564 l 861 489 q 789 226 842 312 q 587 24 686 56 q 496 3 522 3 l 483 3 q 459 27 459 3 l 459 44 q 503 87 459 49 q 516 118 516 106 l 516 206 q 509 489 516 255 q 519 847 519 737 q 466 914 519 873 q 463 928 463 920 l 463 935 q 492 972 463 972 m 361 968 l 378 968 q 395 935 395 961 l 395 931 q 345 874 395 911 q 334 837 334 848 l 334 783 q 351 574 345 707 l 351 479 q 334 165 334 235 l 334 121 q 385 58 334 87 q 391 27 391 35 q 371 0 387 0 q 135 111 275 0 q 0 422 31 227 l 0 425 q 47 719 0 572 q 273 945 130 879 q 361 968 331 968 z "},"P":{"ha":871,"x_min":0,"x_max":835,"o":"m 237 984 q 383 947 383 984 l 390 889 q 387 852 387 866 q 390 801 387 821 q 376 112 383 703 q 441 71 376 91 q 461 41 461 56 q 370 0 461 0 q 220 10 297 10 q 61 3 90 3 q 3 41 3 3 q 51 88 3 64 q 61 122 61 106 l 61 142 q 58 186 61 170 q 68 706 64 186 q 58 798 58 768 l 58 845 q 3 909 58 880 l 0 926 q 237 984 0 984 m 468 967 q 723 882 690 938 q 835 652 835 786 q 764 478 825 565 q 506 363 671 363 l 478 363 q 420 410 420 363 q 481 481 420 426 q 506 689 497 481 q 516 770 511 689 q 458 889 516 889 q 437 930 437 901 q 468 967 444 967 z "},"Q":{"ha":890,"x_min":0,"x_max":823,"o":"m 353 954 q 382 924 382 948 q 339 865 382 901 q 323 823 323 842 l 323 783 q 326 674 323 688 q 323 536 323 601 l 323 523 q 319 137 323 374 q 376 48 319 92 q 379 35 379 43 q 353 5 374 5 q 149 101 282 5 q 13 368 37 222 q 0 480 0 403 q 224 911 0 796 q 353 954 262 932 m 471 951 l 477 951 q 695 832 577 943 q 823 490 823 681 l 823 486 q 731 147 823 295 q 715 101 715 118 l 715 91 q 738 68 715 68 l 764 68 q 800 71 778 68 q 821 55 814 66 l 821 48 q 748 -24 821 16 q 675 -41 709 -41 l 662 -41 q 553 -7 629 -41 q 511 -5 532 -5 l 477 -5 q 441 32 441 -5 q 465 78 441 41 l 465 94 q 392 147 465 125 q 379 170 379 165 q 441 210 379 203 l 477 210 q 500 259 500 210 l 500 341 q 507 578 500 505 q 504 711 504 640 l 504 816 q 451 895 504 869 l 445 918 q 471 951 445 951 z "},"R":{"ha":926,"x_min":0,"x_max":915,"o":"m 224 993 q 289 989 257 989 l 326 989 q 385 945 385 989 l 385 860 q 374 214 378 610 q 378 130 378 163 q 439 88 378 110 q 452 71 452 73 l 452 64 q 374 31 452 31 q 150 20 355 31 l 126 20 q 7 47 7 20 q 0 64 1 47 q 51 119 0 75 q 58 140 58 130 q 64 313 64 264 l 64 439 q 61 561 64 520 q 64 684 64 602 l 64 846 q 24 925 64 912 q 7 952 7 934 q 180 989 7 989 q 224 993 208 989 m 476 986 l 483 986 q 745 911 678 986 q 826 741 826 840 l 826 734 q 772 605 819 676 q 636 520 688 520 q 629 510 636 519 l 629 493 q 714 456 635 481 q 816 292 816 403 q 819 231 816 279 q 816 177 816 205 l 829 167 l 843 167 q 874 180 856 167 l 891 180 q 915 143 915 163 q 816 27 888 64 q 714 0 768 0 q 537 95 623 0 q 503 235 517 118 q 507 289 507 269 l 507 347 q 442 456 507 432 l 432 486 q 486 541 432 515 q 510 663 507 541 l 510 680 q 476 891 506 891 q 432 945 432 916 q 476 986 432 986 z "},"S":{"ha":764,"x_min":0,"x_max":700,"o":"m 319 999 q 360 955 354 999 q 279 887 360 913 q 245 825 245 858 l 245 788 q 441 632 245 688 q 618 524 515 621 q 696 309 696 413 q 574 54 696 161 q 401 3 456 3 q 374 37 374 12 q 435 98 374 61 q 452 149 452 115 q 343 302 452 250 q 163 387 288 335 q 0 646 0 512 l 0 656 q 44 815 0 718 q 235 968 125 930 q 319 999 250 985 m 428 985 l 438 985 q 561 938 459 985 q 581 931 572 931 l 591 931 q 656 965 615 931 l 669 965 q 700 887 690 965 q 696 867 696 869 q 700 707 700 721 q 659 625 693 625 q 588 761 634 625 q 425 914 528 872 q 408 955 408 933 q 428 985 408 972 m 68 330 l 75 330 q 132 211 102 330 q 269 85 214 85 q 309 31 309 65 q 292 0 302 0 l 282 0 q 139 31 266 0 l 122 31 q 61 3 64 3 q 20 221 20 3 q 68 330 28 330 z "},"T":{"ha":782,"x_min":-34,"x_max":736,"o":"m 609 977 q 730 947 730 977 q 736 793 736 907 l 736 728 q 694 660 736 669 q 639 791 653 660 q 564 895 623 840 q 557 928 564 898 q 609 977 557 975 m 113 970 q 152 921 152 970 q 87 833 152 901 q 45 680 62 783 q 9 653 25 653 q -34 732 -34 653 l -34 739 q -31 931 -34 803 q 41 964 -31 964 q 113 970 99 970 m 227 970 q 361 967 329 967 l 465 970 q 505 882 505 970 q 508 673 505 789 q 501 431 501 460 q 528 235 508 337 q 524 154 524 166 q 583 98 524 130 l 589 75 l 589 73 q 463 30 589 30 q 387 14 463 26 q 139 50 139 24 q 116 75 127 50 q 175 125 116 100 q 191 174 191 140 l 191 203 q 204 428 191 234 l 204 791 q 195 863 195 851 l 195 905 q 227 970 195 964 z "},"U":{"ha":821,"x_min":0,"x_max":848,"o":"m 336 973 l 363 973 q 427 932 416 973 q 387 888 427 913 q 376 865 376 876 l 376 848 q 383 753 376 811 q 373 190 380 337 q 431 81 373 103 q 451 34 451 73 q 420 0 451 8 q 122 98 224 0 q 54 302 54 182 q 64 726 64 663 q 41 892 64 892 q 0 932 0 911 l 0 936 q 258 970 0 966 q 336 973 274 973 m 746 973 l 783 973 q 848 936 848 973 l 848 929 q 756 780 756 853 l 753 732 q 756 641 753 693 q 753 339 753 484 q 621 44 753 119 q 543 10 570 10 l 536 10 q 519 47 519 17 q 597 105 519 83 q 682 237 682 168 q 678 498 682 310 q 682 793 682 717 q 600 909 682 868 q 587 926 587 924 l 587 943 q 746 973 596 973 z "},"V":{"ha":707,"x_min":-75,"x_max":739,"o":"m 307 966 q 361 922 351 966 q 314 871 361 911 l 314 824 q 476 267 425 431 l 476 263 q 395 7 428 7 q 280 0 358 0 q 209 58 223 0 q 54 614 117 356 q -24 871 6 805 q -75 922 -75 904 q 50 962 -75 956 q 307 966 99 962 m 547 966 l 574 966 q 739 935 739 966 l 739 925 q 661 865 739 909 q 547 527 618 826 q 509 412 524 412 l 506 412 q 476 490 476 445 q 543 739 476 500 l 553 793 l 553 834 q 499 895 553 876 q 476 925 476 905 l 476 932 q 547 966 498 966 z "},"W":{"ha":1019,"x_min":-69,"x_max":1069,"o":"m 1017 988 q 1069 954 1069 980 q 992 880 1069 947 q 912 630 973 880 q 878 511 892 511 l 871 511 q 846 588 857 511 q 895 825 846 608 l 895 859 q 829 932 895 895 l 825 950 l 825 957 q 1006 988 825 983 l 1017 988 m 637 985 q 700 835 672 985 l 840 338 q 760 24 791 104 q 680 7 737 7 q 606 49 606 7 q 530 317 589 96 q 446 640 446 602 q 533 971 519 952 q 637 985 550 981 m 175 981 q 279 978 263 978 q 324 981 302 981 q 370 947 370 972 q 324 895 324 897 q 321 880 321 888 l 321 849 q 394 591 321 833 q 453 355 415 518 q 355 7 383 7 q 321 0 327 3 q 290 3 302 3 l 251 3 q 178 153 207 3 q 91 470 126 309 l -20 873 q -66 929 -20 888 q -69 943 -69 935 q 46 978 -69 978 q 175 981 146 981 z "},"X":{"ha":806,"x_min":0,"x_max":779,"o":"m 287 930 l 297 930 q 415 898 415 920 q 421 882 421 898 q 395 831 395 837 l 395 818 q 501 589 395 772 l 734 113 q 779 58 779 72 q 734 24 779 33 q 469 20 567 20 l 425 20 q 367 58 367 20 q 395 110 395 98 l 395 129 q 284 372 395 153 q 67 795 237 479 q 0 872 57 819 l 0 882 q 127 924 0 924 q 287 930 279 930 m 654 920 q 747 885 747 920 q 673 818 747 868 q 562 659 650 797 l 552 652 l 543 652 q 524 687 533 652 l 524 697 q 552 783 552 756 l 552 799 q 494 876 552 829 l 494 885 q 603 920 494 920 l 654 920 m 236 298 q 255 266 255 287 q 211 183 255 258 q 204 129 204 157 q 262 71 204 94 q 268 52 268 61 q 191 20 268 20 l 58 20 q 19 49 19 20 l 19 52 q 92 103 31 72 q 223 298 123 132 l 236 298 z "},"Y":{"ha":755,"x_min":-81,"x_max":740,"o":"m 679 981 q 740 937 740 968 l 740 933 q 686 882 740 910 q 618 743 646 848 q 516 543 545 547 q 475 621 498 543 q 550 814 550 785 l 550 845 q 482 916 550 884 l 479 933 l 479 943 q 679 981 479 975 m 81 974 q 241 970 147 970 l 281 970 q 346 933 346 970 l 346 926 q 309 876 309 890 l 309 845 q 359 726 309 811 q 486 444 435 581 q 482 359 482 389 l 482 129 q 543 81 482 98 l 560 61 l 560 58 q 452 17 560 17 q 342 0 374 0 l 268 0 q 92 47 92 0 l 92 58 q 159 102 95 72 q 170 193 170 132 l 170 346 q 109 526 170 414 q 27 740 75 600 q -44 892 -31 871 q -81 933 -81 918 q -24 970 -81 970 q 81 974 44 970 z "},"Z":{"ha":725,"x_min":0,"x_max":663,"o":"m 565 953 q 663 918 663 953 l 663 898 q 516 524 663 890 q 393 268 486 456 l 289 54 q 237 37 279 43 q 176 41 193 41 q 23 34 157 41 q 0 63 0 43 l 0 76 q 68 284 0 98 q 195 544 68 303 q 363 918 251 659 q 409 950 381 950 l 445 950 q 565 953 503 950 m 68 950 l 267 950 q 296 937 291 950 q 227 869 283 869 q 100 751 150 844 q 58 680 100 722 l 55 680 q 20 720 32 680 q 26 907 26 833 q 68 950 26 950 m 630 310 q 659 281 645 310 q 656 183 656 216 l 656 89 q 617 37 656 37 q 425 41 458 41 q 393 37 421 41 q 370 60 370 43 q 468 119 370 101 q 585 255 549 158 q 630 310 604 310 z "},"[":{"ha":1186,"x_min":61,"x_max":1134,"o":"m 64 1118 l 1131 1118 q 1134 1115 1134 1118 l 1134 -237 q 1131 -240 1134 -240 l 64 -240 q 61 -237 61 -240 l 61 1115 q 64 1118 62 1118 m 77 1097 l 77 -220 l 1118 -220 l 1118 1097 l 77 1097 m 761 1074 l 778 1074 q 787 1056 783 1074 l 789 1056 l 797 1058 q 816 1051 810 1057 q 828 1058 816 1058 l 828 1056 l 831 1058 l 844 1056 l 844 1061 q 859 1074 844 1074 l 874 1074 q 883 1056 879 1074 l 893 1058 q 911 1051 911 1056 l 911 1008 q 902 1000 911 1006 l 881 1000 l 881 903 q 878 878 881 878 q 881 855 880 876 q 876 848 879 848 l 873 848 q 867 878 867 848 l 866 878 q 861 867 866 867 q 855 878 855 869 l 855 889 l 852 889 l 852 863 q 854 838 852 855 l 850 836 l 847 836 q 844 840 844 836 l 844 848 q 845 867 844 861 l 842 934 q 844 965 844 947 l 844 1000 l 823 1000 q 814 1008 822 1000 q 806 1000 814 1006 l 785 1000 l 785 955 q 787 948 785 951 l 785 945 q 787 903 787 920 q 783 879 787 896 q 785 852 785 861 l 780 848 l 778 848 q 771 878 771 848 l 770 878 q 766 867 770 867 q 759 889 761 867 l 758 889 l 755 879 q 758 838 758 840 q 752 834 753 834 q 747 842 750 834 q 749 863 747 852 q 747 922 747 897 q 745 932 747 930 q 747 948 747 942 l 747 1000 l 728 1000 q 718 1015 718 1006 l 718 1046 q 733 1058 718 1058 l 735 1058 l 747 1056 q 761 1074 747 1074 m 684 1070 l 707 1070 q 715 1058 715 1067 l 715 1041 q 716 1010 715 1026 l 715 1001 q 716 977 716 987 q 715 972 716 975 l 716 962 l 716 953 q 715 941 716 943 q 716 926 716 932 l 716 920 q 706 886 716 886 q 694 874 703 886 l 687 874 l 687 869 q 685 863 687 863 l 687 855 l 687 842 q 682 836 687 839 l 680 836 q 675 846 675 838 l 675 860 q 670 881 675 879 q 659 878 664 878 q 654 884 655 878 l 652 884 l 652 863 q 648 859 652 861 q 644 862 644 859 l 646 879 q 644 897 644 888 q 630 888 637 888 q 620 922 620 897 q 622 987 622 964 l 622 1046 q 630 1063 622 1059 l 644 1063 q 661 1042 661 1063 l 661 926 q 665 922 662 922 l 671 922 q 677 936 677 923 l 677 1058 q 684 1070 677 1067 m 149 1068 l 151 1068 q 174 1053 174 1068 q 182 1003 182 1010 l 183 1003 q 202 1061 188 1061 q 212 1060 203 1061 q 222 1061 221 1061 q 230 1056 230 1059 q 204 889 208 928 l 200 888 l 199 888 l 192 893 q 185 889 188 889 l 185 871 q 180 865 185 868 q 171 908 175 865 q 159 951 163 908 l 157 951 q 147 882 154 899 q 144 878 147 878 l 142 878 q 138 881 138 878 l 138 901 q 135 922 138 910 l 134 922 q 121 891 126 891 l 119 891 q 109 941 113 891 q 89 1061 100 970 l 94 1065 l 118 1065 q 135 1008 126 1065 l 137 1008 q 149 1068 142 1068 m 460 1068 q 511 1039 504 1068 q 513 1020 513 1027 l 513 955 q 511 878 513 930 l 508 876 l 503 879 l 505 897 l 505 907 q 496 895 499 907 l 498 884 l 498 876 q 492 871 498 873 l 491 871 q 488 874 488 871 l 488 895 q 484 898 488 898 q 479 893 484 896 l 475 893 l 467 898 l 463 893 l 463 876 q 458 871 463 873 l 456 871 q 452 878 455 871 l 453 886 q 452 900 452 898 l 443 898 l 439 905 q 441 924 441 917 l 441 926 q 437 922 437 925 l 437 911 q 439 878 437 897 q 433 862 437 862 q 427 867 430 862 q 426 943 426 926 q 427 958 426 949 q 426 968 426 967 q 427 1053 427 1017 l 427 1055 q 453 1068 427 1068 l 460 1068 m 274 1067 l 285 1067 q 319 1032 304 1067 q 321 977 319 1010 q 319 937 321 969 q 321 897 321 907 q 319 857 319 869 l 315 855 q 309 888 311 855 q 300 907 300 895 l 298 907 q 292 889 298 889 l 288 891 q 281 889 285 889 q 276 900 276 896 q 271 878 271 900 l 273 871 q 267 862 271 862 l 264 869 l 266 886 q 260 900 264 900 q 252 872 256 895 l 248 871 q 241 897 245 871 q 233 913 237 897 l 233 1010 q 274 1067 233 1067 m 367 1067 l 381 1067 q 415 1032 401 1067 q 417 1012 415 1017 q 415 1010 417 1010 l 417 989 l 417 876 q 415 869 417 872 q 417 862 417 866 q 412 855 414 855 q 405 889 407 855 q 398 905 398 892 l 396 905 q 388 889 396 890 l 385 891 q 378 889 381 889 q 370 900 374 900 q 367 882 367 885 q 369 869 369 873 q 363 862 366 862 q 360 869 362 869 l 362 881 l 362 886 q 357 900 362 899 q 348 872 352 895 l 345 872 q 336 900 342 872 q 330 916 330 907 l 330 1000 q 367 1067 330 1067 m 578 1065 q 611 1025 611 1052 l 611 984 q 596 977 609 977 q 577 982 577 977 l 577 1003 l 575 1012 l 565 1012 q 559 967 559 1012 l 559 926 l 562 917 l 572 917 q 578 941 576 917 l 584 945 l 597 945 q 611 939 610 945 l 611 922 q 606 907 611 919 q 608 876 608 883 l 604 874 q 597 889 600 874 l 594 888 q 591 891 591 888 l 591 911 l 589 911 q 582 881 584 899 l 581 881 q 574 898 576 881 l 565 900 l 562 895 l 562 879 q 551 871 562 876 l 549 871 l 545 874 q 546 900 546 891 l 546 905 q 536 916 536 905 l 534 916 l 532 907 l 532 881 q 529 878 532 878 q 526 881 526 878 q 524 949 526 899 q 526 1029 526 1004 q 556 1065 526 1049 l 578 1065 m 922 1065 l 998 1065 q 1005 1058 1001 1065 l 1005 1022 q 991 1008 1005 1008 l 955 1008 l 955 970 l 979 970 q 986 964 982 970 l 986 939 q 974 927 986 927 l 955 927 l 955 913 l 959 916 q 1002 913 987 913 q 1007 901 1007 907 l 1007 884 q 1003 881 1007 881 l 1002 881 q 996 886 999 881 l 996 895 l 993 895 l 986 882 l 985 882 q 979 889 980 882 l 977 889 q 972 876 977 876 l 969 876 q 962 898 964 876 l 960 898 q 950 869 955 869 l 947 869 q 931 879 939 878 q 929 891 929 886 l 928 891 q 921 881 928 884 q 916 886 920 881 q 918 911 918 903 l 918 919 q 916 932 918 930 q 918 951 918 944 l 918 1051 q 922 1065 918 1064 m 1022 1065 l 1070 1065 q 1103 1017 1103 1057 l 1103 960 q 1093 924 1103 947 q 1107 893 1107 898 l 1107 888 l 1101 869 q 1103 855 1101 867 q 1095 848 1102 855 q 1089 853 1092 848 l 1089 878 l 1086 878 l 1084 869 q 1086 846 1086 848 q 1081 840 1083 840 q 1074 846 1079 840 l 1076 859 l 1076 862 q 1057 916 1076 880 l 1051 916 l 1051 900 q 1048 881 1048 883 l 1050 865 q 1044 857 1048 857 l 1043 857 q 1038 865 1039 857 q 1040 888 1040 880 l 1036 889 q 1033 886 1036 886 l 1031 886 q 1027 893 1027 886 l 1025 893 q 1024 881 1025 883 q 1027 853 1025 881 q 1022 846 1025 846 l 1019 846 q 1014 857 1015 846 q 1017 888 1014 861 q 1014 898 1016 898 q 1015 962 1015 941 l 1015 1044 q 1022 1065 1015 1065 m 267 1010 l 267 929 l 269 920 l 279 920 q 285 930 285 922 l 285 996 q 276 1015 285 1015 l 273 1015 q 267 1010 270 1015 m 363 1004 l 363 996 q 366 960 363 977 q 363 929 363 950 q 369 920 365 920 l 376 920 q 381 926 378 920 l 381 1004 q 376 1015 381 1014 l 374 1015 q 363 1004 363 1015 m 463 1015 q 462 1010 463 1013 l 463 1006 l 462 1003 q 463 998 463 1000 l 462 994 q 463 987 463 991 l 462 984 q 463 982 462 982 l 462 974 l 462 920 l 463 911 q 471 913 467 913 l 471 998 l 472 1015 l 463 1015 m 1051 1012 l 1051 956 l 1053 956 l 1062 958 l 1062 1008 q 1059 1012 1062 1012 l 1051 1012 m 352 860 q 424 812 401 860 q 441 731 441 789 q 439 718 439 724 q 448 712 448 716 l 448 705 q 443 682 443 690 q 456 666 445 682 l 456 661 l 453 661 l 453 652 q 458 623 453 644 q 453 621 455 621 q 460 601 453 621 l 456 599 l 455 599 l 452 601 q 444 563 452 593 l 439 563 q 434 580 439 580 q 431 557 431 564 l 431 553 l 426 553 q 422 557 426 557 l 420 557 q 408 537 420 539 q 401 518 407 518 l 395 523 q 391 492 391 499 l 389 492 q 381 503 381 497 q 372 487 378 500 l 369 487 q 363 500 369 500 q 355 486 359 486 q 350 494 350 491 l 348 494 l 343 484 l 338 484 q 333 496 336 496 q 324 484 328 485 q 317 492 321 492 l 311 487 l 309 487 q 296 503 306 487 q 293 497 296 497 l 290 497 q 283 527 283 524 l 276 518 q 269 553 271 518 l 267 553 l 267 549 l 262 549 l 256 587 l 247 580 q 243 583 243 580 q 247 602 247 598 q 243 628 247 609 l 237 625 q 235 627 237 627 q 237 652 237 644 l 237 664 q 248 688 237 667 l 248 693 q 243 718 243 709 q 252 730 243 719 l 252 747 q 296 840 252 800 q 352 860 316 855 m 260 752 l 260 726 q 267 718 267 718 q 264 667 267 707 q 267 664 267 667 l 267 652 l 273 652 l 273 638 l 274 638 q 278 645 274 645 q 281 642 281 645 l 281 627 q 285 619 285 622 l 288 619 q 309 652 288 641 q 312 649 312 652 q 302 633 312 647 l 302 631 q 312 635 307 635 l 317 635 l 315 644 l 315 654 q 321 659 315 656 q 324 656 324 659 q 322 650 322 652 q 326 642 326 645 l 330 644 l 333 644 q 347 635 340 635 l 348 635 l 359 644 l 360 644 l 369 642 l 370 650 l 370 652 l 369 652 q 363 650 366 650 l 362 654 q 367 656 366 656 l 367 657 l 362 666 l 366 667 q 378 647 378 661 l 378 644 l 376 640 l 382 638 l 382 647 q 386 650 383 650 q 410 616 388 641 l 412 616 l 412 625 q 415 628 412 628 l 418 627 l 418 631 l 417 644 q 418 645 418 644 l 422 644 l 426 644 q 429 675 426 666 l 426 707 q 434 731 434 709 q 385 846 434 818 l 382 846 q 369 826 378 845 q 376 821 376 825 l 376 819 l 333 759 q 331 764 331 762 q 348 808 348 804 q 333 817 333 812 l 348 852 l 347 852 q 274 804 310 852 q 260 752 260 770 m 214 834 l 216 831 q 214 753 214 779 l 208 749 q 195 802 205 749 q 190 805 191 805 l 149 805 l 147 788 l 147 685 l 185 685 q 199 724 193 685 l 202 724 q 208 719 205 724 l 208 678 q 205 676 208 676 l 208 673 l 208 619 q 200 612 208 616 q 190 652 197 615 l 186 654 q 147 656 155 656 l 147 580 q 161 535 147 535 q 173 528 170 535 l 173 518 q 170 513 173 517 l 152 515 l 111 515 l 99 513 q 96 527 96 519 q 115 541 96 530 q 118 576 118 549 l 118 767 q 109 810 118 810 q 96 824 96 812 l 96 829 l 97 833 q 149 831 132 831 l 185 831 q 214 834 200 831 m 703 824 q 881 819 720 824 l 883 815 q 881 755 883 795 q 880 753 880 755 q 850 755 859 755 l 831 755 q 825 506 825 550 q 823 500 823 503 q 825 499 825 500 l 821 497 q 742 499 773 499 l 739 500 l 741 505 q 747 759 741 543 l 701 759 q 697 764 697 759 l 699 823 l 703 824 m 678 812 q 689 795 687 812 q 687 764 687 774 l 685 764 q 689 753 689 758 l 689 734 q 663 715 689 721 l 663 712 l 667 712 q 689 701 689 712 q 692 637 690 686 l 690 619 l 694 578 q 689 556 692 556 l 675 556 l 616 602 q 548 663 600 621 l 549 645 l 549 623 q 548 621 549 621 q 551 602 551 614 l 551 575 q 536 553 551 565 q 503 557 503 553 l 491 556 l 484 556 q 479 583 479 556 l 479 627 q 477 650 479 636 l 479 654 q 477 669 477 663 l 477 680 q 479 695 477 689 q 477 709 477 705 q 475 808 475 786 l 479 810 l 489 810 q 549 762 500 810 l 549 745 l 545 738 q 553 736 547 736 q 559 743 553 739 l 568 743 q 613 711 576 743 l 616 709 l 616 749 q 614 802 616 770 q 665 812 614 812 l 678 812 m 955 781 q 1072 760 1072 770 q 1098 721 1098 744 l 1098 718 q 1089 666 1098 691 q 1021 678 1025 676 q 1022 704 1021 682 q 979 714 1022 710 q 966 682 968 714 q 1031 664 966 667 q 1081 612 1081 648 l 1081 611 q 1078 585 1081 600 l 1095 561 l 1095 559 q 1069 532 1069 543 q 1014 492 1053 492 q 905 515 905 502 q 883 556 892 515 q 886 601 886 579 q 892 602 890 602 q 957 595 945 599 q 954 573 955 577 q 995 559 954 562 q 1007 597 1007 559 q 933 611 1007 603 q 893 657 893 629 l 893 685 l 873 707 q 900 745 900 723 q 955 781 918 781 m 281 774 l 283 774 l 283 772 q 285 752 283 770 q 279 745 282 745 l 276 747 l 278 755 l 278 771 q 281 774 278 774 m 422 766 l 424 762 l 424 760 q 422 745 424 754 q 424 740 424 742 l 420 738 q 417 741 417 738 l 417 743 q 422 766 417 766 m 292 749 l 302 749 q 326 740 307 745 l 326 736 q 293 743 314 736 q 288 747 288 743 l 292 749 m 396 741 q 407 736 407 740 q 381 728 400 736 l 379 731 q 396 741 389 741 m 286 736 l 288 736 q 322 721 294 736 l 322 715 l 314 715 l 314 714 q 324 705 319 714 l 324 704 q 322 702 324 702 l 324 699 q 302 688 317 688 l 300 688 q 278 705 278 690 q 293 718 278 718 l 293 719 l 288 719 q 271 714 279 714 l 269 714 l 269 721 q 286 736 269 734 m 340 734 q 345 723 345 728 l 345 721 q 340 715 345 718 l 338 719 l 340 723 q 336 733 336 730 l 340 734 m 350 734 q 353 712 353 725 l 350 711 q 347 724 347 717 l 347 731 q 350 734 347 734 m 415 733 l 427 719 l 427 718 q 424 714 427 714 l 420 714 q 417 718 417 714 q 398 714 414 718 l 398 712 q 414 701 414 708 q 391 683 408 683 q 385 688 385 686 l 386 692 q 367 701 367 694 l 367 702 q 376 709 371 709 l 372 714 l 372 715 q 415 733 372 724 m 254 721 q 257 718 254 718 l 259 718 l 259 721 l 254 721 m 324 715 q 334 709 334 712 q 330 701 332 701 q 326 704 326 701 l 328 707 q 321 711 323 711 l 321 712 q 324 715 321 715 m 252 711 l 256 690 l 259 690 l 257 699 l 257 712 l 256 712 l 252 711 m 286 709 q 293 702 286 706 l 295 702 l 293 705 l 293 709 l 295 712 l 290 712 q 286 709 286 712 m 311 711 l 311 701 q 319 704 316 704 q 311 711 318 707 m 436 711 l 436 707 q 441 709 439 709 l 441 711 l 436 711 m 396 707 q 398 702 398 704 q 396 697 396 699 q 405 704 404 700 q 396 707 399 707 m 374 701 l 378 699 l 381 699 l 381 705 q 374 701 374 703 m 436 702 l 436 697 l 437 697 l 437 702 l 436 702 m 355 699 q 370 669 363 696 q 369 667 369 669 q 353 682 353 667 l 355 699 m 338 697 l 340 693 l 340 683 q 341 659 340 673 q 334 649 338 649 l 331 650 q 333 657 333 656 l 331 675 q 338 697 334 697 m 321 693 l 324 693 l 328 692 q 330 693 328 693 l 331 690 l 331 683 q 322 673 325 673 q 321 678 321 676 q 326 688 326 686 l 326 690 l 324 690 q 302 675 324 677 l 295 675 q 278 686 286 675 l 278 688 q 281 692 278 692 q 296 682 287 682 l 305 682 q 321 693 321 684 m 369 693 q 395 680 381 680 q 417 688 408 680 l 418 685 q 395 671 418 675 q 366 692 376 671 l 369 693 m 353 601 l 350 602 q 331 601 338 601 l 326 601 q 322 597 322 600 q 340 593 338 593 l 370 602 l 370 604 l 367 604 q 353 601 362 604 m 386 604 q 374 580 386 594 q 381 571 377 572 q 393 593 387 571 l 393 599 q 386 604 393 602 m 302 589 q 315 563 302 569 q 322 576 320 563 l 322 578 q 314 595 314 578 l 314 599 q 302 589 305 599 m 300 477 q 312 412 304 477 q 338 444 331 441 q 374 429 372 433 l 372 404 q 381 360 372 396 l 381 358 q 340 329 374 348 q 285 339 285 335 l 288 360 q 264 470 276 448 l 269 473 l 281 473 q 300 477 283 473 m 733 477 l 768 477 q 771 471 771 477 q 766 451 766 456 l 766 446 l 780 446 q 783 442 783 446 l 783 441 q 777 427 783 427 l 764 429 q 763 423 763 425 q 761 374 761 400 q 774 363 774 366 q 758 341 767 348 q 720 367 720 363 q 730 432 730 386 q 720 437 720 432 l 720 441 q 725 451 721 451 q 730 449 728 449 q 732 454 732 452 q 730 475 730 472 l 733 477 m 574 461 l 575 461 q 593 434 593 441 q 577 408 581 410 l 575 408 q 565 427 572 408 l 559 427 q 555 408 556 408 q 565 378 555 378 q 589 370 589 376 q 574 348 578 349 l 572 348 l 522 360 q 520 365 520 363 l 526 384 q 508 432 526 432 q 507 434 507 432 q 520 460 508 446 q 555 432 555 450 l 556 432 q 574 461 570 460 m 649 460 q 697 441 678 444 l 699 437 q 692 387 692 408 q 706 368 692 378 l 706 367 q 687 346 693 346 q 661 372 661 359 l 659 372 q 630 348 632 348 q 603 377 603 361 q 614 408 603 408 q 625 410 624 410 l 625 413 l 611 429 l 611 431 q 649 460 640 460 m 437 454 l 439 454 q 489 441 465 446 q 491 439 489 439 q 489 420 489 427 q 494 365 489 386 q 452 339 472 355 q 404 353 425 349 l 401 357 q 404 368 401 361 q 393 425 401 397 l 393 427 q 426 444 395 431 q 437 454 426 447 m 847 446 q 893 420 858 437 l 893 416 q 880 353 887 416 q 881 348 881 350 l 831 330 q 789 353 806 348 l 789 357 q 795 412 795 385 q 793 425 795 416 q 826 437 793 433 q 847 446 841 446 m 119 437 q 123 434 123 437 l 123 427 q 154 319 145 319 q 163 312 159 319 l 163 310 q 156 288 161 288 l 152 288 q 118 298 118 296 q 85 420 118 323 q 83 422 83 420 l 83 429 q 119 437 89 429 m 625 435 l 625 429 q 661 401 645 401 q 663 408 663 404 l 663 420 q 625 435 645 435 m 429 431 l 429 429 q 439 372 433 372 q 462 367 460 367 l 460 378 l 460 396 q 434 429 460 429 q 429 431 433 429 m 928 432 q 954 404 954 416 l 954 397 l 955 397 q 977 422 975 422 l 979 422 q 991 393 991 404 l 991 391 q 970 368 972 368 q 962 391 966 368 l 959 391 q 945 351 952 391 q 974 334 945 345 l 974 330 q 955 312 974 328 l 954 312 q 905 336 951 312 q 919 396 919 368 q 905 408 919 404 q 928 432 905 416 m 829 423 l 829 422 q 826 367 826 402 q 848 357 842 357 q 855 403 855 394 l 855 406 q 829 423 848 416 m 314 397 q 322 360 319 360 q 348 357 338 357 q 338 413 339 413 l 328 415 l 326 415 q 314 397 322 415 m 197 415 q 238 408 224 408 l 241 410 q 250 404 250 408 l 250 393 q 269 342 253 342 q 274 339 274 342 q 262 315 274 330 l 260 315 q 230 332 230 321 l 228 332 q 204 301 208 301 q 170 336 170 308 q 166 349 166 347 q 185 360 179 360 l 185 361 q 166 377 185 363 q 197 415 189 415 m 1019 412 q 1048 391 1029 412 l 1048 387 q 1031 327 1031 345 q 1043 319 1041 319 q 1067 368 1058 319 q 1070 380 1070 368 l 1070 393 l 1072 396 q 1110 382 1110 388 q 1070 260 1094 354 l 1067 258 l 1040 258 q 1036 264 1036 258 q 1051 313 1043 274 l 1050 313 l 1024 294 q 991 322 991 318 q 1010 380 1002 336 l 1003 393 l 1003 394 q 1019 412 1003 408 m 635 403 q 633 396 633 400 l 633 389 q 642 372 633 376 l 648 372 q 661 391 661 382 q 635 403 644 403 m 178 384 q 219 358 183 370 l 221 358 l 222 361 q 200 386 222 386 q 186 387 188 387 l 178 384 m 197 358 l 197 351 q 214 327 197 327 q 226 349 226 341 q 197 358 220 353 m 355 322 q 415 282 385 322 q 420 277 418 282 q 412 255 420 267 q 398 258 406 258 q 422 222 422 235 q 391 195 422 199 l 381 195 q 340 219 356 195 q 321 243 321 233 l 321 258 q 326 262 321 262 q 347 255 331 258 l 347 256 q 321 296 321 279 q 355 322 321 317 m 566 320 l 591 320 q 637 277 602 320 l 663 197 l 659 195 l 633 195 q 608 210 619 210 q 601 195 604 195 l 574 195 q 536 233 571 195 q 566 320 562 320 m 665 320 l 671 319 l 684 320 q 725 281 688 320 l 725 252 q 726 212 725 235 q 725 195 725 206 l 697 195 q 661 236 661 227 l 661 294 l 659 315 q 665 320 662 315 m 742 320 q 758 319 748 320 q 764 320 760 320 q 793 296 770 320 l 793 315 q 807 320 793 319 l 807 319 l 811 320 q 812 319 812 320 l 816 320 q 857 279 822 320 l 857 198 q 854 195 857 195 l 823 195 l 799 217 l 799 198 q 795 195 799 195 l 773 195 q 735 234 735 230 l 735 313 q 742 320 735 316 m 326 293 q 359 264 326 276 l 360 260 l 360 255 q 348 250 359 250 q 326 255 342 250 l 326 241 q 350 234 326 237 q 379 256 379 239 l 379 264 q 353 286 379 277 q 345 294 345 293 q 350 301 347 301 l 357 301 q 374 298 360 301 q 378 312 378 302 q 355 317 368 315 q 326 293 326 314 m 433 319 l 465 319 q 524 272 484 319 q 532 252 532 264 q 494 220 532 224 l 494 198 q 491 195 494 195 l 471 195 q 441 220 462 195 q 429 233 439 220 l 429 315 q 433 319 429 319 m 434 313 l 433 293 l 433 239 q 436 236 433 236 l 453 236 l 453 258 q 477 265 453 261 q 489 284 489 274 l 489 291 q 465 313 489 313 l 434 313 m 566 313 l 543 236 l 563 236 q 570 252 566 252 l 593 252 q 600 236 597 252 l 620 236 l 620 238 q 596 313 596 310 l 566 313 m 665 313 l 665 236 l 684 236 l 684 313 l 665 313 m 741 313 l 741 236 l 758 236 l 758 269 l 755 290 l 759 291 q 790 236 788 237 l 816 236 l 816 313 l 799 313 l 799 260 l 797 260 q 768 313 794 260 l 741 313 m 582 301 q 591 269 585 296 q 587 265 591 265 l 575 265 q 572 269 572 265 q 582 301 578 301 m 458 300 q 471 293 471 297 l 471 290 q 458 277 471 277 l 456 277 q 453 281 453 277 l 453 296 q 458 300 453 300 m 116 182 l 1079 182 q 1103 162 1103 180 l 1103 52 q 1079 31 1103 34 l 116 31 q 92 52 92 34 l 92 162 q 116 182 92 180 m 135 143 l 135 104 l 130 97 l 135 90 l 135 75 q 156 54 135 72 l 173 54 l 182 60 l 183 60 l 192 54 l 209 54 q 230 75 212 54 l 230 90 l 235 97 l 230 104 l 230 143 l 209 143 l 209 81 q 205 78 209 78 l 195 78 q 192 81 192 78 l 192 90 l 199 98 q 192 105 196 98 l 192 143 l 173 143 l 173 105 l 166 97 q 173 90 169 97 l 173 81 q 170 78 173 78 l 159 78 q 156 81 156 78 l 156 143 l 135 143 m 248 127 l 248 105 q 241 97 248 104 l 248 88 l 248 64 q 264 54 254 54 l 288 54 q 305 79 305 54 l 305 90 l 311 97 l 305 104 l 305 117 q 285 143 305 143 l 267 143 q 248 127 248 143 m 324 127 l 324 105 l 317 97 l 324 88 l 324 69 q 340 54 326 54 l 363 54 q 381 79 381 54 l 381 90 l 386 97 l 381 104 l 381 114 q 363 143 381 143 l 343 143 q 324 127 324 143 m 401 143 l 401 105 l 396 98 l 401 92 l 401 57 q 405 54 402 54 l 443 54 q 460 83 460 54 l 460 92 l 465 98 l 460 105 l 460 116 q 439 143 460 143 l 401 143 m 481 127 l 481 111 q 474 100 481 100 l 474 98 q 481 90 481 91 l 481 69 q 496 54 483 54 l 520 54 q 537 75 537 54 l 537 85 l 517 85 q 511 73 517 73 l 505 73 q 500 78 503 73 l 500 90 l 507 98 l 500 107 l 500 119 q 510 124 501 124 l 511 124 q 517 112 517 124 l 537 112 l 537 117 q 517 143 537 143 l 500 143 q 481 127 481 143 m 551 143 l 551 105 l 545 97 q 551 90 547 97 l 551 73 q 570 54 551 54 l 593 54 q 608 69 608 56 l 608 90 l 614 98 q 608 105 612 98 l 608 143 l 589 143 l 589 78 q 584 73 589 75 l 575 73 q 572 76 572 73 l 572 143 l 551 143 m 622 143 l 622 124 l 639 124 q 642 121 642 123 l 642 105 l 637 98 l 637 97 l 642 90 l 642 54 l 663 54 l 663 90 l 668 97 l 663 104 l 663 121 q 667 124 663 124 l 684 124 l 684 143 l 622 143 m 689 143 l 689 124 l 707 124 q 711 121 711 123 l 711 105 l 704 97 q 711 85 711 94 l 711 54 l 730 54 l 730 90 l 736 98 q 730 105 734 98 l 730 121 q 733 124 730 124 l 751 124 l 751 143 l 689 143 m 764 143 l 764 105 l 758 97 q 764 90 760 97 l 764 54 l 819 54 l 819 73 l 787 73 q 783 76 783 73 l 783 85 q 787 88 784 88 l 809 88 l 809 109 l 787 109 q 783 112 783 109 l 783 121 q 787 124 784 124 l 819 124 l 819 143 l 764 143 m 835 143 l 835 105 l 828 97 q 835 90 831 97 l 835 54 l 854 54 l 854 79 l 857 79 q 869 54 869 56 l 892 54 l 892 56 l 878 83 q 890 98 890 88 l 890 127 q 871 143 890 143 l 835 143 m 948 143 l 948 105 q 941 97 948 104 q 948 90 944 97 l 948 54 l 1005 54 l 1005 73 l 970 73 q 967 76 967 73 l 967 85 q 970 88 968 88 l 993 88 l 993 109 l 970 109 q 967 112 967 109 l 967 121 q 970 124 968 124 l 1005 124 l 1005 143 l 948 143 m 1012 119 l 1012 117 q 1022 94 1018 111 q 1043 88 1028 88 l 1051 88 q 1055 85 1055 87 l 1055 76 q 1051 73 1055 73 l 1043 73 q 1038 83 1038 73 l 1019 83 l 1019 69 q 1038 54 1019 54 l 1057 54 q 1076 73 1076 54 q 1082 79 1078 73 q 1074 100 1076 79 q 1050 109 1067 109 l 1043 109 q 1038 114 1040 109 l 1038 117 q 1044 124 1038 120 l 1050 124 q 1057 112 1054 124 l 1060 114 l 1070 114 l 1074 112 l 1076 116 l 1076 126 q 1055 143 1076 143 l 1038 143 q 1017 121 1017 143 q 1012 119 1014 119 m 278 124 l 279 124 q 285 119 282 124 l 285 78 q 279 73 285 75 l 273 73 q 267 78 270 73 l 267 119 q 278 124 269 124 m 353 124 l 355 124 q 360 119 357 124 l 360 78 q 355 73 360 75 l 348 73 q 343 78 346 73 l 343 119 q 353 124 345 124 m 857 124 l 866 124 q 871 119 868 124 l 871 105 q 866 100 871 103 l 857 100 q 854 104 854 100 l 854 121 q 857 124 854 124 m 426 123 l 436 123 q 439 119 439 122 l 439 78 q 434 73 439 75 l 426 73 q 422 76 422 73 l 422 119 q 426 123 422 123 m 907 62 q 912 54 908 54 l 922 54 q 926 57 926 54 l 926 68 q 921 73 926 70 l 918 73 q 907 62 907 73 m 208 2 q 221 -3 221 -2 q 238 2 235 2 q 256 -8 250 2 l 254 -18 l 281 -77 q 309 -15 290 -66 q 326 2 311 2 q 341 -1 339 -1 q 362 2 353 2 q 374 -5 374 -1 l 374 -14 q 366 -28 366 -22 l 366 -66 q 385 -85 366 -77 l 386 -94 q 369 -111 386 -98 q 366 -121 366 -117 l 366 -149 q 372 -176 372 -175 q 366 -184 372 -179 l 355 -184 q 343 -180 343 -184 q 330 -184 337 -184 l 322 -184 q 311 -176 313 -184 l 311 -172 q 317 -149 317 -151 l 317 -113 l 305 -136 q 296 -139 305 -139 q 283 -137 290 -139 q 269 -139 276 -139 l 267 -139 q 248 -115 256 -139 l 247 -115 l 247 -151 q 254 -172 247 -153 l 254 -176 q 240 -184 252 -184 q 222 -182 232 -184 q 202 -184 214 -184 q 192 -172 192 -184 q 199 -151 192 -170 l 199 -110 q 178 -96 186 -106 q 197 -73 178 -88 l 197 -68 q 199 -28 197 -60 q 190 -8 190 -9 q 208 2 190 1 m 420 2 l 434 -3 q 452 2 448 2 q 469 -10 469 -1 q 467 -20 467 -19 l 494 -77 q 520 -17 502 -73 l 529 -1 q 539 2 529 2 q 555 -1 552 -1 q 574 2 567 2 q 587 -6 583 2 l 587 -14 l 578 -24 l 578 -66 q 597 -85 578 -77 q 600 -92 597 -90 q 582 -111 600 -98 q 578 -121 578 -117 l 578 -153 q 585 -175 585 -173 q 574 -184 583 -184 l 568 -184 q 556 -180 556 -184 q 543 -184 550 -184 l 536 -184 q 524 -176 526 -184 l 524 -173 q 529 -153 524 -169 l 529 -115 l 527 -115 q 510 -139 524 -139 q 496 -137 503 -139 q 482 -139 490 -139 l 481 -139 q 463 -117 467 -139 l 460 -115 l 460 -153 q 467 -168 460 -159 l 467 -176 q 453 -184 465 -184 q 436 -182 445 -184 q 415 -184 427 -184 l 412 -184 q 405 -176 409 -184 l 405 -166 q 412 -151 412 -157 q 410 -144 412 -147 q 412 -125 412 -132 l 412 -110 q 391 -96 404 -110 q 410 -73 391 -87 l 410 -58 q 412 -31 410 -48 q 404 -12 407 -16 l 404 -6 q 420 2 408 2 m 623 2 q 639 -3 636 -3 l 651 2 q 670 -8 662 2 l 668 -17 q 682 -44 679 -44 q 696 -3 694 -20 l 707 2 q 725 -3 711 2 q 742 2 739 2 q 755 -6 755 -3 l 755 -14 q 718 -77 718 -65 q 732 -94 732 -87 q 722 -108 732 -99 q 759 -170 737 -146 l 759 -176 q 744 -185 754 -185 l 728 -184 q 709 -185 716 -185 q 696 -176 701 -185 l 696 -175 q 697 -168 696 -171 q 680 -137 684 -137 l 678 -137 q 667 -159 678 -141 l 665 -166 l 667 -176 q 651 -185 660 -182 q 633 -184 649 -185 q 614 -185 618 -185 q 603 -178 603 -183 l 603 -172 q 641 -106 641 -119 q 630 -92 635 -104 q 646 -79 638 -79 q 604 -12 618 -26 l 604 -8 q 623 2 608 2 m 780 2 l 799 -3 q 811 2 807 2 q 828 -15 828 2 q 838 -43 828 -20 l 840 -43 l 854 -18 l 852 -10 l 852 -8 q 866 2 859 2 q 883 -3 883 -1 q 902 2 899 2 q 916 -12 916 -1 q 876 -77 897 -35 q 892 -91 891 -87 l 892 -96 q 880 -110 880 -107 q 919 -172 904 -154 l 919 -176 q 903 -185 919 -181 q 890 -184 899 -185 q 866 -185 876 -185 q 854 -159 855 -185 q 840 -137 842 -137 l 838 -137 q 825 -165 825 -161 l 825 -176 q 807 -185 825 -182 q 793 -184 795 -184 l 773 -185 q 763 -178 763 -182 l 763 -175 q 789 -132 763 -172 q 800 -106 800 -111 q 790 -91 790 -100 q 804 -80 797 -80 l 804 -79 q 764 -14 785 -35 l 764 -6 q 780 2 764 -2 m 977 2 q 993 -12 993 0 q 986 -33 986 -23 l 986 -54 q 985 -70 986 -61 q 1003 -91 985 -73 l 1003 -92 q 988 -110 1003 -102 l 985 -123 q 986 -147 986 -138 l 986 -155 q 993 -176 993 -174 q 977 -184 986 -184 q 960 -180 960 -184 q 947 -184 954 -184 l 941 -184 q 929 -172 929 -184 q 938 -149 938 -153 l 938 -134 q 921 -92 938 -110 l 921 -91 q 937 -68 937 -77 l 937 -31 q 929 -10 929 -12 l 929 -6 q 947 1 929 -1 q 960 -3 960 0 l 977 2 z "},"\\":{"ha":1186,"x_min":61,"x_max":1134,"o":"m 64 1118 l 1131 1118 q 1134 1115 1134 1118 l 1134 -237 q 1131 -240 1134 -240 l 64 -240 q 61 -237 61 -240 l 61 1115 q 64 1118 62 1118 m 77 1097 l 77 -220 l 1118 -220 l 1118 1097 l 77 1097 m 761 1074 l 778 1074 q 787 1056 783 1074 l 789 1056 l 797 1058 q 816 1051 810 1057 q 828 1058 816 1058 l 828 1056 l 831 1058 l 844 1056 l 844 1061 q 859 1074 844 1074 l 874 1074 q 883 1056 879 1074 l 893 1058 q 911 1051 911 1056 l 911 1008 q 902 1000 911 1006 l 881 1000 l 881 903 q 878 878 881 878 q 881 855 880 876 q 876 848 879 848 l 873 848 q 867 878 867 848 l 866 878 q 861 867 866 867 q 855 878 855 869 l 855 889 l 852 889 l 852 863 q 854 838 852 855 l 850 836 l 847 836 q 844 840 844 836 l 844 848 q 845 867 844 861 l 842 934 q 844 965 844 947 l 844 1000 l 823 1000 q 814 1008 822 1000 q 806 1000 814 1006 l 785 1000 l 785 955 q 787 948 785 951 l 785 945 q 787 903 787 920 q 783 879 787 896 q 785 852 785 861 l 780 848 l 778 848 q 771 878 771 848 l 770 878 q 766 867 770 867 q 759 889 761 867 l 758 889 l 755 879 q 758 838 758 840 q 752 834 753 834 q 747 842 750 834 q 749 863 747 852 q 747 922 747 897 q 745 932 747 930 q 747 948 747 942 l 747 1000 l 728 1000 q 718 1015 718 1006 l 718 1046 q 733 1058 718 1058 l 735 1058 l 747 1056 q 761 1074 747 1074 m 684 1070 l 707 1070 q 715 1058 715 1067 l 715 1041 q 716 1010 715 1026 l 715 1001 q 716 977 716 987 q 715 972 716 975 l 716 962 l 716 953 q 715 941 716 943 q 716 926 716 932 l 716 920 q 706 886 716 886 q 694 874 703 886 l 687 874 l 687 869 q 685 863 687 863 l 687 855 l 687 842 q 682 836 687 839 l 680 836 q 675 846 675 838 l 675 860 q 670 881 675 879 q 659 878 664 878 q 654 884 655 878 l 652 884 l 652 863 q 648 859 652 861 q 644 862 644 859 l 646 879 q 644 897 644 888 q 630 888 637 888 q 620 922 620 897 q 622 987 622 964 l 622 1046 q 630 1063 622 1059 l 644 1063 q 661 1042 661 1063 l 661 926 q 665 922 662 922 l 671 922 q 677 936 677 923 l 677 1058 q 684 1070 677 1067 m 149 1068 l 151 1068 q 174 1053 174 1068 q 182 1003 182 1010 l 183 1003 q 202 1061 188 1061 q 212 1060 203 1061 q 222 1061 221 1061 q 230 1056 230 1059 q 204 889 208 928 l 200 888 l 199 888 l 192 893 q 185 889 188 889 l 185 871 q 180 865 185 868 q 171 908 175 865 q 159 951 163 908 l 157 951 q 147 882 154 899 q 144 878 147 878 l 142 878 q 138 881 138 878 l 138 901 q 135 922 138 910 l 134 922 q 121 891 126 891 l 119 891 q 109 941 113 891 q 89 1061 100 970 l 94 1065 l 118 1065 q 135 1008 126 1065 l 137 1008 q 149 1068 142 1068 m 460 1068 q 511 1039 504 1068 q 513 1020 513 1027 l 513 955 q 511 878 513 930 l 508 876 l 503 879 l 505 897 l 505 907 q 496 895 499 907 l 498 884 l 498 876 q 492 871 498 873 l 491 871 q 488 874 488 871 l 488 895 q 484 898 488 898 q 479 893 484 896 l 475 893 l 467 898 l 463 893 l 463 876 q 458 871 463 873 l 456 871 q 452 878 455 871 l 453 886 q 452 900 452 898 l 443 898 l 439 905 q 441 924 441 917 l 441 926 q 437 922 437 925 l 437 911 q 439 878 437 897 q 433 862 437 862 q 427 867 430 862 q 426 943 426 926 q 427 958 426 949 q 426 968 426 967 q 427 1053 427 1017 l 427 1055 q 453 1068 427 1068 l 460 1068 m 274 1067 l 285 1067 q 319 1032 304 1067 q 321 977 319 1010 q 319 937 321 969 q 321 897 321 907 q 319 857 319 869 l 315 855 q 309 888 311 855 q 300 907 300 895 l 298 907 q 292 889 298 889 l 288 891 q 281 889 285 889 q 276 900 276 896 q 271 878 271 900 l 273 871 q 267 862 271 862 l 264 869 l 266 886 q 260 900 264 900 q 252 872 256 895 l 248 871 q 241 897 245 871 q 233 913 237 897 l 233 1010 q 274 1067 233 1067 m 367 1067 l 381 1067 q 415 1032 401 1067 q 417 1012 415 1017 q 415 1010 417 1010 l 417 989 l 417 876 q 415 869 417 872 q 417 862 417 866 q 412 855 414 855 q 405 889 407 855 q 398 905 398 892 l 396 905 q 388 889 396 890 l 385 891 q 378 889 381 889 q 370 900 374 900 q 367 882 367 885 q 369 869 369 873 q 363 862 366 862 q 360 869 362 869 l 362 881 l 362 886 q 357 900 362 899 q 348 872 352 895 l 345 872 q 336 900 342 872 q 330 916 330 907 l 330 1000 q 367 1067 330 1067 m 578 1065 q 611 1025 611 1052 l 611 984 q 596 977 609 977 q 577 982 577 977 l 577 1003 l 575 1012 l 565 1012 q 559 967 559 1012 l 559 926 l 562 917 l 572 917 q 578 941 576 917 l 584 945 l 597 945 q 611 939 610 945 l 611 922 q 606 907 611 919 q 608 876 608 883 l 604 874 q 597 889 600 874 l 594 888 q 591 891 591 888 l 591 911 l 589 911 q 582 881 584 899 l 581 881 q 574 898 576 881 l 565 900 l 562 895 l 562 879 q 551 871 562 876 l 549 871 l 545 874 q 546 900 546 891 l 546 905 q 536 916 536 905 l 534 916 l 532 907 l 532 881 q 529 878 532 878 q 526 881 526 878 q 524 949 526 899 q 526 1029 526 1004 q 556 1065 526 1049 l 578 1065 m 922 1065 l 998 1065 q 1005 1058 1001 1065 l 1005 1022 q 991 1008 1005 1008 l 955 1008 l 955 970 l 979 970 q 986 964 982 970 l 986 939 q 974 927 986 927 l 955 927 l 955 913 l 959 916 q 1002 913 987 913 q 1007 901 1007 907 l 1007 884 q 1003 881 1007 881 l 1002 881 q 996 886 999 881 l 996 895 l 993 895 l 986 882 l 985 882 q 979 889 980 882 l 977 889 q 972 876 977 876 l 969 876 q 962 898 964 876 l 960 898 q 950 869 955 869 l 947 869 q 931 879 939 878 q 929 891 929 886 l 928 891 q 921 881 928 884 q 916 886 920 881 q 918 911 918 903 l 918 919 q 916 932 918 930 q 918 951 918 944 l 918 1051 q 922 1065 918 1064 m 1022 1065 l 1070 1065 q 1103 1017 1103 1057 l 1103 960 q 1093 924 1103 947 q 1107 893 1107 898 l 1107 888 l 1101 869 q 1103 855 1101 867 q 1095 848 1102 855 q 1089 853 1092 848 l 1089 878 l 1086 878 l 1084 869 q 1086 846 1086 848 q 1081 840 1083 840 q 1074 846 1079 840 l 1076 859 l 1076 862 q 1057 916 1076 880 l 1051 916 l 1051 900 q 1048 881 1048 883 l 1050 865 q 1044 857 1048 857 l 1043 857 q 1038 865 1039 857 q 1040 888 1040 880 l 1036 889 q 1033 886 1036 886 l 1031 886 q 1027 893 1027 886 l 1025 893 q 1024 881 1025 883 q 1027 853 1025 881 q 1022 846 1025 846 l 1019 846 q 1014 857 1015 846 q 1017 888 1014 861 q 1014 898 1016 898 q 1015 962 1015 941 l 1015 1044 q 1022 1065 1015 1065 m 267 1010 l 267 929 l 269 920 l 279 920 q 285 930 285 922 l 285 996 q 276 1015 285 1015 l 273 1015 q 267 1010 270 1015 m 363 1004 l 363 996 q 366 960 363 977 q 363 929 363 950 q 369 920 365 920 l 376 920 q 381 926 378 920 l 381 1004 q 376 1015 381 1014 l 374 1015 q 363 1004 363 1015 m 463 1015 q 462 1010 463 1013 l 463 1006 l 462 1003 q 463 998 463 1000 l 462 994 q 463 987 463 991 l 462 984 q 463 982 462 982 l 462 974 l 462 920 l 463 911 q 471 913 467 913 l 471 998 l 472 1015 l 463 1015 m 1051 1012 l 1051 956 l 1053 956 l 1062 958 l 1062 1008 q 1059 1012 1062 1012 l 1051 1012 m 352 860 q 424 812 401 860 q 441 731 441 789 q 439 718 439 724 q 448 712 448 716 l 448 705 q 443 682 443 690 q 456 666 445 682 l 456 661 l 453 661 l 453 652 q 458 623 453 644 q 453 621 455 621 q 460 601 453 621 l 456 599 l 455 599 l 452 601 q 444 563 452 593 l 439 563 q 434 580 439 580 q 431 557 431 564 l 431 553 l 426 553 q 422 557 426 557 l 420 557 q 408 537 420 539 q 401 518 407 518 l 395 523 q 391 492 391 499 l 389 492 q 381 503 381 497 q 372 487 378 500 l 369 487 q 363 500 369 500 q 355 486 359 486 q 350 494 350 491 l 348 494 l 343 484 l 338 484 q 333 496 336 496 q 324 484 328 485 q 317 492 321 492 l 311 487 l 309 487 q 296 503 306 487 q 293 497 296 497 l 290 497 q 283 527 283 524 l 276 518 q 269 553 271 518 l 267 553 l 267 549 l 262 549 l 256 587 l 247 580 q 243 583 243 580 q 247 602 247 598 q 243 628 247 609 l 237 625 q 235 627 237 627 q 237 652 237 644 l 237 664 q 248 688 237 667 l 248 693 q 243 718 243 709 q 252 730 243 719 l 252 747 q 296 840 252 800 q 352 860 316 855 m 260 752 l 260 726 q 267 718 267 718 q 264 667 267 707 q 267 664 267 667 l 267 652 l 273 652 l 273 638 l 274 638 q 278 645 274 645 q 281 642 281 645 l 281 627 q 285 619 285 622 l 288 619 q 309 652 288 641 q 312 649 312 652 q 302 633 312 647 l 302 631 q 312 635 307 635 l 317 635 l 315 644 l 315 654 q 321 659 315 656 q 324 656 324 659 q 322 650 322 652 q 326 642 326 645 l 330 644 l 333 644 q 347 635 340 635 l 348 635 l 359 644 l 360 644 l 369 642 l 370 650 l 370 652 l 369 652 q 363 650 366 650 l 362 654 q 367 656 366 656 l 367 657 l 362 666 l 366 667 q 378 647 378 661 l 378 644 l 376 640 l 382 638 l 382 647 q 386 650 383 650 q 410 616 388 641 l 412 616 l 412 625 q 415 628 412 628 l 418 627 l 418 631 l 417 644 q 418 645 418 644 l 422 644 l 426 644 q 429 675 426 666 l 426 707 q 434 731 434 709 q 385 846 434 818 l 382 846 q 369 826 378 845 q 376 821 376 825 l 376 819 l 333 759 q 331 764 331 762 q 348 808 348 804 q 333 817 333 812 l 348 852 l 347 852 q 274 804 310 852 q 260 752 260 770 m 214 834 l 216 831 q 214 753 214 779 l 208 749 q 195 802 205 749 q 190 805 191 805 l 149 805 l 147 788 l 147 685 l 185 685 q 199 724 193 685 l 202 724 q 208 719 205 724 l 208 678 q 205 676 208 676 l 208 673 l 208 619 q 200 612 208 616 q 190 652 197 615 l 186 654 q 147 656 155 656 l 147 580 q 161 535 147 535 q 173 528 170 535 l 173 518 q 170 513 173 517 l 152 515 l 111 515 l 99 513 q 96 527 96 519 q 115 541 96 530 q 118 576 118 549 l 118 767 q 109 810 118 810 q 96 824 96 812 l 96 829 l 97 833 q 149 831 132 831 l 185 831 q 214 834 200 831 m 703 824 q 881 819 720 824 l 883 815 q 881 755 883 795 q 880 753 880 755 q 850 755 859 755 l 831 755 q 825 506 825 550 q 823 500 823 503 q 825 499 825 500 l 821 497 q 742 499 773 499 l 739 500 l 741 505 q 747 759 741 543 l 701 759 q 697 764 697 759 l 699 823 l 703 824 m 678 812 q 689 795 687 812 q 687 764 687 774 l 685 764 q 689 753 689 758 l 689 734 q 663 715 689 721 l 663 712 l 667 712 q 689 701 689 712 q 692 637 690 686 l 690 619 l 694 578 q 689 556 692 556 l 675 556 l 616 602 q 548 663 600 621 l 549 645 l 549 623 q 548 621 549 621 q 551 602 551 614 l 551 575 q 536 553 551 565 q 503 557 503 553 l 491 556 l 484 556 q 479 583 479 556 l 479 627 q 477 650 479 636 l 479 654 q 477 669 477 663 l 477 680 q 479 695 477 689 q 477 709 477 705 q 475 808 475 786 l 479 810 l 489 810 q 549 762 500 810 l 549 745 l 545 738 q 553 736 547 736 q 559 743 553 739 l 568 743 q 613 711 576 743 l 616 709 l 616 749 q 614 802 616 770 q 665 812 614 812 l 678 812 m 955 781 q 1072 760 1072 770 q 1098 721 1098 744 l 1098 718 q 1089 666 1098 691 q 1021 678 1025 676 q 1022 704 1021 682 q 979 714 1022 710 q 966 682 968 714 q 1031 664 966 667 q 1081 612 1081 648 l 1081 611 q 1078 585 1081 600 l 1095 561 l 1095 559 q 1069 532 1069 543 q 1014 492 1053 492 q 905 515 905 502 q 883 556 892 515 q 886 601 886 579 q 892 602 890 602 q 957 595 945 599 q 954 573 955 577 q 995 559 954 562 q 1007 597 1007 559 q 933 611 1007 603 q 893 657 893 629 l 893 685 l 873 707 q 900 745 900 723 q 955 781 918 781 m 281 774 l 283 774 l 283 772 q 285 752 283 770 q 279 745 282 745 l 276 747 l 278 755 l 278 771 q 281 774 278 774 m 422 766 l 424 762 l 424 760 q 422 745 424 754 q 424 740 424 742 l 420 738 q 417 741 417 738 l 417 743 q 422 766 417 766 m 292 749 l 302 749 q 326 740 307 745 l 326 736 q 293 743 314 736 q 288 747 288 743 l 292 749 m 396 741 q 407 736 407 740 q 381 728 400 736 l 379 731 q 396 741 389 741 m 286 736 l 288 736 q 322 721 294 736 l 322 715 l 314 715 l 314 714 q 324 705 319 714 l 324 704 q 322 702 324 702 l 324 699 q 302 688 317 688 l 300 688 q 278 705 278 690 q 293 718 278 718 l 293 719 l 288 719 q 271 714 279 714 l 269 714 l 269 721 q 286 736 269 734 m 340 734 q 345 723 345 728 l 345 721 q 340 715 345 718 l 338 719 l 340 723 q 336 733 336 730 l 340 734 m 350 734 q 353 712 353 725 l 350 711 q 347 724 347 717 l 347 731 q 350 734 347 734 m 415 733 l 427 719 l 427 718 q 424 714 427 714 l 420 714 q 417 718 417 714 q 398 714 414 718 l 398 712 q 414 701 414 708 q 391 683 408 683 q 385 688 385 686 l 386 692 q 367 701 367 694 l 367 702 q 376 709 371 709 l 372 714 l 372 715 q 415 733 372 724 m 254 721 q 257 718 254 718 l 259 718 l 259 721 l 254 721 m 324 715 q 334 709 334 712 q 330 701 332 701 q 326 704 326 701 l 328 707 q 321 711 323 711 l 321 712 q 324 715 321 715 m 252 711 l 256 690 l 259 690 l 257 699 l 257 712 l 256 712 l 252 711 m 286 709 q 293 702 286 706 l 295 702 l 293 705 l 293 709 l 295 712 l 290 712 q 286 709 286 712 m 311 711 l 311 701 q 319 704 316 704 q 311 711 318 707 m 436 711 l 436 707 q 441 709 439 709 l 441 711 l 436 711 m 396 707 q 398 702 398 704 q 396 697 396 699 q 405 704 404 700 q 396 707 399 707 m 374 701 l 378 699 l 381 699 l 381 705 q 374 701 374 703 m 436 702 l 436 697 l 437 697 l 437 702 l 436 702 m 355 699 q 370 669 363 696 q 369 667 369 669 q 353 682 353 667 l 355 699 m 338 697 l 340 693 l 340 683 q 341 659 340 673 q 334 649 338 649 l 331 650 q 333 657 333 656 l 331 675 q 338 697 334 697 m 321 693 l 324 693 l 328 692 q 330 693 328 693 l 331 690 l 331 683 q 322 673 325 673 q 321 678 321 676 q 326 688 326 686 l 326 690 l 324 690 q 302 675 324 677 l 295 675 q 278 686 286 675 l 278 688 q 281 692 278 692 q 296 682 287 682 l 305 682 q 321 693 321 684 m 369 693 q 395 680 381 680 q 417 688 408 680 l 418 685 q 395 671 418 675 q 366 692 376 671 l 369 693 m 353 601 l 350 602 q 331 601 338 601 l 326 601 q 322 597 322 600 q 340 593 338 593 l 370 602 l 370 604 l 367 604 q 353 601 362 604 m 386 604 q 374 580 386 594 q 381 571 377 572 q 393 593 387 571 l 393 599 q 386 604 393 602 m 302 589 q 315 563 302 569 q 322 576 320 563 l 322 578 q 314 595 314 578 l 314 599 q 302 589 305 599 m 300 477 q 312 412 304 477 q 338 444 331 441 q 374 429 372 433 l 372 404 q 381 360 372 396 l 381 358 q 340 329 374 348 q 285 339 285 335 l 288 360 q 264 470 276 448 l 269 473 l 281 473 q 300 477 283 473 m 733 477 l 768 477 q 771 471 771 477 q 766 451 766 456 l 766 446 l 780 446 q 783 442 783 446 l 783 441 q 777 427 783 427 l 764 429 q 763 423 763 425 q 761 374 761 400 q 774 363 774 366 q 758 341 767 348 q 720 367 720 363 q 730 432 730 386 q 720 437 720 432 l 720 441 q 725 451 721 451 q 730 449 728 449 q 732 454 732 452 q 730 475 730 472 l 733 477 m 574 461 l 575 461 q 593 434 593 441 q 577 408 581 410 l 575 408 q 565 427 572 408 l 559 427 q 555 408 556 408 q 565 378 555 378 q 589 370 589 376 q 574 348 578 349 l 572 348 l 522 360 q 520 365 520 363 l 526 384 q 508 432 526 432 q 507 434 507 432 q 520 460 508 446 q 555 432 555 450 l 556 432 q 574 461 570 460 m 649 460 q 697 441 678 444 l 699 437 q 692 387 692 408 q 706 368 692 378 l 706 367 q 687 346 693 346 q 661 372 661 359 l 659 372 q 630 348 632 348 q 603 377 603 361 q 614 408 603 408 q 625 410 624 410 l 625 413 l 611 429 l 611 431 q 649 460 640 460 m 437 454 l 439 454 q 489 441 465 446 q 491 439 489 439 q 489 420 489 427 q 494 365 489 386 q 452 339 472 355 q 404 353 425 349 l 401 357 q 404 368 401 361 q 393 425 401 397 l 393 427 q 426 444 395 431 q 437 454 426 447 m 847 446 q 893 420 858 437 l 893 416 q 880 353 887 416 q 881 348 881 350 l 831 330 q 789 353 806 348 l 789 357 q 795 412 795 385 q 793 425 795 416 q 826 437 793 433 q 847 446 841 446 m 119 437 q 123 434 123 437 l 123 427 q 154 319 145 319 q 163 312 159 319 l 163 310 q 156 288 161 288 l 152 288 q 118 298 118 296 q 85 420 118 323 q 83 422 83 420 l 83 429 q 119 437 89 429 m 625 435 l 625 429 q 661 401 645 401 q 663 408 663 404 l 663 420 q 625 435 645 435 m 429 431 l 429 429 q 439 372 433 372 q 462 367 460 367 l 460 378 l 460 396 q 434 429 460 429 q 429 431 433 429 m 928 432 q 954 404 954 416 l 954 397 l 955 397 q 977 422 975 422 l 979 422 q 991 393 991 404 l 991 391 q 970 368 972 368 q 962 391 966 368 l 959 391 q 945 351 952 391 q 974 334 945 345 l 974 330 q 955 312 974 328 l 954 312 q 905 336 951 312 q 919 396 919 368 q 905 408 919 404 q 928 432 905 416 m 829 423 l 829 422 q 826 367 826 402 q 848 357 842 357 q 855 403 855 394 l 855 406 q 829 423 848 416 m 314 397 q 322 360 319 360 q 348 357 338 357 q 338 413 339 413 l 328 415 l 326 415 q 314 397 322 415 m 197 415 q 238 408 224 408 l 241 410 q 250 404 250 408 l 250 393 q 269 342 253 342 q 274 339 274 342 q 262 315 274 330 l 260 315 q 230 332 230 321 l 228 332 q 204 301 208 301 q 170 336 170 308 q 166 349 166 347 q 185 360 179 360 l 185 361 q 166 377 185 363 q 197 415 189 415 m 1019 412 q 1048 391 1029 412 l 1048 387 q 1031 327 1031 345 q 1043 319 1041 319 q 1067 368 1058 319 q 1070 380 1070 368 l 1070 393 l 1072 396 q 1110 382 1110 388 q 1070 260 1094 354 l 1067 258 l 1040 258 q 1036 264 1036 258 q 1051 313 1043 274 l 1050 313 l 1024 294 q 991 322 991 318 q 1010 380 1002 336 l 1003 393 l 1003 394 q 1019 412 1003 408 m 635 403 q 633 396 633 400 l 633 389 q 642 372 633 376 l 648 372 q 661 391 661 382 q 635 403 644 403 m 178 384 q 219 358 183 370 l 221 358 l 222 361 q 200 386 222 386 q 186 387 188 387 l 178 384 m 197 358 l 197 351 q 214 327 197 327 q 226 349 226 341 q 197 358 220 353 m 355 322 q 415 282 385 322 q 420 277 418 282 q 412 255 420 267 q 398 258 406 258 q 422 222 422 235 q 391 195 422 199 l 381 195 q 340 219 356 195 q 321 243 321 233 l 321 258 q 326 262 321 262 q 347 255 331 258 l 347 256 q 321 296 321 279 q 355 322 321 317 m 566 320 l 591 320 q 637 277 602 320 l 663 197 l 659 195 l 633 195 q 608 210 619 210 q 601 195 604 195 l 574 195 q 536 233 571 195 q 566 320 562 320 m 665 320 l 671 319 l 684 320 q 725 281 688 320 l 725 252 q 726 212 725 235 q 725 195 725 206 l 697 195 q 661 236 661 227 l 661 294 l 659 315 q 665 320 662 315 m 742 320 q 758 319 748 320 q 764 320 760 320 q 793 296 770 320 l 793 315 q 807 320 793 319 l 807 319 l 811 320 q 812 319 812 320 l 816 320 q 857 279 822 320 l 857 198 q 854 195 857 195 l 823 195 l 799 217 l 799 198 q 795 195 799 195 l 773 195 q 735 234 735 230 l 735 313 q 742 320 735 316 m 326 293 q 359 264 326 276 l 360 260 l 360 255 q 348 250 359 250 q 326 255 342 250 l 326 241 q 350 234 326 237 q 379 256 379 239 l 379 264 q 353 286 379 277 q 345 294 345 293 q 350 301 347 301 l 357 301 q 374 298 360 301 q 378 312 378 302 q 355 317 368 315 q 326 293 326 314 m 433 319 l 465 319 q 524 272 484 319 q 532 252 532 264 q 494 220 532 224 l 494 198 q 491 195 494 195 l 471 195 q 441 220 462 195 q 429 233 439 220 l 429 315 q 433 319 429 319 m 434 313 l 433 293 l 433 239 q 436 236 433 236 l 453 236 l 453 258 q 477 265 453 261 q 489 284 489 274 l 489 291 q 465 313 489 313 l 434 313 m 566 313 l 543 236 l 563 236 q 570 252 566 252 l 593 252 q 600 236 597 252 l 620 236 l 620 238 q 596 313 596 310 l 566 313 m 665 313 l 665 236 l 684 236 l 684 313 l 665 313 m 741 313 l 741 236 l 758 236 l 758 269 l 755 290 l 759 291 q 790 236 788 237 l 816 236 l 816 313 l 799 313 l 799 260 l 797 260 q 768 313 794 260 l 741 313 m 582 301 q 591 269 585 296 q 587 265 591 265 l 575 265 q 572 269 572 265 q 582 301 578 301 m 458 300 q 471 293 471 297 l 471 290 q 458 277 471 277 l 456 277 q 453 281 453 277 l 453 296 q 458 300 453 300 m 116 182 l 1079 182 q 1103 162 1103 180 l 1103 52 q 1079 31 1103 34 l 116 31 q 92 52 92 34 l 92 162 q 116 182 92 180 m 135 143 l 135 104 l 130 97 l 135 90 l 135 75 q 156 54 135 72 l 173 54 l 182 60 l 183 60 l 192 54 l 209 54 q 230 75 212 54 l 230 90 l 235 97 l 230 104 l 230 143 l 209 143 l 209 81 q 205 78 209 78 l 195 78 q 192 81 192 78 l 192 90 l 199 98 q 192 105 196 98 l 192 143 l 173 143 l 173 105 l 166 97 q 173 90 169 97 l 173 81 q 170 78 173 78 l 159 78 q 156 81 156 78 l 156 143 l 135 143 m 248 127 l 248 105 q 241 97 248 104 l 248 88 l 248 64 q 264 54 254 54 l 288 54 q 305 79 305 54 l 305 90 l 311 97 l 305 104 l 305 117 q 285 143 305 143 l 267 143 q 248 127 248 143 m 324 127 l 324 105 l 317 97 l 324 88 l 324 69 q 340 54 326 54 l 363 54 q 381 79 381 54 l 381 90 l 386 97 l 381 104 l 381 114 q 363 143 381 143 l 343 143 q 324 127 324 143 m 401 143 l 401 105 l 396 98 l 401 92 l 401 57 q 405 54 402 54 l 443 54 q 460 83 460 54 l 460 92 l 465 98 l 460 105 l 460 116 q 439 143 460 143 l 401 143 m 481 127 l 481 111 q 474 100 481 100 l 474 98 q 481 90 481 91 l 481 69 q 496 54 483 54 l 520 54 q 537 75 537 54 l 537 85 l 517 85 q 511 73 517 73 l 505 73 q 500 78 503 73 l 500 90 l 507 98 l 500 107 l 500 119 q 510 124 501 124 l 511 124 q 517 112 517 124 l 537 112 l 537 117 q 517 143 537 143 l 500 143 q 481 127 481 143 m 551 143 l 551 105 l 545 97 q 551 90 547 97 l 551 73 q 570 54 551 54 l 593 54 q 608 69 608 56 l 608 90 l 614 98 q 608 105 612 98 l 608 143 l 589 143 l 589 78 q 584 73 589 75 l 575 73 q 572 76 572 73 l 572 143 l 551 143 m 622 143 l 622 124 l 639 124 q 642 121 642 123 l 642 105 l 637 98 l 637 97 l 642 90 l 642 54 l 663 54 l 663 90 l 668 97 l 663 104 l 663 121 q 667 124 663 124 l 684 124 l 684 143 l 622 143 m 689 143 l 689 124 l 707 124 q 711 121 711 123 l 711 105 l 704 97 q 711 85 711 94 l 711 54 l 730 54 l 730 90 l 736 98 q 730 105 734 98 l 730 121 q 733 124 730 124 l 751 124 l 751 143 l 689 143 m 764 143 l 764 105 l 758 97 q 764 90 760 97 l 764 54 l 819 54 l 819 73 l 787 73 q 783 76 783 73 l 783 85 q 787 88 784 88 l 809 88 l 809 109 l 787 109 q 783 112 783 109 l 783 121 q 787 124 784 124 l 819 124 l 819 143 l 764 143 m 835 143 l 835 105 l 828 97 q 835 90 831 97 l 835 54 l 854 54 l 854 79 l 857 79 q 869 54 869 56 l 892 54 l 892 56 l 878 83 q 890 98 890 88 l 890 127 q 871 143 890 143 l 835 143 m 948 143 l 948 105 q 941 97 948 104 q 948 90 944 97 l 948 54 l 1005 54 l 1005 73 l 970 73 q 967 76 967 73 l 967 85 q 970 88 968 88 l 993 88 l 993 109 l 970 109 q 967 112 967 109 l 967 121 q 970 124 968 124 l 1005 124 l 1005 143 l 948 143 m 1012 119 l 1012 117 q 1022 94 1018 111 q 1043 88 1028 88 l 1051 88 q 1055 85 1055 87 l 1055 76 q 1051 73 1055 73 l 1043 73 q 1038 83 1038 73 l 1019 83 l 1019 69 q 1038 54 1019 54 l 1057 54 q 1076 73 1076 54 q 1082 79 1078 73 q 1074 100 1076 79 q 1050 109 1067 109 l 1043 109 q 1038 114 1040 109 l 1038 117 q 1044 124 1038 120 l 1050 124 q 1057 112 1054 124 l 1060 114 l 1070 114 l 1074 112 l 1076 116 l 1076 126 q 1055 143 1076 143 l 1038 143 q 1017 121 1017 143 q 1012 119 1014 119 m 278 124 l 279 124 q 285 119 282 124 l 285 78 q 279 73 285 75 l 273 73 q 267 78 270 73 l 267 119 q 278 124 269 124 m 353 124 l 355 124 q 360 119 357 124 l 360 78 q 355 73 360 75 l 348 73 q 343 78 346 73 l 343 119 q 353 124 345 124 m 857 124 l 866 124 q 871 119 868 124 l 871 105 q 866 100 871 103 l 857 100 q 854 104 854 100 l 854 121 q 857 124 854 124 m 426 123 l 436 123 q 439 119 439 122 l 439 78 q 434 73 439 75 l 426 73 q 422 76 422 73 l 422 119 q 426 123 422 123 m 907 62 q 912 54 908 54 l 922 54 q 926 57 926 54 l 926 68 q 921 73 926 70 l 918 73 q 907 62 907 73 m 208 2 q 221 -3 221 -2 q 238 2 235 2 q 256 -8 250 2 l 254 -18 l 281 -77 q 309 -15 290 -66 q 326 2 311 2 q 341 -1 339 -1 q 362 2 353 2 q 374 -5 374 -1 l 374 -14 q 366 -28 366 -22 l 366 -66 q 385 -85 366 -77 l 386 -94 q 369 -111 386 -98 q 366 -121 366 -117 l 366 -149 q 372 -176 372 -175 q 366 -184 372 -179 l 355 -184 q 343 -180 343 -184 q 330 -184 337 -184 l 322 -184 q 311 -176 313 -184 l 311 -172 q 317 -149 317 -151 l 317 -113 l 305 -136 q 296 -139 305 -139 q 283 -137 290 -139 q 269 -139 276 -139 l 267 -139 q 248 -115 256 -139 l 247 -115 l 247 -151 q 254 -172 247 -153 l 254 -176 q 240 -184 252 -184 q 222 -182 232 -184 q 202 -184 214 -184 q 192 -172 192 -184 q 199 -151 192 -170 l 199 -110 q 178 -96 186 -106 q 197 -73 178 -88 l 197 -68 q 199 -28 197 -60 q 190 -8 190 -9 q 208 2 190 1 m 420 2 l 434 -3 q 452 2 448 2 q 469 -10 469 -1 q 467 -20 467 -19 l 494 -77 q 520 -17 502 -73 l 529 -1 q 539 2 529 2 q 555 -1 552 -1 q 574 2 567 2 q 587 -6 583 2 l 587 -14 l 578 -24 l 578 -66 q 597 -85 578 -77 q 600 -92 597 -90 q 582 -111 600 -98 q 578 -121 578 -117 l 578 -153 q 585 -175 585 -173 q 574 -184 583 -184 l 568 -184 q 556 -180 556 -184 q 543 -184 550 -184 l 536 -184 q 524 -176 526 -184 l 524 -173 q 529 -153 524 -169 l 529 -115 l 527 -115 q 510 -139 524 -139 q 496 -137 503 -139 q 482 -139 490 -139 l 481 -139 q 463 -117 467 -139 l 460 -115 l 460 -153 q 467 -168 460 -159 l 467 -176 q 453 -184 465 -184 q 436 -182 445 -184 q 415 -184 427 -184 l 412 -184 q 405 -176 409 -184 l 405 -166 q 412 -151 412 -157 q 410 -144 412 -147 q 412 -125 412 -132 l 412 -110 q 391 -96 404 -110 q 410 -73 391 -87 l 410 -58 q 412 -31 410 -48 q 404 -12 407 -16 l 404 -6 q 420 2 408 2 m 623 2 q 639 -3 636 -3 l 651 2 q 670 -8 662 2 l 668 -17 q 682 -44 679 -44 q 696 -3 694 -20 l 707 2 q 725 -3 711 2 q 742 2 739 2 q 755 -6 755 -3 l 755 -14 q 718 -77 718 -65 q 732 -94 732 -87 q 722 -108 732 -99 q 759 -170 737 -146 l 759 -176 q 744 -185 754 -185 l 728 -184 q 709 -185 716 -185 q 696 -176 701 -185 l 696 -175 q 697 -168 696 -171 q 680 -137 684 -137 l 678 -137 q 667 -159 678 -141 l 665 -166 l 667 -176 q 651 -185 660 -182 q 633 -184 649 -185 q 614 -185 618 -185 q 603 -178 603 -183 l 603 -172 q 641 -106 641 -119 q 630 -92 635 -104 q 646 -79 638 -79 q 604 -12 618 -26 l 604 -8 q 623 2 608 2 m 780 2 l 799 -3 q 811 2 807 2 q 828 -15 828 2 q 838 -43 828 -20 l 840 -43 l 854 -18 l 852 -10 l 852 -8 q 866 2 859 2 q 883 -3 883 -1 q 902 2 899 2 q 916 -12 916 -1 q 876 -77 897 -35 q 892 -91 891 -87 l 892 -96 q 880 -110 880 -107 q 919 -172 904 -154 l 919 -176 q 903 -185 919 -181 q 890 -184 899 -185 q 866 -185 876 -185 q 854 -159 855 -185 q 840 -137 842 -137 l 838 -137 q 825 -165 825 -161 l 825 -176 q 807 -185 825 -182 q 793 -184 795 -184 l 773 -185 q 763 -178 763 -182 l 763 -175 q 789 -132 763 -172 q 800 -106 800 -111 q 790 -91 790 -100 q 804 -80 797 -80 l 804 -79 q 764 -14 785 -35 l 764 -6 q 780 2 764 -2 m 977 2 q 993 -12 993 0 q 986 -33 986 -23 l 986 -54 q 985 -70 986 -61 q 1003 -91 985 -73 l 1003 -92 q 988 -110 1003 -102 l 985 -123 q 986 -147 986 -138 l 986 -155 q 993 -176 993 -174 q 977 -184 986 -184 q 960 -180 960 -184 q 947 -184 954 -184 l 941 -184 q 929 -172 929 -184 q 938 -149 938 -153 l 938 -134 q 921 -92 938 -110 l 921 -91 q 937 -68 937 -77 l 937 -31 q 929 -10 929 -12 l 929 -6 q 947 1 929 -1 q 960 -3 960 0 l 977 2 z "},"]":{"ha":1186,"x_min":61,"x_max":1134,"o":"m 64 1118 l 1131 1118 q 1134 1115 1134 1118 l 1134 -237 q 1131 -240 1134 -240 l 64 -240 q 61 -237 61 -240 l 61 1115 q 64 1118 62 1118 m 77 1097 l 77 -220 l 1118 -220 l 1118 1097 l 77 1097 m 761 1074 l 778 1074 q 787 1056 783 1074 l 789 1056 l 797 1058 q 816 1051 810 1057 q 828 1058 816 1058 l 828 1056 l 831 1058 l 844 1056 l 844 1061 q 859 1074 844 1074 l 874 1074 q 883 1056 879 1074 l 893 1058 q 911 1051 911 1056 l 911 1008 q 902 1000 911 1006 l 881 1000 l 881 903 q 878 878 881 878 q 881 855 880 876 q 876 848 879 848 l 873 848 q 867 878 867 848 l 866 878 q 861 867 866 867 q 855 878 855 869 l 855 889 l 852 889 l 852 863 q 854 838 852 855 l 850 836 l 847 836 q 844 840 844 836 l 844 848 q 845 867 844 861 l 842 934 q 844 965 844 947 l 844 1000 l 823 1000 q 814 1008 822 1000 q 806 1000 814 1006 l 785 1000 l 785 955 q 787 948 785 951 l 785 945 q 787 903 787 920 q 783 879 787 896 q 785 852 785 861 l 780 848 l 778 848 q 771 878 771 848 l 770 878 q 766 867 770 867 q 759 889 761 867 l 758 889 l 755 879 q 758 838 758 840 q 752 834 753 834 q 747 842 750 834 q 749 863 747 852 q 747 922 747 897 q 745 932 747 930 q 747 948 747 942 l 747 1000 l 728 1000 q 718 1015 718 1006 l 718 1046 q 733 1058 718 1058 l 735 1058 l 747 1056 q 761 1074 747 1074 m 684 1070 l 707 1070 q 715 1058 715 1067 l 715 1041 q 716 1010 715 1026 l 715 1001 q 716 977 716 987 q 715 972 716 975 l 716 962 l 716 953 q 715 941 716 943 q 716 926 716 932 l 716 920 q 706 886 716 886 q 694 874 703 886 l 687 874 l 687 869 q 685 863 687 863 l 687 855 l 687 842 q 682 836 687 839 l 680 836 q 675 846 675 838 l 675 860 q 670 881 675 879 q 659 878 664 878 q 654 884 655 878 l 652 884 l 652 863 q 648 859 652 861 q 644 862 644 859 l 646 879 q 644 897 644 888 q 630 888 637 888 q 620 922 620 897 q 622 987 622 964 l 622 1046 q 630 1063 622 1059 l 644 1063 q 661 1042 661 1063 l 661 926 q 665 922 662 922 l 671 922 q 677 936 677 923 l 677 1058 q 684 1070 677 1067 m 149 1068 l 151 1068 q 174 1053 174 1068 q 182 1003 182 1010 l 183 1003 q 202 1061 188 1061 q 212 1060 203 1061 q 222 1061 221 1061 q 230 1056 230 1059 q 204 889 208 928 l 200 888 l 199 888 l 192 893 q 185 889 188 889 l 185 871 q 180 865 185 868 q 171 908 175 865 q 159 951 163 908 l 157 951 q 147 882 154 899 q 144 878 147 878 l 142 878 q 138 881 138 878 l 138 901 q 135 922 138 910 l 134 922 q 121 891 126 891 l 119 891 q 109 941 113 891 q 89 1061 100 970 l 94 1065 l 118 1065 q 135 1008 126 1065 l 137 1008 q 149 1068 142 1068 m 460 1068 q 511 1039 504 1068 q 513 1020 513 1027 l 513 955 q 511 878 513 930 l 508 876 l 503 879 l 505 897 l 505 907 q 496 895 499 907 l 498 884 l 498 876 q 492 871 498 873 l 491 871 q 488 874 488 871 l 488 895 q 484 898 488 898 q 479 893 484 896 l 475 893 l 467 898 l 463 893 l 463 876 q 458 871 463 873 l 456 871 q 452 878 455 871 l 453 886 q 452 900 452 898 l 443 898 l 439 905 q 441 924 441 917 l 441 926 q 437 922 437 925 l 437 911 q 439 878 437 897 q 433 862 437 862 q 427 867 430 862 q 426 943 426 926 q 427 958 426 949 q 426 968 426 967 q 427 1053 427 1017 l 427 1055 q 453 1068 427 1068 l 460 1068 m 274 1067 l 285 1067 q 319 1032 304 1067 q 321 977 319 1010 q 319 937 321 969 q 321 897 321 907 q 319 857 319 869 l 315 855 q 309 888 311 855 q 300 907 300 895 l 298 907 q 292 889 298 889 l 288 891 q 281 889 285 889 q 276 900 276 896 q 271 878 271 900 l 273 871 q 267 862 271 862 l 264 869 l 266 886 q 260 900 264 900 q 252 872 256 895 l 248 871 q 241 897 245 871 q 233 913 237 897 l 233 1010 q 274 1067 233 1067 m 367 1067 l 381 1067 q 415 1032 401 1067 q 417 1012 415 1017 q 415 1010 417 1010 l 417 989 l 417 876 q 415 869 417 872 q 417 862 417 866 q 412 855 414 855 q 405 889 407 855 q 398 905 398 892 l 396 905 q 388 889 396 890 l 385 891 q 378 889 381 889 q 370 900 374 900 q 367 882 367 885 q 369 869 369 873 q 363 862 366 862 q 360 869 362 869 l 362 881 l 362 886 q 357 900 362 899 q 348 872 352 895 l 345 872 q 336 900 342 872 q 330 916 330 907 l 330 1000 q 367 1067 330 1067 m 578 1065 q 611 1025 611 1052 l 611 984 q 596 977 609 977 q 577 982 577 977 l 577 1003 l 575 1012 l 565 1012 q 559 967 559 1012 l 559 926 l 562 917 l 572 917 q 578 941 576 917 l 584 945 l 597 945 q 611 939 610 945 l 611 922 q 606 907 611 919 q 608 876 608 883 l 604 874 q 597 889 600 874 l 594 888 q 591 891 591 888 l 591 911 l 589 911 q 582 881 584 899 l 581 881 q 574 898 576 881 l 565 900 l 562 895 l 562 879 q 551 871 562 876 l 549 871 l 545 874 q 546 900 546 891 l 546 905 q 536 916 536 905 l 534 916 l 532 907 l 532 881 q 529 878 532 878 q 526 881 526 878 q 524 949 526 899 q 526 1029 526 1004 q 556 1065 526 1049 l 578 1065 m 922 1065 l 998 1065 q 1005 1058 1001 1065 l 1005 1022 q 991 1008 1005 1008 l 955 1008 l 955 970 l 979 970 q 986 964 982 970 l 986 939 q 974 927 986 927 l 955 927 l 955 913 l 959 916 q 1002 913 987 913 q 1007 901 1007 907 l 1007 884 q 1003 881 1007 881 l 1002 881 q 996 886 999 881 l 996 895 l 993 895 l 986 882 l 985 882 q 979 889 980 882 l 977 889 q 972 876 977 876 l 969 876 q 962 898 964 876 l 960 898 q 950 869 955 869 l 947 869 q 931 879 939 878 q 929 891 929 886 l 928 891 q 921 881 928 884 q 916 886 920 881 q 918 911 918 903 l 918 919 q 916 932 918 930 q 918 951 918 944 l 918 1051 q 922 1065 918 1064 m 1022 1065 l 1070 1065 q 1103 1017 1103 1057 l 1103 960 q 1093 924 1103 947 q 1107 893 1107 898 l 1107 888 l 1101 869 q 1103 855 1101 867 q 1095 848 1102 855 q 1089 853 1092 848 l 1089 878 l 1086 878 l 1084 869 q 1086 846 1086 848 q 1081 840 1083 840 q 1074 846 1079 840 l 1076 859 l 1076 862 q 1057 916 1076 880 l 1051 916 l 1051 900 q 1048 881 1048 883 l 1050 865 q 1044 857 1048 857 l 1043 857 q 1038 865 1039 857 q 1040 888 1040 880 l 1036 889 q 1033 886 1036 886 l 1031 886 q 1027 893 1027 886 l 1025 893 q 1024 881 1025 883 q 1027 853 1025 881 q 1022 846 1025 846 l 1019 846 q 1014 857 1015 846 q 1017 888 1014 861 q 1014 898 1016 898 q 1015 962 1015 941 l 1015 1044 q 1022 1065 1015 1065 m 267 1010 l 267 929 l 269 920 l 279 920 q 285 930 285 922 l 285 996 q 276 1015 285 1015 l 273 1015 q 267 1010 270 1015 m 363 1004 l 363 996 q 366 960 363 977 q 363 929 363 950 q 369 920 365 920 l 376 920 q 381 926 378 920 l 381 1004 q 376 1015 381 1014 l 374 1015 q 363 1004 363 1015 m 463 1015 q 462 1010 463 1013 l 463 1006 l 462 1003 q 463 998 463 1000 l 462 994 q 463 987 463 991 l 462 984 q 463 982 462 982 l 462 974 l 462 920 l 463 911 q 471 913 467 913 l 471 998 l 472 1015 l 463 1015 m 1051 1012 l 1051 956 l 1053 956 l 1062 958 l 1062 1008 q 1059 1012 1062 1012 l 1051 1012 m 352 860 q 424 812 401 860 q 441 731 441 789 q 439 718 439 724 q 448 712 448 716 l 448 705 q 443 682 443 690 q 456 666 445 682 l 456 661 l 453 661 l 453 652 q 458 623 453 644 q 453 621 455 621 q 460 601 453 621 l 456 599 l 455 599 l 452 601 q 444 563 452 593 l 439 563 q 434 580 439 580 q 431 557 431 564 l 431 553 l 426 553 q 422 557 426 557 l 420 557 q 408 537 420 539 q 401 518 407 518 l 395 523 q 391 492 391 499 l 389 492 q 381 503 381 497 q 372 487 378 500 l 369 487 q 363 500 369 500 q 355 486 359 486 q 350 494 350 491 l 348 494 l 343 484 l 338 484 q 333 496 336 496 q 324 484 328 485 q 317 492 321 492 l 311 487 l 309 487 q 296 503 306 487 q 293 497 296 497 l 290 497 q 283 527 283 524 l 276 518 q 269 553 271 518 l 267 553 l 267 549 l 262 549 l 256 587 l 247 580 q 243 583 243 580 q 247 602 247 598 q 243 628 247 609 l 237 625 q 235 627 237 627 q 237 652 237 644 l 237 664 q 248 688 237 667 l 248 693 q 243 718 243 709 q 252 730 243 719 l 252 747 q 296 840 252 800 q 352 860 316 855 m 260 752 l 260 726 q 267 718 267 718 q 264 667 267 707 q 267 664 267 667 l 267 652 l 273 652 l 273 638 l 274 638 q 278 645 274 645 q 281 642 281 645 l 281 627 q 285 619 285 622 l 288 619 q 309 652 288 641 q 312 649 312 652 q 302 633 312 647 l 302 631 q 312 635 307 635 l 317 635 l 315 644 l 315 654 q 321 659 315 656 q 324 656 324 659 q 322 650 322 652 q 326 642 326 645 l 330 644 l 333 644 q 347 635 340 635 l 348 635 l 359 644 l 360 644 l 369 642 l 370 650 l 370 652 l 369 652 q 363 650 366 650 l 362 654 q 367 656 366 656 l 367 657 l 362 666 l 366 667 q 378 647 378 661 l 378 644 l 376 640 l 382 638 l 382 647 q 386 650 383 650 q 410 616 388 641 l 412 616 l 412 625 q 415 628 412 628 l 418 627 l 418 631 l 417 644 q 418 645 418 644 l 422 644 l 426 644 q 429 675 426 666 l 426 707 q 434 731 434 709 q 385 846 434 818 l 382 846 q 369 826 378 845 q 376 821 376 825 l 376 819 l 333 759 q 331 764 331 762 q 348 808 348 804 q 333 817 333 812 l 348 852 l 347 852 q 274 804 310 852 q 260 752 260 770 m 214 834 l 216 831 q 214 753 214 779 l 208 749 q 195 802 205 749 q 190 805 191 805 l 149 805 l 147 788 l 147 685 l 185 685 q 199 724 193 685 l 202 724 q 208 719 205 724 l 208 678 q 205 676 208 676 l 208 673 l 208 619 q 200 612 208 616 q 190 652 197 615 l 186 654 q 147 656 155 656 l 147 580 q 161 535 147 535 q 173 528 170 535 l 173 518 q 170 513 173 517 l 152 515 l 111 515 l 99 513 q 96 527 96 519 q 115 541 96 530 q 118 576 118 549 l 118 767 q 109 810 118 810 q 96 824 96 812 l 96 829 l 97 833 q 149 831 132 831 l 185 831 q 214 834 200 831 m 703 824 q 881 819 720 824 l 883 815 q 881 755 883 795 q 880 753 880 755 q 850 755 859 755 l 831 755 q 825 506 825 550 q 823 500 823 503 q 825 499 825 500 l 821 497 q 742 499 773 499 l 739 500 l 741 505 q 747 759 741 543 l 701 759 q 697 764 697 759 l 699 823 l 703 824 m 678 812 q 689 795 687 812 q 687 764 687 774 l 685 764 q 689 753 689 758 l 689 734 q 663 715 689 721 l 663 712 l 667 712 q 689 701 689 712 q 692 637 690 686 l 690 619 l 694 578 q 689 556 692 556 l 675 556 l 616 602 q 548 663 600 621 l 549 645 l 549 623 q 548 621 549 621 q 551 602 551 614 l 551 575 q 536 553 551 565 q 503 557 503 553 l 491 556 l 484 556 q 479 583 479 556 l 479 627 q 477 650 479 636 l 479 654 q 477 669 477 663 l 477 680 q 479 695 477 689 q 477 709 477 705 q 475 808 475 786 l 479 810 l 489 810 q 549 762 500 810 l 549 745 l 545 738 q 553 736 547 736 q 559 743 553 739 l 568 743 q 613 711 576 743 l 616 709 l 616 749 q 614 802 616 770 q 665 812 614 812 l 678 812 m 955 781 q 1072 760 1072 770 q 1098 721 1098 744 l 1098 718 q 1089 666 1098 691 q 1021 678 1025 676 q 1022 704 1021 682 q 979 714 1022 710 q 966 682 968 714 q 1031 664 966 667 q 1081 612 1081 648 l 1081 611 q 1078 585 1081 600 l 1095 561 l 1095 559 q 1069 532 1069 543 q 1014 492 1053 492 q 905 515 905 502 q 883 556 892 515 q 886 601 886 579 q 892 602 890 602 q 957 595 945 599 q 954 573 955 577 q 995 559 954 562 q 1007 597 1007 559 q 933 611 1007 603 q 893 657 893 629 l 893 685 l 873 707 q 900 745 900 723 q 955 781 918 781 m 281 774 l 283 774 l 283 772 q 285 752 283 770 q 279 745 282 745 l 276 747 l 278 755 l 278 771 q 281 774 278 774 m 422 766 l 424 762 l 424 760 q 422 745 424 754 q 424 740 424 742 l 420 738 q 417 741 417 738 l 417 743 q 422 766 417 766 m 292 749 l 302 749 q 326 740 307 745 l 326 736 q 293 743 314 736 q 288 747 288 743 l 292 749 m 396 741 q 407 736 407 740 q 381 728 400 736 l 379 731 q 396 741 389 741 m 286 736 l 288 736 q 322 721 294 736 l 322 715 l 314 715 l 314 714 q 324 705 319 714 l 324 704 q 322 702 324 702 l 324 699 q 302 688 317 688 l 300 688 q 278 705 278 690 q 293 718 278 718 l 293 719 l 288 719 q 271 714 279 714 l 269 714 l 269 721 q 286 736 269 734 m 340 734 q 345 723 345 728 l 345 721 q 340 715 345 718 l 338 719 l 340 723 q 336 733 336 730 l 340 734 m 350 734 q 353 712 353 725 l 350 711 q 347 724 347 717 l 347 731 q 350 734 347 734 m 415 733 l 427 719 l 427 718 q 424 714 427 714 l 420 714 q 417 718 417 714 q 398 714 414 718 l 398 712 q 414 701 414 708 q 391 683 408 683 q 385 688 385 686 l 386 692 q 367 701 367 694 l 367 702 q 376 709 371 709 l 372 714 l 372 715 q 415 733 372 724 m 254 721 q 257 718 254 718 l 259 718 l 259 721 l 254 721 m 324 715 q 334 709 334 712 q 330 701 332 701 q 326 704 326 701 l 328 707 q 321 711 323 711 l 321 712 q 324 715 321 715 m 252 711 l 256 690 l 259 690 l 257 699 l 257 712 l 256 712 l 252 711 m 286 709 q 293 702 286 706 l 295 702 l 293 705 l 293 709 l 295 712 l 290 712 q 286 709 286 712 m 311 711 l 311 701 q 319 704 316 704 q 311 711 318 707 m 436 711 l 436 707 q 441 709 439 709 l 441 711 l 436 711 m 396 707 q 398 702 398 704 q 396 697 396 699 q 405 704 404 700 q 396 707 399 707 m 374 701 l 378 699 l 381 699 l 381 705 q 374 701 374 703 m 436 702 l 436 697 l 437 697 l 437 702 l 436 702 m 355 699 q 370 669 363 696 q 369 667 369 669 q 353 682 353 667 l 355 699 m 338 697 l 340 693 l 340 683 q 341 659 340 673 q 334 649 338 649 l 331 650 q 333 657 333 656 l 331 675 q 338 697 334 697 m 321 693 l 324 693 l 328 692 q 330 693 328 693 l 331 690 l 331 683 q 322 673 325 673 q 321 678 321 676 q 326 688 326 686 l 326 690 l 324 690 q 302 675 324 677 l 295 675 q 278 686 286 675 l 278 688 q 281 692 278 692 q 296 682 287 682 l 305 682 q 321 693 321 684 m 369 693 q 395 680 381 680 q 417 688 408 680 l 418 685 q 395 671 418 675 q 366 692 376 671 l 369 693 m 353 601 l 350 602 q 331 601 338 601 l 326 601 q 322 597 322 600 q 340 593 338 593 l 370 602 l 370 604 l 367 604 q 353 601 362 604 m 386 604 q 374 580 386 594 q 381 571 377 572 q 393 593 387 571 l 393 599 q 386 604 393 602 m 302 589 q 315 563 302 569 q 322 576 320 563 l 322 578 q 314 595 314 578 l 314 599 q 302 589 305 599 m 300 477 q 312 412 304 477 q 338 444 331 441 q 374 429 372 433 l 372 404 q 381 360 372 396 l 381 358 q 340 329 374 348 q 285 339 285 335 l 288 360 q 264 470 276 448 l 269 473 l 281 473 q 300 477 283 473 m 733 477 l 768 477 q 771 471 771 477 q 766 451 766 456 l 766 446 l 780 446 q 783 442 783 446 l 783 441 q 777 427 783 427 l 764 429 q 763 423 763 425 q 761 374 761 400 q 774 363 774 366 q 758 341 767 348 q 720 367 720 363 q 730 432 730 386 q 720 437 720 432 l 720 441 q 725 451 721 451 q 730 449 728 449 q 732 454 732 452 q 730 475 730 472 l 733 477 m 574 461 l 575 461 q 593 434 593 441 q 577 408 581 410 l 575 408 q 565 427 572 408 l 559 427 q 555 408 556 408 q 565 378 555 378 q 589 370 589 376 q 574 348 578 349 l 572 348 l 522 360 q 520 365 520 363 l 526 384 q 508 432 526 432 q 507 434 507 432 q 520 460 508 446 q 555 432 555 450 l 556 432 q 574 461 570 460 m 649 460 q 697 441 678 444 l 699 437 q 692 387 692 408 q 706 368 692 378 l 706 367 q 687 346 693 346 q 661 372 661 359 l 659 372 q 630 348 632 348 q 603 377 603 361 q 614 408 603 408 q 625 410 624 410 l 625 413 l 611 429 l 611 431 q 649 460 640 460 m 437 454 l 439 454 q 489 441 465 446 q 491 439 489 439 q 489 420 489 427 q 494 365 489 386 q 452 339 472 355 q 404 353 425 349 l 401 357 q 404 368 401 361 q 393 425 401 397 l 393 427 q 426 444 395 431 q 437 454 426 447 m 847 446 q 893 420 858 437 l 893 416 q 880 353 887 416 q 881 348 881 350 l 831 330 q 789 353 806 348 l 789 357 q 795 412 795 385 q 793 425 795 416 q 826 437 793 433 q 847 446 841 446 m 119 437 q 123 434 123 437 l 123 427 q 154 319 145 319 q 163 312 159 319 l 163 310 q 156 288 161 288 l 152 288 q 118 298 118 296 q 85 420 118 323 q 83 422 83 420 l 83 429 q 119 437 89 429 m 625 435 l 625 429 q 661 401 645 401 q 663 408 663 404 l 663 420 q 625 435 645 435 m 429 431 l 429 429 q 439 372 433 372 q 462 367 460 367 l 460 378 l 460 396 q 434 429 460 429 q 429 431 433 429 m 928 432 q 954 404 954 416 l 954 397 l 955 397 q 977 422 975 422 l 979 422 q 991 393 991 404 l 991 391 q 970 368 972 368 q 962 391 966 368 l 959 391 q 945 351 952 391 q 974 334 945 345 l 974 330 q 955 312 974 328 l 954 312 q 905 336 951 312 q 919 396 919 368 q 905 408 919 404 q 928 432 905 416 m 829 423 l 829 422 q 826 367 826 402 q 848 357 842 357 q 855 403 855 394 l 855 406 q 829 423 848 416 m 314 397 q 322 360 319 360 q 348 357 338 357 q 338 413 339 413 l 328 415 l 326 415 q 314 397 322 415 m 197 415 q 238 408 224 408 l 241 410 q 250 404 250 408 l 250 393 q 269 342 253 342 q 274 339 274 342 q 262 315 274 330 l 260 315 q 230 332 230 321 l 228 332 q 204 301 208 301 q 170 336 170 308 q 166 349 166 347 q 185 360 179 360 l 185 361 q 166 377 185 363 q 197 415 189 415 m 1019 412 q 1048 391 1029 412 l 1048 387 q 1031 327 1031 345 q 1043 319 1041 319 q 1067 368 1058 319 q 1070 380 1070 368 l 1070 393 l 1072 396 q 1110 382 1110 388 q 1070 260 1094 354 l 1067 258 l 1040 258 q 1036 264 1036 258 q 1051 313 1043 274 l 1050 313 l 1024 294 q 991 322 991 318 q 1010 380 1002 336 l 1003 393 l 1003 394 q 1019 412 1003 408 m 635 403 q 633 396 633 400 l 633 389 q 642 372 633 376 l 648 372 q 661 391 661 382 q 635 403 644 403 m 178 384 q 219 358 183 370 l 221 358 l 222 361 q 200 386 222 386 q 186 387 188 387 l 178 384 m 197 358 l 197 351 q 214 327 197 327 q 226 349 226 341 q 197 358 220 353 m 355 322 q 415 282 385 322 q 420 277 418 282 q 412 255 420 267 q 398 258 406 258 q 422 222 422 235 q 391 195 422 199 l 381 195 q 340 219 356 195 q 321 243 321 233 l 321 258 q 326 262 321 262 q 347 255 331 258 l 347 256 q 321 296 321 279 q 355 322 321 317 m 566 320 l 591 320 q 637 277 602 320 l 663 197 l 659 195 l 633 195 q 608 210 619 210 q 601 195 604 195 l 574 195 q 536 233 571 195 q 566 320 562 320 m 665 320 l 671 319 l 684 320 q 725 281 688 320 l 725 252 q 726 212 725 235 q 725 195 725 206 l 697 195 q 661 236 661 227 l 661 294 l 659 315 q 665 320 662 315 m 742 320 q 758 319 748 320 q 764 320 760 320 q 793 296 770 320 l 793 315 q 807 320 793 319 l 807 319 l 811 320 q 812 319 812 320 l 816 320 q 857 279 822 320 l 857 198 q 854 195 857 195 l 823 195 l 799 217 l 799 198 q 795 195 799 195 l 773 195 q 735 234 735 230 l 735 313 q 742 320 735 316 m 326 293 q 359 264 326 276 l 360 260 l 360 255 q 348 250 359 250 q 326 255 342 250 l 326 241 q 350 234 326 237 q 379 256 379 239 l 379 264 q 353 286 379 277 q 345 294 345 293 q 350 301 347 301 l 357 301 q 374 298 360 301 q 378 312 378 302 q 355 317 368 315 q 326 293 326 314 m 433 319 l 465 319 q 524 272 484 319 q 532 252 532 264 q 494 220 532 224 l 494 198 q 491 195 494 195 l 471 195 q 441 220 462 195 q 429 233 439 220 l 429 315 q 433 319 429 319 m 434 313 l 433 293 l 433 239 q 436 236 433 236 l 453 236 l 453 258 q 477 265 453 261 q 489 284 489 274 l 489 291 q 465 313 489 313 l 434 313 m 566 313 l 543 236 l 563 236 q 570 252 566 252 l 593 252 q 600 236 597 252 l 620 236 l 620 238 q 596 313 596 310 l 566 313 m 665 313 l 665 236 l 684 236 l 684 313 l 665 313 m 741 313 l 741 236 l 758 236 l 758 269 l 755 290 l 759 291 q 790 236 788 237 l 816 236 l 816 313 l 799 313 l 799 260 l 797 260 q 768 313 794 260 l 741 313 m 582 301 q 591 269 585 296 q 587 265 591 265 l 575 265 q 572 269 572 265 q 582 301 578 301 m 458 300 q 471 293 471 297 l 471 290 q 458 277 471 277 l 456 277 q 453 281 453 277 l 453 296 q 458 300 453 300 m 116 182 l 1079 182 q 1103 162 1103 180 l 1103 52 q 1079 31 1103 34 l 116 31 q 92 52 92 34 l 92 162 q 116 182 92 180 m 135 143 l 135 104 l 130 97 l 135 90 l 135 75 q 156 54 135 72 l 173 54 l 182 60 l 183 60 l 192 54 l 209 54 q 230 75 212 54 l 230 90 l 235 97 l 230 104 l 230 143 l 209 143 l 209 81 q 205 78 209 78 l 195 78 q 192 81 192 78 l 192 90 l 199 98 q 192 105 196 98 l 192 143 l 173 143 l 173 105 l 166 97 q 173 90 169 97 l 173 81 q 170 78 173 78 l 159 78 q 156 81 156 78 l 156 143 l 135 143 m 248 127 l 248 105 q 241 97 248 104 l 248 88 l 248 64 q 264 54 254 54 l 288 54 q 305 79 305 54 l 305 90 l 311 97 l 305 104 l 305 117 q 285 143 305 143 l 267 143 q 248 127 248 143 m 324 127 l 324 105 l 317 97 l 324 88 l 324 69 q 340 54 326 54 l 363 54 q 381 79 381 54 l 381 90 l 386 97 l 381 104 l 381 114 q 363 143 381 143 l 343 143 q 324 127 324 143 m 401 143 l 401 105 l 396 98 l 401 92 l 401 57 q 405 54 402 54 l 443 54 q 460 83 460 54 l 460 92 l 465 98 l 460 105 l 460 116 q 439 143 460 143 l 401 143 m 481 127 l 481 111 q 474 100 481 100 l 474 98 q 481 90 481 91 l 481 69 q 496 54 483 54 l 520 54 q 537 75 537 54 l 537 85 l 517 85 q 511 73 517 73 l 505 73 q 500 78 503 73 l 500 90 l 507 98 l 500 107 l 500 119 q 510 124 501 124 l 511 124 q 517 112 517 124 l 537 112 l 537 117 q 517 143 537 143 l 500 143 q 481 127 481 143 m 551 143 l 551 105 l 545 97 q 551 90 547 97 l 551 73 q 570 54 551 54 l 593 54 q 608 69 608 56 l 608 90 l 614 98 q 608 105 612 98 l 608 143 l 589 143 l 589 78 q 584 73 589 75 l 575 73 q 572 76 572 73 l 572 143 l 551 143 m 622 143 l 622 124 l 639 124 q 642 121 642 123 l 642 105 l 637 98 l 637 97 l 642 90 l 642 54 l 663 54 l 663 90 l 668 97 l 663 104 l 663 121 q 667 124 663 124 l 684 124 l 684 143 l 622 143 m 689 143 l 689 124 l 707 124 q 711 121 711 123 l 711 105 l 704 97 q 711 85 711 94 l 711 54 l 730 54 l 730 90 l 736 98 q 730 105 734 98 l 730 121 q 733 124 730 124 l 751 124 l 751 143 l 689 143 m 764 143 l 764 105 l 758 97 q 764 90 760 97 l 764 54 l 819 54 l 819 73 l 787 73 q 783 76 783 73 l 783 85 q 787 88 784 88 l 809 88 l 809 109 l 787 109 q 783 112 783 109 l 783 121 q 787 124 784 124 l 819 124 l 819 143 l 764 143 m 835 143 l 835 105 l 828 97 q 835 90 831 97 l 835 54 l 854 54 l 854 79 l 857 79 q 869 54 869 56 l 892 54 l 892 56 l 878 83 q 890 98 890 88 l 890 127 q 871 143 890 143 l 835 143 m 948 143 l 948 105 q 941 97 948 104 q 948 90 944 97 l 948 54 l 1005 54 l 1005 73 l 970 73 q 967 76 967 73 l 967 85 q 970 88 968 88 l 993 88 l 993 109 l 970 109 q 967 112 967 109 l 967 121 q 970 124 968 124 l 1005 124 l 1005 143 l 948 143 m 1012 119 l 1012 117 q 1022 94 1018 111 q 1043 88 1028 88 l 1051 88 q 1055 85 1055 87 l 1055 76 q 1051 73 1055 73 l 1043 73 q 1038 83 1038 73 l 1019 83 l 1019 69 q 1038 54 1019 54 l 1057 54 q 1076 73 1076 54 q 1082 79 1078 73 q 1074 100 1076 79 q 1050 109 1067 109 l 1043 109 q 1038 114 1040 109 l 1038 117 q 1044 124 1038 120 l 1050 124 q 1057 112 1054 124 l 1060 114 l 1070 114 l 1074 112 l 1076 116 l 1076 126 q 1055 143 1076 143 l 1038 143 q 1017 121 1017 143 q 1012 119 1014 119 m 278 124 l 279 124 q 285 119 282 124 l 285 78 q 279 73 285 75 l 273 73 q 267 78 270 73 l 267 119 q 278 124 269 124 m 353 124 l 355 124 q 360 119 357 124 l 360 78 q 355 73 360 75 l 348 73 q 343 78 346 73 l 343 119 q 353 124 345 124 m 857 124 l 866 124 q 871 119 868 124 l 871 105 q 866 100 871 103 l 857 100 q 854 104 854 100 l 854 121 q 857 124 854 124 m 426 123 l 436 123 q 439 119 439 122 l 439 78 q 434 73 439 75 l 426 73 q 422 76 422 73 l 422 119 q 426 123 422 123 m 907 62 q 912 54 908 54 l 922 54 q 926 57 926 54 l 926 68 q 921 73 926 70 l 918 73 q 907 62 907 73 m 208 2 q 221 -3 221 -2 q 238 2 235 2 q 256 -8 250 2 l 254 -18 l 281 -77 q 309 -15 290 -66 q 326 2 311 2 q 341 -1 339 -1 q 362 2 353 2 q 374 -5 374 -1 l 374 -14 q 366 -28 366 -22 l 366 -66 q 385 -85 366 -77 l 386 -94 q 369 -111 386 -98 q 366 -121 366 -117 l 366 -149 q 372 -176 372 -175 q 366 -184 372 -179 l 355 -184 q 343 -180 343 -184 q 330 -184 337 -184 l 322 -184 q 311 -176 313 -184 l 311 -172 q 317 -149 317 -151 l 317 -113 l 305 -136 q 296 -139 305 -139 q 283 -137 290 -139 q 269 -139 276 -139 l 267 -139 q 248 -115 256 -139 l 247 -115 l 247 -151 q 254 -172 247 -153 l 254 -176 q 240 -184 252 -184 q 222 -182 232 -184 q 202 -184 214 -184 q 192 -172 192 -184 q 199 -151 192 -170 l 199 -110 q 178 -96 186 -106 q 197 -73 178 -88 l 197 -68 q 199 -28 197 -60 q 190 -8 190 -9 q 208 2 190 1 m 420 2 l 434 -3 q 452 2 448 2 q 469 -10 469 -1 q 467 -20 467 -19 l 494 -77 q 520 -17 502 -73 l 529 -1 q 539 2 529 2 q 555 -1 552 -1 q 574 2 567 2 q 587 -6 583 2 l 587 -14 l 578 -24 l 578 -66 q 597 -85 578 -77 q 600 -92 597 -90 q 582 -111 600 -98 q 578 -121 578 -117 l 578 -153 q 585 -175 585 -173 q 574 -184 583 -184 l 568 -184 q 556 -180 556 -184 q 543 -184 550 -184 l 536 -184 q 524 -176 526 -184 l 524 -173 q 529 -153 524 -169 l 529 -115 l 527 -115 q 510 -139 524 -139 q 496 -137 503 -139 q 482 -139 490 -139 l 481 -139 q 463 -117 467 -139 l 460 -115 l 460 -153 q 467 -168 460 -159 l 467 -176 q 453 -184 465 -184 q 436 -182 445 -184 q 415 -184 427 -184 l 412 -184 q 405 -176 409 -184 l 405 -166 q 412 -151 412 -157 q 410 -144 412 -147 q 412 -125 412 -132 l 412 -110 q 391 -96 404 -110 q 410 -73 391 -87 l 410 -58 q 412 -31 410 -48 q 404 -12 407 -16 l 404 -6 q 420 2 408 2 m 623 2 q 639 -3 636 -3 l 651 2 q 670 -8 662 2 l 668 -17 q 682 -44 679 -44 q 696 -3 694 -20 l 707 2 q 725 -3 711 2 q 742 2 739 2 q 755 -6 755 -3 l 755 -14 q 718 -77 718 -65 q 732 -94 732 -87 q 722 -108 732 -99 q 759 -170 737 -146 l 759 -176 q 744 -185 754 -185 l 728 -184 q 709 -185 716 -185 q 696 -176 701 -185 l 696 -175 q 697 -168 696 -171 q 680 -137 684 -137 l 678 -137 q 667 -159 678 -141 l 665 -166 l 667 -176 q 651 -185 660 -182 q 633 -184 649 -185 q 614 -185 618 -185 q 603 -178 603 -183 l 603 -172 q 641 -106 641 -119 q 630 -92 635 -104 q 646 -79 638 -79 q 604 -12 618 -26 l 604 -8 q 623 2 608 2 m 780 2 l 799 -3 q 811 2 807 2 q 828 -15 828 2 q 838 -43 828 -20 l 840 -43 l 854 -18 l 852 -10 l 852 -8 q 866 2 859 2 q 883 -3 883 -1 q 902 2 899 2 q 916 -12 916 -1 q 876 -77 897 -35 q 892 -91 891 -87 l 892 -96 q 880 -110 880 -107 q 919 -172 904 -154 l 919 -176 q 903 -185 919 -181 q 890 -184 899 -185 q 866 -185 876 -185 q 854 -159 855 -185 q 840 -137 842 -137 l 838 -137 q 825 -165 825 -161 l 825 -176 q 807 -185 825 -182 q 793 -184 795 -184 l 773 -185 q 763 -178 763 -182 l 763 -175 q 789 -132 763 -172 q 800 -106 800 -111 q 790 -91 790 -100 q 804 -80 797 -80 l 804 -79 q 764 -14 785 -35 l 764 -6 q 780 2 764 -2 m 977 2 q 993 -12 993 0 q 986 -33 986 -23 l 986 -54 q 985 -70 986 -61 q 1003 -91 985 -73 l 1003 -92 q 988 -110 1003 -102 l 985 -123 q 986 -147 986 -138 l 986 -155 q 993 -176 993 -174 q 977 -184 986 -184 q 960 -180 960 -184 q 947 -184 954 -184 l 941 -184 q 929 -172 929 -184 q 938 -149 938 -153 l 938 -134 q 921 -92 938 -110 l 921 -91 q 937 -68 937 -77 l 937 -31 q 929 -10 929 -12 l 929 -6 q 947 1 929 -1 q 960 -3 960 0 l 977 2 z "},"^":{"ha":1186,"x_min":61,"x_max":1134,"o":"m 64 1118 l 1131 1118 q 1134 1115 1134 1118 l 1134 -237 q 1131 -240 1134 -240 l 64 -240 q 61 -237 61 -240 l 61 1115 q 64 1118 62 1118 m 77 1097 l 77 -220 l 1118 -220 l 1118 1097 l 77 1097 m 761 1074 l 778 1074 q 787 1056 783 1074 l 789 1056 l 797 1058 q 816 1051 810 1057 q 828 1058 816 1058 l 828 1056 l 831 1058 l 844 1056 l 844 1061 q 859 1074 844 1074 l 874 1074 q 883 1056 879 1074 l 893 1058 q 911 1051 911 1056 l 911 1008 q 902 1000 911 1006 l 881 1000 l 881 903 q 878 878 881 878 q 881 855 880 876 q 876 848 879 848 l 873 848 q 867 878 867 848 l 866 878 q 861 867 866 867 q 855 878 855 869 l 855 889 l 852 889 l 852 863 q 854 838 852 855 l 850 836 l 847 836 q 844 840 844 836 l 844 848 q 845 867 844 861 l 842 934 q 844 965 844 947 l 844 1000 l 823 1000 q 814 1008 822 1000 q 806 1000 814 1006 l 785 1000 l 785 955 q 787 948 785 951 l 785 945 q 787 903 787 920 q 783 879 787 896 q 785 852 785 861 l 780 848 l 778 848 q 771 878 771 848 l 770 878 q 766 867 770 867 q 759 889 761 867 l 758 889 l 755 879 q 758 838 758 840 q 752 834 753 834 q 747 842 750 834 q 749 863 747 852 q 747 922 747 897 q 745 932 747 930 q 747 948 747 942 l 747 1000 l 728 1000 q 718 1015 718 1006 l 718 1046 q 733 1058 718 1058 l 735 1058 l 747 1056 q 761 1074 747 1074 m 684 1070 l 707 1070 q 715 1058 715 1067 l 715 1041 q 716 1010 715 1026 l 715 1001 q 716 977 716 987 q 715 972 716 975 l 716 962 l 716 953 q 715 941 716 943 q 716 926 716 932 l 716 920 q 706 886 716 886 q 694 874 703 886 l 687 874 l 687 869 q 685 863 687 863 l 687 855 l 687 842 q 682 836 687 839 l 680 836 q 675 846 675 838 l 675 860 q 670 881 675 879 q 659 878 664 878 q 654 884 655 878 l 652 884 l 652 863 q 648 859 652 861 q 644 862 644 859 l 646 879 q 644 897 644 888 q 630 888 637 888 q 620 922 620 897 q 622 987 622 964 l 622 1046 q 630 1063 622 1059 l 644 1063 q 661 1042 661 1063 l 661 926 q 665 922 662 922 l 671 922 q 677 936 677 923 l 677 1058 q 684 1070 677 1067 m 149 1068 l 151 1068 q 174 1053 174 1068 q 182 1003 182 1010 l 183 1003 q 202 1061 188 1061 q 212 1060 203 1061 q 222 1061 221 1061 q 230 1056 230 1059 q 204 889 208 928 l 200 888 l 199 888 l 192 893 q 185 889 188 889 l 185 871 q 180 865 185 868 q 171 908 175 865 q 159 951 163 908 l 157 951 q 147 882 154 899 q 144 878 147 878 l 142 878 q 138 881 138 878 l 138 901 q 135 922 138 910 l 134 922 q 121 891 126 891 l 119 891 q 109 941 113 891 q 89 1061 100 970 l 94 1065 l 118 1065 q 135 1008 126 1065 l 137 1008 q 149 1068 142 1068 m 460 1068 q 511 1039 504 1068 q 513 1020 513 1027 l 513 955 q 511 878 513 930 l 508 876 l 503 879 l 505 897 l 505 907 q 496 895 499 907 l 498 884 l 498 876 q 492 871 498 873 l 491 871 q 488 874 488 871 l 488 895 q 484 898 488 898 q 479 893 484 896 l 475 893 l 467 898 l 463 893 l 463 876 q 458 871 463 873 l 456 871 q 452 878 455 871 l 453 886 q 452 900 452 898 l 443 898 l 439 905 q 441 924 441 917 l 441 926 q 437 922 437 925 l 437 911 q 439 878 437 897 q 433 862 437 862 q 427 867 430 862 q 426 943 426 926 q 427 958 426 949 q 426 968 426 967 q 427 1053 427 1017 l 427 1055 q 453 1068 427 1068 l 460 1068 m 274 1067 l 285 1067 q 319 1032 304 1067 q 321 977 319 1010 q 319 937 321 969 q 321 897 321 907 q 319 857 319 869 l 315 855 q 309 888 311 855 q 300 907 300 895 l 298 907 q 292 889 298 889 l 288 891 q 281 889 285 889 q 276 900 276 896 q 271 878 271 900 l 273 871 q 267 862 271 862 l 264 869 l 266 886 q 260 900 264 900 q 252 872 256 895 l 248 871 q 241 897 245 871 q 233 913 237 897 l 233 1010 q 274 1067 233 1067 m 367 1067 l 381 1067 q 415 1032 401 1067 q 417 1012 415 1017 q 415 1010 417 1010 l 417 989 l 417 876 q 415 869 417 872 q 417 862 417 866 q 412 855 414 855 q 405 889 407 855 q 398 905 398 892 l 396 905 q 388 889 396 890 l 385 891 q 378 889 381 889 q 370 900 374 900 q 367 882 367 885 q 369 869 369 873 q 363 862 366 862 q 360 869 362 869 l 362 881 l 362 886 q 357 900 362 899 q 348 872 352 895 l 345 872 q 336 900 342 872 q 330 916 330 907 l 330 1000 q 367 1067 330 1067 m 578 1065 q 611 1025 611 1052 l 611 984 q 596 977 609 977 q 577 982 577 977 l 577 1003 l 575 1012 l 565 1012 q 559 967 559 1012 l 559 926 l 562 917 l 572 917 q 578 941 576 917 l 584 945 l 597 945 q 611 939 610 945 l 611 922 q 606 907 611 919 q 608 876 608 883 l 604 874 q 597 889 600 874 l 594 888 q 591 891 591 888 l 591 911 l 589 911 q 582 881 584 899 l 581 881 q 574 898 576 881 l 565 900 l 562 895 l 562 879 q 551 871 562 876 l 549 871 l 545 874 q 546 900 546 891 l 546 905 q 536 916 536 905 l 534 916 l 532 907 l 532 881 q 529 878 532 878 q 526 881 526 878 q 524 949 526 899 q 526 1029 526 1004 q 556 1065 526 1049 l 578 1065 m 922 1065 l 998 1065 q 1005 1058 1001 1065 l 1005 1022 q 991 1008 1005 1008 l 955 1008 l 955 970 l 979 970 q 986 964 982 970 l 986 939 q 974 927 986 927 l 955 927 l 955 913 l 959 916 q 1002 913 987 913 q 1007 901 1007 907 l 1007 884 q 1003 881 1007 881 l 1002 881 q 996 886 999 881 l 996 895 l 993 895 l 986 882 l 985 882 q 979 889 980 882 l 977 889 q 972 876 977 876 l 969 876 q 962 898 964 876 l 960 898 q 950 869 955 869 l 947 869 q 931 879 939 878 q 929 891 929 886 l 928 891 q 921 881 928 884 q 916 886 920 881 q 918 911 918 903 l 918 919 q 916 932 918 930 q 918 951 918 944 l 918 1051 q 922 1065 918 1064 m 1022 1065 l 1070 1065 q 1103 1017 1103 1057 l 1103 960 q 1093 924 1103 947 q 1107 893 1107 898 l 1107 888 l 1101 869 q 1103 855 1101 867 q 1095 848 1102 855 q 1089 853 1092 848 l 1089 878 l 1086 878 l 1084 869 q 1086 846 1086 848 q 1081 840 1083 840 q 1074 846 1079 840 l 1076 859 l 1076 862 q 1057 916 1076 880 l 1051 916 l 1051 900 q 1048 881 1048 883 l 1050 865 q 1044 857 1048 857 l 1043 857 q 1038 865 1039 857 q 1040 888 1040 880 l 1036 889 q 1033 886 1036 886 l 1031 886 q 1027 893 1027 886 l 1025 893 q 1024 881 1025 883 q 1027 853 1025 881 q 1022 846 1025 846 l 1019 846 q 1014 857 1015 846 q 1017 888 1014 861 q 1014 898 1016 898 q 1015 962 1015 941 l 1015 1044 q 1022 1065 1015 1065 m 267 1010 l 267 929 l 269 920 l 279 920 q 285 930 285 922 l 285 996 q 276 1015 285 1015 l 273 1015 q 267 1010 270 1015 m 363 1004 l 363 996 q 366 960 363 977 q 363 929 363 950 q 369 920 365 920 l 376 920 q 381 926 378 920 l 381 1004 q 376 1015 381 1014 l 374 1015 q 363 1004 363 1015 m 463 1015 q 462 1010 463 1013 l 463 1006 l 462 1003 q 463 998 463 1000 l 462 994 q 463 987 463 991 l 462 984 q 463 982 462 982 l 462 974 l 462 920 l 463 911 q 471 913 467 913 l 471 998 l 472 1015 l 463 1015 m 1051 1012 l 1051 956 l 1053 956 l 1062 958 l 1062 1008 q 1059 1012 1062 1012 l 1051 1012 m 352 860 q 424 812 401 860 q 441 731 441 789 q 439 718 439 724 q 448 712 448 716 l 448 705 q 443 682 443 690 q 456 666 445 682 l 456 661 l 453 661 l 453 652 q 458 623 453 644 q 453 621 455 621 q 460 601 453 621 l 456 599 l 455 599 l 452 601 q 444 563 452 593 l 439 563 q 434 580 439 580 q 431 557 431 564 l 431 553 l 426 553 q 422 557 426 557 l 420 557 q 408 537 420 539 q 401 518 407 518 l 395 523 q 391 492 391 499 l 389 492 q 381 503 381 497 q 372 487 378 500 l 369 487 q 363 500 369 500 q 355 486 359 486 q 350 494 350 491 l 348 494 l 343 484 l 338 484 q 333 496 336 496 q 324 484 328 485 q 317 492 321 492 l 311 487 l 309 487 q 296 503 306 487 q 293 497 296 497 l 290 497 q 283 527 283 524 l 276 518 q 269 553 271 518 l 267 553 l 267 549 l 262 549 l 256 587 l 247 580 q 243 583 243 580 q 247 602 247 598 q 243 628 247 609 l 237 625 q 235 627 237 627 q 237 652 237 644 l 237 664 q 248 688 237 667 l 248 693 q 243 718 243 709 q 252 730 243 719 l 252 747 q 296 840 252 800 q 352 860 316 855 m 260 752 l 260 726 q 267 718 267 718 q 264 667 267 707 q 267 664 267 667 l 267 652 l 273 652 l 273 638 l 274 638 q 278 645 274 645 q 281 642 281 645 l 281 627 q 285 619 285 622 l 288 619 q 309 652 288 641 q 312 649 312 652 q 302 633 312 647 l 302 631 q 312 635 307 635 l 317 635 l 315 644 l 315 654 q 321 659 315 656 q 324 656 324 659 q 322 650 322 652 q 326 642 326 645 l 330 644 l 333 644 q 347 635 340 635 l 348 635 l 359 644 l 360 644 l 369 642 l 370 650 l 370 652 l 369 652 q 363 650 366 650 l 362 654 q 367 656 366 656 l 367 657 l 362 666 l 366 667 q 378 647 378 661 l 378 644 l 376 640 l 382 638 l 382 647 q 386 650 383 650 q 410 616 388 641 l 412 616 l 412 625 q 415 628 412 628 l 418 627 l 418 631 l 417 644 q 418 645 418 644 l 422 644 l 426 644 q 429 675 426 666 l 426 707 q 434 731 434 709 q 385 846 434 818 l 382 846 q 369 826 378 845 q 376 821 376 825 l 376 819 l 333 759 q 331 764 331 762 q 348 808 348 804 q 333 817 333 812 l 348 852 l 347 852 q 274 804 310 852 q 260 752 260 770 m 214 834 l 216 831 q 214 753 214 779 l 208 749 q 195 802 205 749 q 190 805 191 805 l 149 805 l 147 788 l 147 685 l 185 685 q 199 724 193 685 l 202 724 q 208 719 205 724 l 208 678 q 205 676 208 676 l 208 673 l 208 619 q 200 612 208 616 q 190 652 197 615 l 186 654 q 147 656 155 656 l 147 580 q 161 535 147 535 q 173 528 170 535 l 173 518 q 170 513 173 517 l 152 515 l 111 515 l 99 513 q 96 527 96 519 q 115 541 96 530 q 118 576 118 549 l 118 767 q 109 810 118 810 q 96 824 96 812 l 96 829 l 97 833 q 149 831 132 831 l 185 831 q 214 834 200 831 m 703 824 q 881 819 720 824 l 883 815 q 881 755 883 795 q 880 753 880 755 q 850 755 859 755 l 831 755 q 825 506 825 550 q 823 500 823 503 q 825 499 825 500 l 821 497 q 742 499 773 499 l 739 500 l 741 505 q 747 759 741 543 l 701 759 q 697 764 697 759 l 699 823 l 703 824 m 678 812 q 689 795 687 812 q 687 764 687 774 l 685 764 q 689 753 689 758 l 689 734 q 663 715 689 721 l 663 712 l 667 712 q 689 701 689 712 q 692 637 690 686 l 690 619 l 694 578 q 689 556 692 556 l 675 556 l 616 602 q 548 663 600 621 l 549 645 l 549 623 q 548 621 549 621 q 551 602 551 614 l 551 575 q 536 553 551 565 q 503 557 503 553 l 491 556 l 484 556 q 479 583 479 556 l 479 627 q 477 650 479 636 l 479 654 q 477 669 477 663 l 477 680 q 479 695 477 689 q 477 709 477 705 q 475 808 475 786 l 479 810 l 489 810 q 549 762 500 810 l 549 745 l 545 738 q 553 736 547 736 q 559 743 553 739 l 568 743 q 613 711 576 743 l 616 709 l 616 749 q 614 802 616 770 q 665 812 614 812 l 678 812 m 955 781 q 1072 760 1072 770 q 1098 721 1098 744 l 1098 718 q 1089 666 1098 691 q 1021 678 1025 676 q 1022 704 1021 682 q 979 714 1022 710 q 966 682 968 714 q 1031 664 966 667 q 1081 612 1081 648 l 1081 611 q 1078 585 1081 600 l 1095 561 l 1095 559 q 1069 532 1069 543 q 1014 492 1053 492 q 905 515 905 502 q 883 556 892 515 q 886 601 886 579 q 892 602 890 602 q 957 595 945 599 q 954 573 955 577 q 995 559 954 562 q 1007 597 1007 559 q 933 611 1007 603 q 893 657 893 629 l 893 685 l 873 707 q 900 745 900 723 q 955 781 918 781 m 281 774 l 283 774 l 283 772 q 285 752 283 770 q 279 745 282 745 l 276 747 l 278 755 l 278 771 q 281 774 278 774 m 422 766 l 424 762 l 424 760 q 422 745 424 754 q 424 740 424 742 l 420 738 q 417 741 417 738 l 417 743 q 422 766 417 766 m 292 749 l 302 749 q 326 740 307 745 l 326 736 q 293 743 314 736 q 288 747 288 743 l 292 749 m 396 741 q 407 736 407 740 q 381 728 400 736 l 379 731 q 396 741 389 741 m 286 736 l 288 736 q 322 721 294 736 l 322 715 l 314 715 l 314 714 q 324 705 319 714 l 324 704 q 322 702 324 702 l 324 699 q 302 688 317 688 l 300 688 q 278 705 278 690 q 293 718 278 718 l 293 719 l 288 719 q 271 714 279 714 l 269 714 l 269 721 q 286 736 269 734 m 340 734 q 345 723 345 728 l 345 721 q 340 715 345 718 l 338 719 l 340 723 q 336 733 336 730 l 340 734 m 350 734 q 353 712 353 725 l 350 711 q 347 724 347 717 l 347 731 q 350 734 347 734 m 415 733 l 427 719 l 427 718 q 424 714 427 714 l 420 714 q 417 718 417 714 q 398 714 414 718 l 398 712 q 414 701 414 708 q 391 683 408 683 q 385 688 385 686 l 386 692 q 367 701 367 694 l 367 702 q 376 709 371 709 l 372 714 l 372 715 q 415 733 372 724 m 254 721 q 257 718 254 718 l 259 718 l 259 721 l 254 721 m 324 715 q 334 709 334 712 q 330 701 332 701 q 326 704 326 701 l 328 707 q 321 711 323 711 l 321 712 q 324 715 321 715 m 252 711 l 256 690 l 259 690 l 257 699 l 257 712 l 256 712 l 252 711 m 286 709 q 293 702 286 706 l 295 702 l 293 705 l 293 709 l 295 712 l 290 712 q 286 709 286 712 m 311 711 l 311 701 q 319 704 316 704 q 311 711 318 707 m 436 711 l 436 707 q 441 709 439 709 l 441 711 l 436 711 m 396 707 q 398 702 398 704 q 396 697 396 699 q 405 704 404 700 q 396 707 399 707 m 374 701 l 378 699 l 381 699 l 381 705 q 374 701 374 703 m 436 702 l 436 697 l 437 697 l 437 702 l 436 702 m 355 699 q 370 669 363 696 q 369 667 369 669 q 353 682 353 667 l 355 699 m 338 697 l 340 693 l 340 683 q 341 659 340 673 q 334 649 338 649 l 331 650 q 333 657 333 656 l 331 675 q 338 697 334 697 m 321 693 l 324 693 l 328 692 q 330 693 328 693 l 331 690 l 331 683 q 322 673 325 673 q 321 678 321 676 q 326 688 326 686 l 326 690 l 324 690 q 302 675 324 677 l 295 675 q 278 686 286 675 l 278 688 q 281 692 278 692 q 296 682 287 682 l 305 682 q 321 693 321 684 m 369 693 q 395 680 381 680 q 417 688 408 680 l 418 685 q 395 671 418 675 q 366 692 376 671 l 369 693 m 353 601 l 350 602 q 331 601 338 601 l 326 601 q 322 597 322 600 q 340 593 338 593 l 370 602 l 370 604 l 367 604 q 353 601 362 604 m 386 604 q 374 580 386 594 q 381 571 377 572 q 393 593 387 571 l 393 599 q 386 604 393 602 m 302 589 q 315 563 302 569 q 322 576 320 563 l 322 578 q 314 595 314 578 l 314 599 q 302 589 305 599 m 300 477 q 312 412 304 477 q 338 444 331 441 q 374 429 372 433 l 372 404 q 381 360 372 396 l 381 358 q 340 329 374 348 q 285 339 285 335 l 288 360 q 264 470 276 448 l 269 473 l 281 473 q 300 477 283 473 m 733 477 l 768 477 q 771 471 771 477 q 766 451 766 456 l 766 446 l 780 446 q 783 442 783 446 l 783 441 q 777 427 783 427 l 764 429 q 763 423 763 425 q 761 374 761 400 q 774 363 774 366 q 758 341 767 348 q 720 367 720 363 q 730 432 730 386 q 720 437 720 432 l 720 441 q 725 451 721 451 q 730 449 728 449 q 732 454 732 452 q 730 475 730 472 l 733 477 m 574 461 l 575 461 q 593 434 593 441 q 577 408 581 410 l 575 408 q 565 427 572 408 l 559 427 q 555 408 556 408 q 565 378 555 378 q 589 370 589 376 q 574 348 578 349 l 572 348 l 522 360 q 520 365 520 363 l 526 384 q 508 432 526 432 q 507 434 507 432 q 520 460 508 446 q 555 432 555 450 l 556 432 q 574 461 570 460 m 649 460 q 697 441 678 444 l 699 437 q 692 387 692 408 q 706 368 692 378 l 706 367 q 687 346 693 346 q 661 372 661 359 l 659 372 q 630 348 632 348 q 603 377 603 361 q 614 408 603 408 q 625 410 624 410 l 625 413 l 611 429 l 611 431 q 649 460 640 460 m 437 454 l 439 454 q 489 441 465 446 q 491 439 489 439 q 489 420 489 427 q 494 365 489 386 q 452 339 472 355 q 404 353 425 349 l 401 357 q 404 368 401 361 q 393 425 401 397 l 393 427 q 426 444 395 431 q 437 454 426 447 m 847 446 q 893 420 858 437 l 893 416 q 880 353 887 416 q 881 348 881 350 l 831 330 q 789 353 806 348 l 789 357 q 795 412 795 385 q 793 425 795 416 q 826 437 793 433 q 847 446 841 446 m 119 437 q 123 434 123 437 l 123 427 q 154 319 145 319 q 163 312 159 319 l 163 310 q 156 288 161 288 l 152 288 q 118 298 118 296 q 85 420 118 323 q 83 422 83 420 l 83 429 q 119 437 89 429 m 625 435 l 625 429 q 661 401 645 401 q 663 408 663 404 l 663 420 q 625 435 645 435 m 429 431 l 429 429 q 439 372 433 372 q 462 367 460 367 l 460 378 l 460 396 q 434 429 460 429 q 429 431 433 429 m 928 432 q 954 404 954 416 l 954 397 l 955 397 q 977 422 975 422 l 979 422 q 991 393 991 404 l 991 391 q 970 368 972 368 q 962 391 966 368 l 959 391 q 945 351 952 391 q 974 334 945 345 l 974 330 q 955 312 974 328 l 954 312 q 905 336 951 312 q 919 396 919 368 q 905 408 919 404 q 928 432 905 416 m 829 423 l 829 422 q 826 367 826 402 q 848 357 842 357 q 855 403 855 394 l 855 406 q 829 423 848 416 m 314 397 q 322 360 319 360 q 348 357 338 357 q 338 413 339 413 l 328 415 l 326 415 q 314 397 322 415 m 197 415 q 238 408 224 408 l 241 410 q 250 404 250 408 l 250 393 q 269 342 253 342 q 274 339 274 342 q 262 315 274 330 l 260 315 q 230 332 230 321 l 228 332 q 204 301 208 301 q 170 336 170 308 q 166 349 166 347 q 185 360 179 360 l 185 361 q 166 377 185 363 q 197 415 189 415 m 1019 412 q 1048 391 1029 412 l 1048 387 q 1031 327 1031 345 q 1043 319 1041 319 q 1067 368 1058 319 q 1070 380 1070 368 l 1070 393 l 1072 396 q 1110 382 1110 388 q 1070 260 1094 354 l 1067 258 l 1040 258 q 1036 264 1036 258 q 1051 313 1043 274 l 1050 313 l 1024 294 q 991 322 991 318 q 1010 380 1002 336 l 1003 393 l 1003 394 q 1019 412 1003 408 m 635 403 q 633 396 633 400 l 633 389 q 642 372 633 376 l 648 372 q 661 391 661 382 q 635 403 644 403 m 178 384 q 219 358 183 370 l 221 358 l 222 361 q 200 386 222 386 q 186 387 188 387 l 178 384 m 197 358 l 197 351 q 214 327 197 327 q 226 349 226 341 q 197 358 220 353 m 355 322 q 415 282 385 322 q 420 277 418 282 q 412 255 420 267 q 398 258 406 258 q 422 222 422 235 q 391 195 422 199 l 381 195 q 340 219 356 195 q 321 243 321 233 l 321 258 q 326 262 321 262 q 347 255 331 258 l 347 256 q 321 296 321 279 q 355 322 321 317 m 566 320 l 591 320 q 637 277 602 320 l 663 197 l 659 195 l 633 195 q 608 210 619 210 q 601 195 604 195 l 574 195 q 536 233 571 195 q 566 320 562 320 m 665 320 l 671 319 l 684 320 q 725 281 688 320 l 725 252 q 726 212 725 235 q 725 195 725 206 l 697 195 q 661 236 661 227 l 661 294 l 659 315 q 665 320 662 315 m 742 320 q 758 319 748 320 q 764 320 760 320 q 793 296 770 320 l 793 315 q 807 320 793 319 l 807 319 l 811 320 q 812 319 812 320 l 816 320 q 857 279 822 320 l 857 198 q 854 195 857 195 l 823 195 l 799 217 l 799 198 q 795 195 799 195 l 773 195 q 735 234 735 230 l 735 313 q 742 320 735 316 m 326 293 q 359 264 326 276 l 360 260 l 360 255 q 348 250 359 250 q 326 255 342 250 l 326 241 q 350 234 326 237 q 379 256 379 239 l 379 264 q 353 286 379 277 q 345 294 345 293 q 350 301 347 301 l 357 301 q 374 298 360 301 q 378 312 378 302 q 355 317 368 315 q 326 293 326 314 m 433 319 l 465 319 q 524 272 484 319 q 532 252 532 264 q 494 220 532 224 l 494 198 q 491 195 494 195 l 471 195 q 441 220 462 195 q 429 233 439 220 l 429 315 q 433 319 429 319 m 434 313 l 433 293 l 433 239 q 436 236 433 236 l 453 236 l 453 258 q 477 265 453 261 q 489 284 489 274 l 489 291 q 465 313 489 313 l 434 313 m 566 313 l 543 236 l 563 236 q 570 252 566 252 l 593 252 q 600 236 597 252 l 620 236 l 620 238 q 596 313 596 310 l 566 313 m 665 313 l 665 236 l 684 236 l 684 313 l 665 313 m 741 313 l 741 236 l 758 236 l 758 269 l 755 290 l 759 291 q 790 236 788 237 l 816 236 l 816 313 l 799 313 l 799 260 l 797 260 q 768 313 794 260 l 741 313 m 582 301 q 591 269 585 296 q 587 265 591 265 l 575 265 q 572 269 572 265 q 582 301 578 301 m 458 300 q 471 293 471 297 l 471 290 q 458 277 471 277 l 456 277 q 453 281 453 277 l 453 296 q 458 300 453 300 m 116 182 l 1079 182 q 1103 162 1103 180 l 1103 52 q 1079 31 1103 34 l 116 31 q 92 52 92 34 l 92 162 q 116 182 92 180 m 135 143 l 135 104 l 130 97 l 135 90 l 135 75 q 156 54 135 72 l 173 54 l 182 60 l 183 60 l 192 54 l 209 54 q 230 75 212 54 l 230 90 l 235 97 l 230 104 l 230 143 l 209 143 l 209 81 q 205 78 209 78 l 195 78 q 192 81 192 78 l 192 90 l 199 98 q 192 105 196 98 l 192 143 l 173 143 l 173 105 l 166 97 q 173 90 169 97 l 173 81 q 170 78 173 78 l 159 78 q 156 81 156 78 l 156 143 l 135 143 m 248 127 l 248 105 q 241 97 248 104 l 248 88 l 248 64 q 264 54 254 54 l 288 54 q 305 79 305 54 l 305 90 l 311 97 l 305 104 l 305 117 q 285 143 305 143 l 267 143 q 248 127 248 143 m 324 127 l 324 105 l 317 97 l 324 88 l 324 69 q 340 54 326 54 l 363 54 q 381 79 381 54 l 381 90 l 386 97 l 381 104 l 381 114 q 363 143 381 143 l 343 143 q 324 127 324 143 m 401 143 l 401 105 l 396 98 l 401 92 l 401 57 q 405 54 402 54 l 443 54 q 460 83 460 54 l 460 92 l 465 98 l 460 105 l 460 116 q 439 143 460 143 l 401 143 m 481 127 l 481 111 q 474 100 481 100 l 474 98 q 481 90 481 91 l 481 69 q 496 54 483 54 l 520 54 q 537 75 537 54 l 537 85 l 517 85 q 511 73 517 73 l 505 73 q 500 78 503 73 l 500 90 l 507 98 l 500 107 l 500 119 q 510 124 501 124 l 511 124 q 517 112 517 124 l 537 112 l 537 117 q 517 143 537 143 l 500 143 q 481 127 481 143 m 551 143 l 551 105 l 545 97 q 551 90 547 97 l 551 73 q 570 54 551 54 l 593 54 q 608 69 608 56 l 608 90 l 614 98 q 608 105 612 98 l 608 143 l 589 143 l 589 78 q 584 73 589 75 l 575 73 q 572 76 572 73 l 572 143 l 551 143 m 622 143 l 622 124 l 639 124 q 642 121 642 123 l 642 105 l 637 98 l 637 97 l 642 90 l 642 54 l 663 54 l 663 90 l 668 97 l 663 104 l 663 121 q 667 124 663 124 l 684 124 l 684 143 l 622 143 m 689 143 l 689 124 l 707 124 q 711 121 711 123 l 711 105 l 704 97 q 711 85 711 94 l 711 54 l 730 54 l 730 90 l 736 98 q 730 105 734 98 l 730 121 q 733 124 730 124 l 751 124 l 751 143 l 689 143 m 764 143 l 764 105 l 758 97 q 764 90 760 97 l 764 54 l 819 54 l 819 73 l 787 73 q 783 76 783 73 l 783 85 q 787 88 784 88 l 809 88 l 809 109 l 787 109 q 783 112 783 109 l 783 121 q 787 124 784 124 l 819 124 l 819 143 l 764 143 m 835 143 l 835 105 l 828 97 q 835 90 831 97 l 835 54 l 854 54 l 854 79 l 857 79 q 869 54 869 56 l 892 54 l 892 56 l 878 83 q 890 98 890 88 l 890 127 q 871 143 890 143 l 835 143 m 948 143 l 948 105 q 941 97 948 104 q 948 90 944 97 l 948 54 l 1005 54 l 1005 73 l 970 73 q 967 76 967 73 l 967 85 q 970 88 968 88 l 993 88 l 993 109 l 970 109 q 967 112 967 109 l 967 121 q 970 124 968 124 l 1005 124 l 1005 143 l 948 143 m 1012 119 l 1012 117 q 1022 94 1018 111 q 1043 88 1028 88 l 1051 88 q 1055 85 1055 87 l 1055 76 q 1051 73 1055 73 l 1043 73 q 1038 83 1038 73 l 1019 83 l 1019 69 q 1038 54 1019 54 l 1057 54 q 1076 73 1076 54 q 1082 79 1078 73 q 1074 100 1076 79 q 1050 109 1067 109 l 1043 109 q 1038 114 1040 109 l 1038 117 q 1044 124 1038 120 l 1050 124 q 1057 112 1054 124 l 1060 114 l 1070 114 l 1074 112 l 1076 116 l 1076 126 q 1055 143 1076 143 l 1038 143 q 1017 121 1017 143 q 1012 119 1014 119 m 278 124 l 279 124 q 285 119 282 124 l 285 78 q 279 73 285 75 l 273 73 q 267 78 270 73 l 267 119 q 278 124 269 124 m 353 124 l 355 124 q 360 119 357 124 l 360 78 q 355 73 360 75 l 348 73 q 343 78 346 73 l 343 119 q 353 124 345 124 m 857 124 l 866 124 q 871 119 868 124 l 871 105 q 866 100 871 103 l 857 100 q 854 104 854 100 l 854 121 q 857 124 854 124 m 426 123 l 436 123 q 439 119 439 122 l 439 78 q 434 73 439 75 l 426 73 q 422 76 422 73 l 422 119 q 426 123 422 123 m 907 62 q 912 54 908 54 l 922 54 q 926 57 926 54 l 926 68 q 921 73 926 70 l 918 73 q 907 62 907 73 m 208 2 q 221 -3 221 -2 q 238 2 235 2 q 256 -8 250 2 l 254 -18 l 281 -77 q 309 -15 290 -66 q 326 2 311 2 q 341 -1 339 -1 q 362 2 353 2 q 374 -5 374 -1 l 374 -14 q 366 -28 366 -22 l 366 -66 q 385 -85 366 -77 l 386 -94 q 369 -111 386 -98 q 366 -121 366 -117 l 366 -149 q 372 -176 372 -175 q 366 -184 372 -179 l 355 -184 q 343 -180 343 -184 q 330 -184 337 -184 l 322 -184 q 311 -176 313 -184 l 311 -172 q 317 -149 317 -151 l 317 -113 l 305 -136 q 296 -139 305 -139 q 283 -137 290 -139 q 269 -139 276 -139 l 267 -139 q 248 -115 256 -139 l 247 -115 l 247 -151 q 254 -172 247 -153 l 254 -176 q 240 -184 252 -184 q 222 -182 232 -184 q 202 -184 214 -184 q 192 -172 192 -184 q 199 -151 192 -170 l 199 -110 q 178 -96 186 -106 q 197 -73 178 -88 l 197 -68 q 199 -28 197 -60 q 190 -8 190 -9 q 208 2 190 1 m 420 2 l 434 -3 q 452 2 448 2 q 469 -10 469 -1 q 467 -20 467 -19 l 494 -77 q 520 -17 502 -73 l 529 -1 q 539 2 529 2 q 555 -1 552 -1 q 574 2 567 2 q 587 -6 583 2 l 587 -14 l 578 -24 l 578 -66 q 597 -85 578 -77 q 600 -92 597 -90 q 582 -111 600 -98 q 578 -121 578 -117 l 578 -153 q 585 -175 585 -173 q 574 -184 583 -184 l 568 -184 q 556 -180 556 -184 q 543 -184 550 -184 l 536 -184 q 524 -176 526 -184 l 524 -173 q 529 -153 524 -169 l 529 -115 l 527 -115 q 510 -139 524 -139 q 496 -137 503 -139 q 482 -139 490 -139 l 481 -139 q 463 -117 467 -139 l 460 -115 l 460 -153 q 467 -168 460 -159 l 467 -176 q 453 -184 465 -184 q 436 -182 445 -184 q 415 -184 427 -184 l 412 -184 q 405 -176 409 -184 l 405 -166 q 412 -151 412 -157 q 410 -144 412 -147 q 412 -125 412 -132 l 412 -110 q 391 -96 404 -110 q 410 -73 391 -87 l 410 -58 q 412 -31 410 -48 q 404 -12 407 -16 l 404 -6 q 420 2 408 2 m 623 2 q 639 -3 636 -3 l 651 2 q 670 -8 662 2 l 668 -17 q 682 -44 679 -44 q 696 -3 694 -20 l 707 2 q 725 -3 711 2 q 742 2 739 2 q 755 -6 755 -3 l 755 -14 q 718 -77 718 -65 q 732 -94 732 -87 q 722 -108 732 -99 q 759 -170 737 -146 l 759 -176 q 744 -185 754 -185 l 728 -184 q 709 -185 716 -185 q 696 -176 701 -185 l 696 -175 q 697 -168 696 -171 q 680 -137 684 -137 l 678 -137 q 667 -159 678 -141 l 665 -166 l 667 -176 q 651 -185 660 -182 q 633 -184 649 -185 q 614 -185 618 -185 q 603 -178 603 -183 l 603 -172 q 641 -106 641 -119 q 630 -92 635 -104 q 646 -79 638 -79 q 604 -12 618 -26 l 604 -8 q 623 2 608 2 m 780 2 l 799 -3 q 811 2 807 2 q 828 -15 828 2 q 838 -43 828 -20 l 840 -43 l 854 -18 l 852 -10 l 852 -8 q 866 2 859 2 q 883 -3 883 -1 q 902 2 899 2 q 916 -12 916 -1 q 876 -77 897 -35 q 892 -91 891 -87 l 892 -96 q 880 -110 880 -107 q 919 -172 904 -154 l 919 -176 q 903 -185 919 -181 q 890 -184 899 -185 q 866 -185 876 -185 q 854 -159 855 -185 q 840 -137 842 -137 l 838 -137 q 825 -165 825 -161 l 825 -176 q 807 -185 825 -182 q 793 -184 795 -184 l 773 -185 q 763 -178 763 -182 l 763 -175 q 789 -132 763 -172 q 800 -106 800 -111 q 790 -91 790 -100 q 804 -80 797 -80 l 804 -79 q 764 -14 785 -35 l 764 -6 q 780 2 764 -2 m 977 2 q 993 -12 993 0 q 986 -33 986 -23 l 986 -54 q 985 -70 986 -61 q 1003 -91 985 -73 l 1003 -92 q 988 -110 1003 -102 l 985 -123 q 986 -147 986 -138 l 986 -155 q 993 -176 993 -174 q 977 -184 986 -184 q 960 -180 960 -184 q 947 -184 954 -184 l 941 -184 q 929 -172 929 -184 q 938 -149 938 -153 l 938 -134 q 921 -92 938 -110 l 921 -91 q 937 -68 937 -77 l 937 -31 q 929 -10 929 -12 l 929 -6 q 947 1 929 -1 q 960 -3 960 0 l 977 2 z "},"_":{"ha":1186,"x_min":61,"x_max":1134,"o":"m 64 1118 l 1131 1118 q 1134 1115 1134 1118 l 1134 -237 q 1131 -240 1134 -240 l 64 -240 q 61 -237 61 -240 l 61 1115 q 64 1118 62 1118 m 77 1097 l 77 -220 l 1118 -220 l 1118 1097 l 77 1097 m 761 1074 l 778 1074 q 787 1056 783 1074 l 789 1056 l 797 1058 q 816 1051 810 1057 q 828 1058 816 1058 l 828 1056 l 831 1058 l 844 1056 l 844 1061 q 859 1074 844 1074 l 874 1074 q 883 1056 879 1074 l 893 1058 q 911 1051 911 1056 l 911 1008 q 902 1000 911 1006 l 881 1000 l 881 903 q 878 878 881 878 q 881 855 880 876 q 876 848 879 848 l 873 848 q 867 878 867 848 l 866 878 q 861 867 866 867 q 855 878 855 869 l 855 889 l 852 889 l 852 863 q 854 838 852 855 l 850 836 l 847 836 q 844 840 844 836 l 844 848 q 845 867 844 861 l 842 934 q 844 965 844 947 l 844 1000 l 823 1000 q 814 1008 822 1000 q 806 1000 814 1006 l 785 1000 l 785 955 q 787 948 785 951 l 785 945 q 787 903 787 920 q 783 879 787 896 q 785 852 785 861 l 780 848 l 778 848 q 771 878 771 848 l 770 878 q 766 867 770 867 q 759 889 761 867 l 758 889 l 755 879 q 758 838 758 840 q 752 834 753 834 q 747 842 750 834 q 749 863 747 852 q 747 922 747 897 q 745 932 747 930 q 747 948 747 942 l 747 1000 l 728 1000 q 718 1015 718 1006 l 718 1046 q 733 1058 718 1058 l 735 1058 l 747 1056 q 761 1074 747 1074 m 684 1070 l 707 1070 q 715 1058 715 1067 l 715 1041 q 716 1010 715 1026 l 715 1001 q 716 977 716 987 q 715 972 716 975 l 716 962 l 716 953 q 715 941 716 943 q 716 926 716 932 l 716 920 q 706 886 716 886 q 694 874 703 886 l 687 874 l 687 869 q 685 863 687 863 l 687 855 l 687 842 q 682 836 687 839 l 680 836 q 675 846 675 838 l 675 860 q 670 881 675 879 q 659 878 664 878 q 654 884 655 878 l 652 884 l 652 863 q 648 859 652 861 q 644 862 644 859 l 646 879 q 644 897 644 888 q 630 888 637 888 q 620 922 620 897 q 622 987 622 964 l 622 1046 q 630 1063 622 1059 l 644 1063 q 661 1042 661 1063 l 661 926 q 665 922 662 922 l 671 922 q 677 936 677 923 l 677 1058 q 684 1070 677 1067 m 149 1068 l 151 1068 q 174 1053 174 1068 q 182 1003 182 1010 l 183 1003 q 202 1061 188 1061 q 212 1060 203 1061 q 222 1061 221 1061 q 230 1056 230 1059 q 204 889 208 928 l 200 888 l 199 888 l 192 893 q 185 889 188 889 l 185 871 q 180 865 185 868 q 171 908 175 865 q 159 951 163 908 l 157 951 q 147 882 154 899 q 144 878 147 878 l 142 878 q 138 881 138 878 l 138 901 q 135 922 138 910 l 134 922 q 121 891 126 891 l 119 891 q 109 941 113 891 q 89 1061 100 970 l 94 1065 l 118 1065 q 135 1008 126 1065 l 137 1008 q 149 1068 142 1068 m 460 1068 q 511 1039 504 1068 q 513 1020 513 1027 l 513 955 q 511 878 513 930 l 508 876 l 503 879 l 505 897 l 505 907 q 496 895 499 907 l 498 884 l 498 876 q 492 871 498 873 l 491 871 q 488 874 488 871 l 488 895 q 484 898 488 898 q 479 893 484 896 l 475 893 l 467 898 l 463 893 l 463 876 q 458 871 463 873 l 456 871 q 452 878 455 871 l 453 886 q 452 900 452 898 l 443 898 l 439 905 q 441 924 441 917 l 441 926 q 437 922 437 925 l 437 911 q 439 878 437 897 q 433 862 437 862 q 427 867 430 862 q 426 943 426 926 q 427 958 426 949 q 426 968 426 967 q 427 1053 427 1017 l 427 1055 q 453 1068 427 1068 l 460 1068 m 274 1067 l 285 1067 q 319 1032 304 1067 q 321 977 319 1010 q 319 937 321 969 q 321 897 321 907 q 319 857 319 869 l 315 855 q 309 888 311 855 q 300 907 300 895 l 298 907 q 292 889 298 889 l 288 891 q 281 889 285 889 q 276 900 276 896 q 271 878 271 900 l 273 871 q 267 862 271 862 l 264 869 l 266 886 q 260 900 264 900 q 252 872 256 895 l 248 871 q 241 897 245 871 q 233 913 237 897 l 233 1010 q 274 1067 233 1067 m 367 1067 l 381 1067 q 415 1032 401 1067 q 417 1012 415 1017 q 415 1010 417 1010 l 417 989 l 417 876 q 415 869 417 872 q 417 862 417 866 q 412 855 414 855 q 405 889 407 855 q 398 905 398 892 l 396 905 q 388 889 396 890 l 385 891 q 378 889 381 889 q 370 900 374 900 q 367 882 367 885 q 369 869 369 873 q 363 862 366 862 q 360 869 362 869 l 362 881 l 362 886 q 357 900 362 899 q 348 872 352 895 l 345 872 q 336 900 342 872 q 330 916 330 907 l 330 1000 q 367 1067 330 1067 m 578 1065 q 611 1025 611 1052 l 611 984 q 596 977 609 977 q 577 982 577 977 l 577 1003 l 575 1012 l 565 1012 q 559 967 559 1012 l 559 926 l 562 917 l 572 917 q 578 941 576 917 l 584 945 l 597 945 q 611 939 610 945 l 611 922 q 606 907 611 919 q 608 876 608 883 l 604 874 q 597 889 600 874 l 594 888 q 591 891 591 888 l 591 911 l 589 911 q 582 881 584 899 l 581 881 q 574 898 576 881 l 565 900 l 562 895 l 562 879 q 551 871 562 876 l 549 871 l 545 874 q 546 900 546 891 l 546 905 q 536 916 536 905 l 534 916 l 532 907 l 532 881 q 529 878 532 878 q 526 881 526 878 q 524 949 526 899 q 526 1029 526 1004 q 556 1065 526 1049 l 578 1065 m 922 1065 l 998 1065 q 1005 1058 1001 1065 l 1005 1022 q 991 1008 1005 1008 l 955 1008 l 955 970 l 979 970 q 986 964 982 970 l 986 939 q 974 927 986 927 l 955 927 l 955 913 l 959 916 q 1002 913 987 913 q 1007 901 1007 907 l 1007 884 q 1003 881 1007 881 l 1002 881 q 996 886 999 881 l 996 895 l 993 895 l 986 882 l 985 882 q 979 889 980 882 l 977 889 q 972 876 977 876 l 969 876 q 962 898 964 876 l 960 898 q 950 869 955 869 l 947 869 q 931 879 939 878 q 929 891 929 886 l 928 891 q 921 881 928 884 q 916 886 920 881 q 918 911 918 903 l 918 919 q 916 932 918 930 q 918 951 918 944 l 918 1051 q 922 1065 918 1064 m 1022 1065 l 1070 1065 q 1103 1017 1103 1057 l 1103 960 q 1093 924 1103 947 q 1107 893 1107 898 l 1107 888 l 1101 869 q 1103 855 1101 867 q 1095 848 1102 855 q 1089 853 1092 848 l 1089 878 l 1086 878 l 1084 869 q 1086 846 1086 848 q 1081 840 1083 840 q 1074 846 1079 840 l 1076 859 l 1076 862 q 1057 916 1076 880 l 1051 916 l 1051 900 q 1048 881 1048 883 l 1050 865 q 1044 857 1048 857 l 1043 857 q 1038 865 1039 857 q 1040 888 1040 880 l 1036 889 q 1033 886 1036 886 l 1031 886 q 1027 893 1027 886 l 1025 893 q 1024 881 1025 883 q 1027 853 1025 881 q 1022 846 1025 846 l 1019 846 q 1014 857 1015 846 q 1017 888 1014 861 q 1014 898 1016 898 q 1015 962 1015 941 l 1015 1044 q 1022 1065 1015 1065 m 267 1010 l 267 929 l 269 920 l 279 920 q 285 930 285 922 l 285 996 q 276 1015 285 1015 l 273 1015 q 267 1010 270 1015 m 363 1004 l 363 996 q 366 960 363 977 q 363 929 363 950 q 369 920 365 920 l 376 920 q 381 926 378 920 l 381 1004 q 376 1015 381 1014 l 374 1015 q 363 1004 363 1015 m 463 1015 q 462 1010 463 1013 l 463 1006 l 462 1003 q 463 998 463 1000 l 462 994 q 463 987 463 991 l 462 984 q 463 982 462 982 l 462 974 l 462 920 l 463 911 q 471 913 467 913 l 471 998 l 472 1015 l 463 1015 m 1051 1012 l 1051 956 l 1053 956 l 1062 958 l 1062 1008 q 1059 1012 1062 1012 l 1051 1012 m 352 860 q 424 812 401 860 q 441 731 441 789 q 439 718 439 724 q 448 712 448 716 l 448 705 q 443 682 443 690 q 456 666 445 682 l 456 661 l 453 661 l 453 652 q 458 623 453 644 q 453 621 455 621 q 460 601 453 621 l 456 599 l 455 599 l 452 601 q 444 563 452 593 l 439 563 q 434 580 439 580 q 431 557 431 564 l 431 553 l 426 553 q 422 557 426 557 l 420 557 q 408 537 420 539 q 401 518 407 518 l 395 523 q 391 492 391 499 l 389 492 q 381 503 381 497 q 372 487 378 500 l 369 487 q 363 500 369 500 q 355 486 359 486 q 350 494 350 491 l 348 494 l 343 484 l 338 484 q 333 496 336 496 q 324 484 328 485 q 317 492 321 492 l 311 487 l 309 487 q 296 503 306 487 q 293 497 296 497 l 290 497 q 283 527 283 524 l 276 518 q 269 553 271 518 l 267 553 l 267 549 l 262 549 l 256 587 l 247 580 q 243 583 243 580 q 247 602 247 598 q 243 628 247 609 l 237 625 q 235 627 237 627 q 237 652 237 644 l 237 664 q 248 688 237 667 l 248 693 q 243 718 243 709 q 252 730 243 719 l 252 747 q 296 840 252 800 q 352 860 316 855 m 260 752 l 260 726 q 267 718 267 718 q 264 667 267 707 q 267 664 267 667 l 267 652 l 273 652 l 273 638 l 274 638 q 278 645 274 645 q 281 642 281 645 l 281 627 q 285 619 285 622 l 288 619 q 309 652 288 641 q 312 649 312 652 q 302 633 312 647 l 302 631 q 312 635 307 635 l 317 635 l 315 644 l 315 654 q 321 659 315 656 q 324 656 324 659 q 322 650 322 652 q 326 642 326 645 l 330 644 l 333 644 q 347 635 340 635 l 348 635 l 359 644 l 360 644 l 369 642 l 370 650 l 370 652 l 369 652 q 363 650 366 650 l 362 654 q 367 656 366 656 l 367 657 l 362 666 l 366 667 q 378 647 378 661 l 378 644 l 376 640 l 382 638 l 382 647 q 386 650 383 650 q 410 616 388 641 l 412 616 l 412 625 q 415 628 412 628 l 418 627 l 418 631 l 417 644 q 418 645 418 644 l 422 644 l 426 644 q 429 675 426 666 l 426 707 q 434 731 434 709 q 385 846 434 818 l 382 846 q 369 826 378 845 q 376 821 376 825 l 376 819 l 333 759 q 331 764 331 762 q 348 808 348 804 q 333 817 333 812 l 348 852 l 347 852 q 274 804 310 852 q 260 752 260 770 m 214 834 l 216 831 q 214 753 214 779 l 208 749 q 195 802 205 749 q 190 805 191 805 l 149 805 l 147 788 l 147 685 l 185 685 q 199 724 193 685 l 202 724 q 208 719 205 724 l 208 678 q 205 676 208 676 l 208 673 l 208 619 q 200 612 208 616 q 190 652 197 615 l 186 654 q 147 656 155 656 l 147 580 q 161 535 147 535 q 173 528 170 535 l 173 518 q 170 513 173 517 l 152 515 l 111 515 l 99 513 q 96 527 96 519 q 115 541 96 530 q 118 576 118 549 l 118 767 q 109 810 118 810 q 96 824 96 812 l 96 829 l 97 833 q 149 831 132 831 l 185 831 q 214 834 200 831 m 703 824 q 881 819 720 824 l 883 815 q 881 755 883 795 q 880 753 880 755 q 850 755 859 755 l 831 755 q 825 506 825 550 q 823 500 823 503 q 825 499 825 500 l 821 497 q 742 499 773 499 l 739 500 l 741 505 q 747 759 741 543 l 701 759 q 697 764 697 759 l 699 823 l 703 824 m 678 812 q 689 795 687 812 q 687 764 687 774 l 685 764 q 689 753 689 758 l 689 734 q 663 715 689 721 l 663 712 l 667 712 q 689 701 689 712 q 692 637 690 686 l 690 619 l 694 578 q 689 556 692 556 l 675 556 l 616 602 q 548 663 600 621 l 549 645 l 549 623 q 548 621 549 621 q 551 602 551 614 l 551 575 q 536 553 551 565 q 503 557 503 553 l 491 556 l 484 556 q 479 583 479 556 l 479 627 q 477 650 479 636 l 479 654 q 477 669 477 663 l 477 680 q 479 695 477 689 q 477 709 477 705 q 475 808 475 786 l 479 810 l 489 810 q 549 762 500 810 l 549 745 l 545 738 q 553 736 547 736 q 559 743 553 739 l 568 743 q 613 711 576 743 l 616 709 l 616 749 q 614 802 616 770 q 665 812 614 812 l 678 812 m 955 781 q 1072 760 1072 770 q 1098 721 1098 744 l 1098 718 q 1089 666 1098 691 q 1021 678 1025 676 q 1022 704 1021 682 q 979 714 1022 710 q 966 682 968 714 q 1031 664 966 667 q 1081 612 1081 648 l 1081 611 q 1078 585 1081 600 l 1095 561 l 1095 559 q 1069 532 1069 543 q 1014 492 1053 492 q 905 515 905 502 q 883 556 892 515 q 886 601 886 579 q 892 602 890 602 q 957 595 945 599 q 954 573 955 577 q 995 559 954 562 q 1007 597 1007 559 q 933 611 1007 603 q 893 657 893 629 l 893 685 l 873 707 q 900 745 900 723 q 955 781 918 781 m 281 774 l 283 774 l 283 772 q 285 752 283 770 q 279 745 282 745 l 276 747 l 278 755 l 278 771 q 281 774 278 774 m 422 766 l 424 762 l 424 760 q 422 745 424 754 q 424 740 424 742 l 420 738 q 417 741 417 738 l 417 743 q 422 766 417 766 m 292 749 l 302 749 q 326 740 307 745 l 326 736 q 293 743 314 736 q 288 747 288 743 l 292 749 m 396 741 q 407 736 407 740 q 381 728 400 736 l 379 731 q 396 741 389 741 m 286 736 l 288 736 q 322 721 294 736 l 322 715 l 314 715 l 314 714 q 324 705 319 714 l 324 704 q 322 702 324 702 l 324 699 q 302 688 317 688 l 300 688 q 278 705 278 690 q 293 718 278 718 l 293 719 l 288 719 q 271 714 279 714 l 269 714 l 269 721 q 286 736 269 734 m 340 734 q 345 723 345 728 l 345 721 q 340 715 345 718 l 338 719 l 340 723 q 336 733 336 730 l 340 734 m 350 734 q 353 712 353 725 l 350 711 q 347 724 347 717 l 347 731 q 350 734 347 734 m 415 733 l 427 719 l 427 718 q 424 714 427 714 l 420 714 q 417 718 417 714 q 398 714 414 718 l 398 712 q 414 701 414 708 q 391 683 408 683 q 385 688 385 686 l 386 692 q 367 701 367 694 l 367 702 q 376 709 371 709 l 372 714 l 372 715 q 415 733 372 724 m 254 721 q 257 718 254 718 l 259 718 l 259 721 l 254 721 m 324 715 q 334 709 334 712 q 330 701 332 701 q 326 704 326 701 l 328 707 q 321 711 323 711 l 321 712 q 324 715 321 715 m 252 711 l 256 690 l 259 690 l 257 699 l 257 712 l 256 712 l 252 711 m 286 709 q 293 702 286 706 l 295 702 l 293 705 l 293 709 l 295 712 l 290 712 q 286 709 286 712 m 311 711 l 311 701 q 319 704 316 704 q 311 711 318 707 m 436 711 l 436 707 q 441 709 439 709 l 441 711 l 436 711 m 396 707 q 398 702 398 704 q 396 697 396 699 q 405 704 404 700 q 396 707 399 707 m 374 701 l 378 699 l 381 699 l 381 705 q 374 701 374 703 m 436 702 l 436 697 l 437 697 l 437 702 l 436 702 m 355 699 q 370 669 363 696 q 369 667 369 669 q 353 682 353 667 l 355 699 m 338 697 l 340 693 l 340 683 q 341 659 340 673 q 334 649 338 649 l 331 650 q 333 657 333 656 l 331 675 q 338 697 334 697 m 321 693 l 324 693 l 328 692 q 330 693 328 693 l 331 690 l 331 683 q 322 673 325 673 q 321 678 321 676 q 326 688 326 686 l 326 690 l 324 690 q 302 675 324 677 l 295 675 q 278 686 286 675 l 278 688 q 281 692 278 692 q 296 682 287 682 l 305 682 q 321 693 321 684 m 369 693 q 395 680 381 680 q 417 688 408 680 l 418 685 q 395 671 418 675 q 366 692 376 671 l 369 693 m 353 601 l 350 602 q 331 601 338 601 l 326 601 q 322 597 322 600 q 340 593 338 593 l 370 602 l 370 604 l 367 604 q 353 601 362 604 m 386 604 q 374 580 386 594 q 381 571 377 572 q 393 593 387 571 l 393 599 q 386 604 393 602 m 302 589 q 315 563 302 569 q 322 576 320 563 l 322 578 q 314 595 314 578 l 314 599 q 302 589 305 599 m 300 477 q 312 412 304 477 q 338 444 331 441 q 374 429 372 433 l 372 404 q 381 360 372 396 l 381 358 q 340 329 374 348 q 285 339 285 335 l 288 360 q 264 470 276 448 l 269 473 l 281 473 q 300 477 283 473 m 733 477 l 768 477 q 771 471 771 477 q 766 451 766 456 l 766 446 l 780 446 q 783 442 783 446 l 783 441 q 777 427 783 427 l 764 429 q 763 423 763 425 q 761 374 761 400 q 774 363 774 366 q 758 341 767 348 q 720 367 720 363 q 730 432 730 386 q 720 437 720 432 l 720 441 q 725 451 721 451 q 730 449 728 449 q 732 454 732 452 q 730 475 730 472 l 733 477 m 574 461 l 575 461 q 593 434 593 441 q 577 408 581 410 l 575 408 q 565 427 572 408 l 559 427 q 555 408 556 408 q 565 378 555 378 q 589 370 589 376 q 574 348 578 349 l 572 348 l 522 360 q 520 365 520 363 l 526 384 q 508 432 526 432 q 507 434 507 432 q 520 460 508 446 q 555 432 555 450 l 556 432 q 574 461 570 460 m 649 460 q 697 441 678 444 l 699 437 q 692 387 692 408 q 706 368 692 378 l 706 367 q 687 346 693 346 q 661 372 661 359 l 659 372 q 630 348 632 348 q 603 377 603 361 q 614 408 603 408 q 625 410 624 410 l 625 413 l 611 429 l 611 431 q 649 460 640 460 m 437 454 l 439 454 q 489 441 465 446 q 491 439 489 439 q 489 420 489 427 q 494 365 489 386 q 452 339 472 355 q 404 353 425 349 l 401 357 q 404 368 401 361 q 393 425 401 397 l 393 427 q 426 444 395 431 q 437 454 426 447 m 847 446 q 893 420 858 437 l 893 416 q 880 353 887 416 q 881 348 881 350 l 831 330 q 789 353 806 348 l 789 357 q 795 412 795 385 q 793 425 795 416 q 826 437 793 433 q 847 446 841 446 m 119 437 q 123 434 123 437 l 123 427 q 154 319 145 319 q 163 312 159 319 l 163 310 q 156 288 161 288 l 152 288 q 118 298 118 296 q 85 420 118 323 q 83 422 83 420 l 83 429 q 119 437 89 429 m 625 435 l 625 429 q 661 401 645 401 q 663 408 663 404 l 663 420 q 625 435 645 435 m 429 431 l 429 429 q 439 372 433 372 q 462 367 460 367 l 460 378 l 460 396 q 434 429 460 429 q 429 431 433 429 m 928 432 q 954 404 954 416 l 954 397 l 955 397 q 977 422 975 422 l 979 422 q 991 393 991 404 l 991 391 q 970 368 972 368 q 962 391 966 368 l 959 391 q 945 351 952 391 q 974 334 945 345 l 974 330 q 955 312 974 328 l 954 312 q 905 336 951 312 q 919 396 919 368 q 905 408 919 404 q 928 432 905 416 m 829 423 l 829 422 q 826 367 826 402 q 848 357 842 357 q 855 403 855 394 l 855 406 q 829 423 848 416 m 314 397 q 322 360 319 360 q 348 357 338 357 q 338 413 339 413 l 328 415 l 326 415 q 314 397 322 415 m 197 415 q 238 408 224 408 l 241 410 q 250 404 250 408 l 250 393 q 269 342 253 342 q 274 339 274 342 q 262 315 274 330 l 260 315 q 230 332 230 321 l 228 332 q 204 301 208 301 q 170 336 170 308 q 166 349 166 347 q 185 360 179 360 l 185 361 q 166 377 185 363 q 197 415 189 415 m 1019 412 q 1048 391 1029 412 l 1048 387 q 1031 327 1031 345 q 1043 319 1041 319 q 1067 368 1058 319 q 1070 380 1070 368 l 1070 393 l 1072 396 q 1110 382 1110 388 q 1070 260 1094 354 l 1067 258 l 1040 258 q 1036 264 1036 258 q 1051 313 1043 274 l 1050 313 l 1024 294 q 991 322 991 318 q 1010 380 1002 336 l 1003 393 l 1003 394 q 1019 412 1003 408 m 635 403 q 633 396 633 400 l 633 389 q 642 372 633 376 l 648 372 q 661 391 661 382 q 635 403 644 403 m 178 384 q 219 358 183 370 l 221 358 l 222 361 q 200 386 222 386 q 186 387 188 387 l 178 384 m 197 358 l 197 351 q 214 327 197 327 q 226 349 226 341 q 197 358 220 353 m 355 322 q 415 282 385 322 q 420 277 418 282 q 412 255 420 267 q 398 258 406 258 q 422 222 422 235 q 391 195 422 199 l 381 195 q 340 219 356 195 q 321 243 321 233 l 321 258 q 326 262 321 262 q 347 255 331 258 l 347 256 q 321 296 321 279 q 355 322 321 317 m 566 320 l 591 320 q 637 277 602 320 l 663 197 l 659 195 l 633 195 q 608 210 619 210 q 601 195 604 195 l 574 195 q 536 233 571 195 q 566 320 562 320 m 665 320 l 671 319 l 684 320 q 725 281 688 320 l 725 252 q 726 212 725 235 q 725 195 725 206 l 697 195 q 661 236 661 227 l 661 294 l 659 315 q 665 320 662 315 m 742 320 q 758 319 748 320 q 764 320 760 320 q 793 296 770 320 l 793 315 q 807 320 793 319 l 807 319 l 811 320 q 812 319 812 320 l 816 320 q 857 279 822 320 l 857 198 q 854 195 857 195 l 823 195 l 799 217 l 799 198 q 795 195 799 195 l 773 195 q 735 234 735 230 l 735 313 q 742 320 735 316 m 326 293 q 359 264 326 276 l 360 260 l 360 255 q 348 250 359 250 q 326 255 342 250 l 326 241 q 350 234 326 237 q 379 256 379 239 l 379 264 q 353 286 379 277 q 345 294 345 293 q 350 301 347 301 l 357 301 q 374 298 360 301 q 378 312 378 302 q 355 317 368 315 q 326 293 326 314 m 433 319 l 465 319 q 524 272 484 319 q 532 252 532 264 q 494 220 532 224 l 494 198 q 491 195 494 195 l 471 195 q 441 220 462 195 q 429 233 439 220 l 429 315 q 433 319 429 319 m 434 313 l 433 293 l 433 239 q 436 236 433 236 l 453 236 l 453 258 q 477 265 453 261 q 489 284 489 274 l 489 291 q 465 313 489 313 l 434 313 m 566 313 l 543 236 l 563 236 q 570 252 566 252 l 593 252 q 600 236 597 252 l 620 236 l 620 238 q 596 313 596 310 l 566 313 m 665 313 l 665 236 l 684 236 l 684 313 l 665 313 m 741 313 l 741 236 l 758 236 l 758 269 l 755 290 l 759 291 q 790 236 788 237 l 816 236 l 816 313 l 799 313 l 799 260 l 797 260 q 768 313 794 260 l 741 313 m 582 301 q 591 269 585 296 q 587 265 591 265 l 575 265 q 572 269 572 265 q 582 301 578 301 m 458 300 q 471 293 471 297 l 471 290 q 458 277 471 277 l 456 277 q 453 281 453 277 l 453 296 q 458 300 453 300 m 116 182 l 1079 182 q 1103 162 1103 180 l 1103 52 q 1079 31 1103 34 l 116 31 q 92 52 92 34 l 92 162 q 116 182 92 180 m 135 143 l 135 104 l 130 97 l 135 90 l 135 75 q 156 54 135 72 l 173 54 l 182 60 l 183 60 l 192 54 l 209 54 q 230 75 212 54 l 230 90 l 235 97 l 230 104 l 230 143 l 209 143 l 209 81 q 205 78 209 78 l 195 78 q 192 81 192 78 l 192 90 l 199 98 q 192 105 196 98 l 192 143 l 173 143 l 173 105 l 166 97 q 173 90 169 97 l 173 81 q 170 78 173 78 l 159 78 q 156 81 156 78 l 156 143 l 135 143 m 248 127 l 248 105 q 241 97 248 104 l 248 88 l 248 64 q 264 54 254 54 l 288 54 q 305 79 305 54 l 305 90 l 311 97 l 305 104 l 305 117 q 285 143 305 143 l 267 143 q 248 127 248 143 m 324 127 l 324 105 l 317 97 l 324 88 l 324 69 q 340 54 326 54 l 363 54 q 381 79 381 54 l 381 90 l 386 97 l 381 104 l 381 114 q 363 143 381 143 l 343 143 q 324 127 324 143 m 401 143 l 401 105 l 396 98 l 401 92 l 401 57 q 405 54 402 54 l 443 54 q 460 83 460 54 l 460 92 l 465 98 l 460 105 l 460 116 q 439 143 460 143 l 401 143 m 481 127 l 481 111 q 474 100 481 100 l 474 98 q 481 90 481 91 l 481 69 q 496 54 483 54 l 520 54 q 537 75 537 54 l 537 85 l 517 85 q 511 73 517 73 l 505 73 q 500 78 503 73 l 500 90 l 507 98 l 500 107 l 500 119 q 510 124 501 124 l 511 124 q 517 112 517 124 l 537 112 l 537 117 q 517 143 537 143 l 500 143 q 481 127 481 143 m 551 143 l 551 105 l 545 97 q 551 90 547 97 l 551 73 q 570 54 551 54 l 593 54 q 608 69 608 56 l 608 90 l 614 98 q 608 105 612 98 l 608 143 l 589 143 l 589 78 q 584 73 589 75 l 575 73 q 572 76 572 73 l 572 143 l 551 143 m 622 143 l 622 124 l 639 124 q 642 121 642 123 l 642 105 l 637 98 l 637 97 l 642 90 l 642 54 l 663 54 l 663 90 l 668 97 l 663 104 l 663 121 q 667 124 663 124 l 684 124 l 684 143 l 622 143 m 689 143 l 689 124 l 707 124 q 711 121 711 123 l 711 105 l 704 97 q 711 85 711 94 l 711 54 l 730 54 l 730 90 l 736 98 q 730 105 734 98 l 730 121 q 733 124 730 124 l 751 124 l 751 143 l 689 143 m 764 143 l 764 105 l 758 97 q 764 90 760 97 l 764 54 l 819 54 l 819 73 l 787 73 q 783 76 783 73 l 783 85 q 787 88 784 88 l 809 88 l 809 109 l 787 109 q 783 112 783 109 l 783 121 q 787 124 784 124 l 819 124 l 819 143 l 764 143 m 835 143 l 835 105 l 828 97 q 835 90 831 97 l 835 54 l 854 54 l 854 79 l 857 79 q 869 54 869 56 l 892 54 l 892 56 l 878 83 q 890 98 890 88 l 890 127 q 871 143 890 143 l 835 143 m 948 143 l 948 105 q 941 97 948 104 q 948 90 944 97 l 948 54 l 1005 54 l 1005 73 l 970 73 q 967 76 967 73 l 967 85 q 970 88 968 88 l 993 88 l 993 109 l 970 109 q 967 112 967 109 l 967 121 q 970 124 968 124 l 1005 124 l 1005 143 l 948 143 m 1012 119 l 1012 117 q 1022 94 1018 111 q 1043 88 1028 88 l 1051 88 q 1055 85 1055 87 l 1055 76 q 1051 73 1055 73 l 1043 73 q 1038 83 1038 73 l 1019 83 l 1019 69 q 1038 54 1019 54 l 1057 54 q 1076 73 1076 54 q 1082 79 1078 73 q 1074 100 1076 79 q 1050 109 1067 109 l 1043 109 q 1038 114 1040 109 l 1038 117 q 1044 124 1038 120 l 1050 124 q 1057 112 1054 124 l 1060 114 l 1070 114 l 1074 112 l 1076 116 l 1076 126 q 1055 143 1076 143 l 1038 143 q 1017 121 1017 143 q 1012 119 1014 119 m 278 124 l 279 124 q 285 119 282 124 l 285 78 q 279 73 285 75 l 273 73 q 267 78 270 73 l 267 119 q 278 124 269 124 m 353 124 l 355 124 q 360 119 357 124 l 360 78 q 355 73 360 75 l 348 73 q 343 78 346 73 l 343 119 q 353 124 345 124 m 857 124 l 866 124 q 871 119 868 124 l 871 105 q 866 100 871 103 l 857 100 q 854 104 854 100 l 854 121 q 857 124 854 124 m 426 123 l 436 123 q 439 119 439 122 l 439 78 q 434 73 439 75 l 426 73 q 422 76 422 73 l 422 119 q 426 123 422 123 m 907 62 q 912 54 908 54 l 922 54 q 926 57 926 54 l 926 68 q 921 73 926 70 l 918 73 q 907 62 907 73 m 208 2 q 221 -3 221 -2 q 238 2 235 2 q 256 -8 250 2 l 254 -18 l 281 -77 q 309 -15 290 -66 q 326 2 311 2 q 341 -1 339 -1 q 362 2 353 2 q 374 -5 374 -1 l 374 -14 q 366 -28 366 -22 l 366 -66 q 385 -85 366 -77 l 386 -94 q 369 -111 386 -98 q 366 -121 366 -117 l 366 -149 q 372 -176 372 -175 q 366 -184 372 -179 l 355 -184 q 343 -180 343 -184 q 330 -184 337 -184 l 322 -184 q 311 -176 313 -184 l 311 -172 q 317 -149 317 -151 l 317 -113 l 305 -136 q 296 -139 305 -139 q 283 -137 290 -139 q 269 -139 276 -139 l 267 -139 q 248 -115 256 -139 l 247 -115 l 247 -151 q 254 -172 247 -153 l 254 -176 q 240 -184 252 -184 q 222 -182 232 -184 q 202 -184 214 -184 q 192 -172 192 -184 q 199 -151 192 -170 l 199 -110 q 178 -96 186 -106 q 197 -73 178 -88 l 197 -68 q 199 -28 197 -60 q 190 -8 190 -9 q 208 2 190 1 m 420 2 l 434 -3 q 452 2 448 2 q 469 -10 469 -1 q 467 -20 467 -19 l 494 -77 q 520 -17 502 -73 l 529 -1 q 539 2 529 2 q 555 -1 552 -1 q 574 2 567 2 q 587 -6 583 2 l 587 -14 l 578 -24 l 578 -66 q 597 -85 578 -77 q 600 -92 597 -90 q 582 -111 600 -98 q 578 -121 578 -117 l 578 -153 q 585 -175 585 -173 q 574 -184 583 -184 l 568 -184 q 556 -180 556 -184 q 543 -184 550 -184 l 536 -184 q 524 -176 526 -184 l 524 -173 q 529 -153 524 -169 l 529 -115 l 527 -115 q 510 -139 524 -139 q 496 -137 503 -139 q 482 -139 490 -139 l 481 -139 q 463 -117 467 -139 l 460 -115 l 460 -153 q 467 -168 460 -159 l 467 -176 q 453 -184 465 -184 q 436 -182 445 -184 q 415 -184 427 -184 l 412 -184 q 405 -176 409 -184 l 405 -166 q 412 -151 412 -157 q 410 -144 412 -147 q 412 -125 412 -132 l 412 -110 q 391 -96 404 -110 q 410 -73 391 -87 l 410 -58 q 412 -31 410 -48 q 404 -12 407 -16 l 404 -6 q 420 2 408 2 m 623 2 q 639 -3 636 -3 l 651 2 q 670 -8 662 2 l 668 -17 q 682 -44 679 -44 q 696 -3 694 -20 l 707 2 q 725 -3 711 2 q 742 2 739 2 q 755 -6 755 -3 l 755 -14 q 718 -77 718 -65 q 732 -94 732 -87 q 722 -108 732 -99 q 759 -170 737 -146 l 759 -176 q 744 -185 754 -185 l 728 -184 q 709 -185 716 -185 q 696 -176 701 -185 l 696 -175 q 697 -168 696 -171 q 680 -137 684 -137 l 678 -137 q 667 -159 678 -141 l 665 -166 l 667 -176 q 651 -185 660 -182 q 633 -184 649 -185 q 614 -185 618 -185 q 603 -178 603 -183 l 603 -172 q 641 -106 641 -119 q 630 -92 635 -104 q 646 -79 638 -79 q 604 -12 618 -26 l 604 -8 q 623 2 608 2 m 780 2 l 799 -3 q 811 2 807 2 q 828 -15 828 2 q 838 -43 828 -20 l 840 -43 l 854 -18 l 852 -10 l 852 -8 q 866 2 859 2 q 883 -3 883 -1 q 902 2 899 2 q 916 -12 916 -1 q 876 -77 897 -35 q 892 -91 891 -87 l 892 -96 q 880 -110 880 -107 q 919 -172 904 -154 l 919 -176 q 903 -185 919 -181 q 890 -184 899 -185 q 866 -185 876 -185 q 854 -159 855 -185 q 840 -137 842 -137 l 838 -137 q 825 -165 825 -161 l 825 -176 q 807 -185 825 -182 q 793 -184 795 -184 l 773 -185 q 763 -178 763 -182 l 763 -175 q 789 -132 763 -172 q 800 -106 800 -111 q 790 -91 790 -100 q 804 -80 797 -80 l 804 -79 q 764 -14 785 -35 l 764 -6 q 780 2 764 -2 m 977 2 q 993 -12 993 0 q 986 -33 986 -23 l 986 -54 q 985 -70 986 -61 q 1003 -91 985 -73 l 1003 -92 q 988 -110 1003 -102 l 985 -123 q 986 -147 986 -138 l 986 -155 q 993 -176 993 -174 q 977 -184 986 -184 q 960 -180 960 -184 q 947 -184 954 -184 l 941 -184 q 929 -172 929 -184 q 938 -149 938 -153 l 938 -134 q 921 -92 938 -110 l 921 -91 q 937 -68 937 -77 l 937 -31 q 929 -10 929 -12 l 929 -6 q 947 1 929 -1 q 960 -3 960 0 l 977 2 z "},"`":{"ha":1186,"x_min":61,"x_max":1134,"o":"m 64 1118 l 1131 1118 q 1134 1115 1134 1118 l 1134 -237 q 1131 -240 1134 -240 l 64 -240 q 61 -237 61 -240 l 61 1115 q 64 1118 62 1118 m 77 1097 l 77 -220 l 1118 -220 l 1118 1097 l 77 1097 m 761 1074 l 778 1074 q 787 1056 783 1074 l 789 1056 l 797 1058 q 816 1051 810 1057 q 828 1058 816 1058 l 828 1056 l 831 1058 l 844 1056 l 844 1061 q 859 1074 844 1074 l 874 1074 q 883 1056 879 1074 l 893 1058 q 911 1051 911 1056 l 911 1008 q 902 1000 911 1006 l 881 1000 l 881 903 q 878 878 881 878 q 881 855 880 876 q 876 848 879 848 l 873 848 q 867 878 867 848 l 866 878 q 861 867 866 867 q 855 878 855 869 l 855 889 l 852 889 l 852 863 q 854 838 852 855 l 850 836 l 847 836 q 844 840 844 836 l 844 848 q 845 867 844 861 l 842 934 q 844 965 844 947 l 844 1000 l 823 1000 q 814 1008 822 1000 q 806 1000 814 1006 l 785 1000 l 785 955 q 787 948 785 951 l 785 945 q 787 903 787 920 q 783 879 787 896 q 785 852 785 861 l 780 848 l 778 848 q 771 878 771 848 l 770 878 q 766 867 770 867 q 759 889 761 867 l 758 889 l 755 879 q 758 838 758 840 q 752 834 753 834 q 747 842 750 834 q 749 863 747 852 q 747 922 747 897 q 745 932 747 930 q 747 948 747 942 l 747 1000 l 728 1000 q 718 1015 718 1006 l 718 1046 q 733 1058 718 1058 l 735 1058 l 747 1056 q 761 1074 747 1074 m 684 1070 l 707 1070 q 715 1058 715 1067 l 715 1041 q 716 1010 715 1026 l 715 1001 q 716 977 716 987 q 715 972 716 975 l 716 962 l 716 953 q 715 941 716 943 q 716 926 716 932 l 716 920 q 706 886 716 886 q 694 874 703 886 l 687 874 l 687 869 q 685 863 687 863 l 687 855 l 687 842 q 682 836 687 839 l 680 836 q 675 846 675 838 l 675 860 q 670 881 675 879 q 659 878 664 878 q 654 884 655 878 l 652 884 l 652 863 q 648 859 652 861 q 644 862 644 859 l 646 879 q 644 897 644 888 q 630 888 637 888 q 620 922 620 897 q 622 987 622 964 l 622 1046 q 630 1063 622 1059 l 644 1063 q 661 1042 661 1063 l 661 926 q 665 922 662 922 l 671 922 q 677 936 677 923 l 677 1058 q 684 1070 677 1067 m 149 1068 l 151 1068 q 174 1053 174 1068 q 182 1003 182 1010 l 183 1003 q 202 1061 188 1061 q 212 1060 203 1061 q 222 1061 221 1061 q 230 1056 230 1059 q 204 889 208 928 l 200 888 l 199 888 l 192 893 q 185 889 188 889 l 185 871 q 180 865 185 868 q 171 908 175 865 q 159 951 163 908 l 157 951 q 147 882 154 899 q 144 878 147 878 l 142 878 q 138 881 138 878 l 138 901 q 135 922 138 910 l 134 922 q 121 891 126 891 l 119 891 q 109 941 113 891 q 89 1061 100 970 l 94 1065 l 118 1065 q 135 1008 126 1065 l 137 1008 q 149 1068 142 1068 m 460 1068 q 511 1039 504 1068 q 513 1020 513 1027 l 513 955 q 511 878 513 930 l 508 876 l 503 879 l 505 897 l 505 907 q 496 895 499 907 l 498 884 l 498 876 q 492 871 498 873 l 491 871 q 488 874 488 871 l 488 895 q 484 898 488 898 q 479 893 484 896 l 475 893 l 467 898 l 463 893 l 463 876 q 458 871 463 873 l 456 871 q 452 878 455 871 l 453 886 q 452 900 452 898 l 443 898 l 439 905 q 441 924 441 917 l 441 926 q 437 922 437 925 l 437 911 q 439 878 437 897 q 433 862 437 862 q 427 867 430 862 q 426 943 426 926 q 427 958 426 949 q 426 968 426 967 q 427 1053 427 1017 l 427 1055 q 453 1068 427 1068 l 460 1068 m 274 1067 l 285 1067 q 319 1032 304 1067 q 321 977 319 1010 q 319 937 321 969 q 321 897 321 907 q 319 857 319 869 l 315 855 q 309 888 311 855 q 300 907 300 895 l 298 907 q 292 889 298 889 l 288 891 q 281 889 285 889 q 276 900 276 896 q 271 878 271 900 l 273 871 q 267 862 271 862 l 264 869 l 266 886 q 260 900 264 900 q 252 872 256 895 l 248 871 q 241 897 245 871 q 233 913 237 897 l 233 1010 q 274 1067 233 1067 m 367 1067 l 381 1067 q 415 1032 401 1067 q 417 1012 415 1017 q 415 1010 417 1010 l 417 989 l 417 876 q 415 869 417 872 q 417 862 417 866 q 412 855 414 855 q 405 889 407 855 q 398 905 398 892 l 396 905 q 388 889 396 890 l 385 891 q 378 889 381 889 q 370 900 374 900 q 367 882 367 885 q 369 869 369 873 q 363 862 366 862 q 360 869 362 869 l 362 881 l 362 886 q 357 900 362 899 q 348 872 352 895 l 345 872 q 336 900 342 872 q 330 916 330 907 l 330 1000 q 367 1067 330 1067 m 578 1065 q 611 1025 611 1052 l 611 984 q 596 977 609 977 q 577 982 577 977 l 577 1003 l 575 1012 l 565 1012 q 559 967 559 1012 l 559 926 l 562 917 l 572 917 q 578 941 576 917 l 584 945 l 597 945 q 611 939 610 945 l 611 922 q 606 907 611 919 q 608 876 608 883 l 604 874 q 597 889 600 874 l 594 888 q 591 891 591 888 l 591 911 l 589 911 q 582 881 584 899 l 581 881 q 574 898 576 881 l 565 900 l 562 895 l 562 879 q 551 871 562 876 l 549 871 l 545 874 q 546 900 546 891 l 546 905 q 536 916 536 905 l 534 916 l 532 907 l 532 881 q 529 878 532 878 q 526 881 526 878 q 524 949 526 899 q 526 1029 526 1004 q 556 1065 526 1049 l 578 1065 m 922 1065 l 998 1065 q 1005 1058 1001 1065 l 1005 1022 q 991 1008 1005 1008 l 955 1008 l 955 970 l 979 970 q 986 964 982 970 l 986 939 q 974 927 986 927 l 955 927 l 955 913 l 959 916 q 1002 913 987 913 q 1007 901 1007 907 l 1007 884 q 1003 881 1007 881 l 1002 881 q 996 886 999 881 l 996 895 l 993 895 l 986 882 l 985 882 q 979 889 980 882 l 977 889 q 972 876 977 876 l 969 876 q 962 898 964 876 l 960 898 q 950 869 955 869 l 947 869 q 931 879 939 878 q 929 891 929 886 l 928 891 q 921 881 928 884 q 916 886 920 881 q 918 911 918 903 l 918 919 q 916 932 918 930 q 918 951 918 944 l 918 1051 q 922 1065 918 1064 m 1022 1065 l 1070 1065 q 1103 1017 1103 1057 l 1103 960 q 1093 924 1103 947 q 1107 893 1107 898 l 1107 888 l 1101 869 q 1103 855 1101 867 q 1095 848 1102 855 q 1089 853 1092 848 l 1089 878 l 1086 878 l 1084 869 q 1086 846 1086 848 q 1081 840 1083 840 q 1074 846 1079 840 l 1076 859 l 1076 862 q 1057 916 1076 880 l 1051 916 l 1051 900 q 1048 881 1048 883 l 1050 865 q 1044 857 1048 857 l 1043 857 q 1038 865 1039 857 q 1040 888 1040 880 l 1036 889 q 1033 886 1036 886 l 1031 886 q 1027 893 1027 886 l 1025 893 q 1024 881 1025 883 q 1027 853 1025 881 q 1022 846 1025 846 l 1019 846 q 1014 857 1015 846 q 1017 888 1014 861 q 1014 898 1016 898 q 1015 962 1015 941 l 1015 1044 q 1022 1065 1015 1065 m 267 1010 l 267 929 l 269 920 l 279 920 q 285 930 285 922 l 285 996 q 276 1015 285 1015 l 273 1015 q 267 1010 270 1015 m 363 1004 l 363 996 q 366 960 363 977 q 363 929 363 950 q 369 920 365 920 l 376 920 q 381 926 378 920 l 381 1004 q 376 1015 381 1014 l 374 1015 q 363 1004 363 1015 m 463 1015 q 462 1010 463 1013 l 463 1006 l 462 1003 q 463 998 463 1000 l 462 994 q 463 987 463 991 l 462 984 q 463 982 462 982 l 462 974 l 462 920 l 463 911 q 471 913 467 913 l 471 998 l 472 1015 l 463 1015 m 1051 1012 l 1051 956 l 1053 956 l 1062 958 l 1062 1008 q 1059 1012 1062 1012 l 1051 1012 m 352 860 q 424 812 401 860 q 441 731 441 789 q 439 718 439 724 q 448 712 448 716 l 448 705 q 443 682 443 690 q 456 666 445 682 l 456 661 l 453 661 l 453 652 q 458 623 453 644 q 453 621 455 621 q 460 601 453 621 l 456 599 l 455 599 l 452 601 q 444 563 452 593 l 439 563 q 434 580 439 580 q 431 557 431 564 l 431 553 l 426 553 q 422 557 426 557 l 420 557 q 408 537 420 539 q 401 518 407 518 l 395 523 q 391 492 391 499 l 389 492 q 381 503 381 497 q 372 487 378 500 l 369 487 q 363 500 369 500 q 355 486 359 486 q 350 494 350 491 l 348 494 l 343 484 l 338 484 q 333 496 336 496 q 324 484 328 485 q 317 492 321 492 l 311 487 l 309 487 q 296 503 306 487 q 293 497 296 497 l 290 497 q 283 527 283 524 l 276 518 q 269 553 271 518 l 267 553 l 267 549 l 262 549 l 256 587 l 247 580 q 243 583 243 580 q 247 602 247 598 q 243 628 247 609 l 237 625 q 235 627 237 627 q 237 652 237 644 l 237 664 q 248 688 237 667 l 248 693 q 243 718 243 709 q 252 730 243 719 l 252 747 q 296 840 252 800 q 352 860 316 855 m 260 752 l 260 726 q 267 718 267 718 q 264 667 267 707 q 267 664 267 667 l 267 652 l 273 652 l 273 638 l 274 638 q 278 645 274 645 q 281 642 281 645 l 281 627 q 285 619 285 622 l 288 619 q 309 652 288 641 q 312 649 312 652 q 302 633 312 647 l 302 631 q 312 635 307 635 l 317 635 l 315 644 l 315 654 q 321 659 315 656 q 324 656 324 659 q 322 650 322 652 q 326 642 326 645 l 330 644 l 333 644 q 347 635 340 635 l 348 635 l 359 644 l 360 644 l 369 642 l 370 650 l 370 652 l 369 652 q 363 650 366 650 l 362 654 q 367 656 366 656 l 367 657 l 362 666 l 366 667 q 378 647 378 661 l 378 644 l 376 640 l 382 638 l 382 647 q 386 650 383 650 q 410 616 388 641 l 412 616 l 412 625 q 415 628 412 628 l 418 627 l 418 631 l 417 644 q 418 645 418 644 l 422 644 l 426 644 q 429 675 426 666 l 426 707 q 434 731 434 709 q 385 846 434 818 l 382 846 q 369 826 378 845 q 376 821 376 825 l 376 819 l 333 759 q 331 764 331 762 q 348 808 348 804 q 333 817 333 812 l 348 852 l 347 852 q 274 804 310 852 q 260 752 260 770 m 214 834 l 216 831 q 214 753 214 779 l 208 749 q 195 802 205 749 q 190 805 191 805 l 149 805 l 147 788 l 147 685 l 185 685 q 199 724 193 685 l 202 724 q 208 719 205 724 l 208 678 q 205 676 208 676 l 208 673 l 208 619 q 200 612 208 616 q 190 652 197 615 l 186 654 q 147 656 155 656 l 147 580 q 161 535 147 535 q 173 528 170 535 l 173 518 q 170 513 173 517 l 152 515 l 111 515 l 99 513 q 96 527 96 519 q 115 541 96 530 q 118 576 118 549 l 118 767 q 109 810 118 810 q 96 824 96 812 l 96 829 l 97 833 q 149 831 132 831 l 185 831 q 214 834 200 831 m 703 824 q 881 819 720 824 l 883 815 q 881 755 883 795 q 880 753 880 755 q 850 755 859 755 l 831 755 q 825 506 825 550 q 823 500 823 503 q 825 499 825 500 l 821 497 q 742 499 773 499 l 739 500 l 741 505 q 747 759 741 543 l 701 759 q 697 764 697 759 l 699 823 l 703 824 m 678 812 q 689 795 687 812 q 687 764 687 774 l 685 764 q 689 753 689 758 l 689 734 q 663 715 689 721 l 663 712 l 667 712 q 689 701 689 712 q 692 637 690 686 l 690 619 l 694 578 q 689 556 692 556 l 675 556 l 616 602 q 548 663 600 621 l 549 645 l 549 623 q 548 621 549 621 q 551 602 551 614 l 551 575 q 536 553 551 565 q 503 557 503 553 l 491 556 l 484 556 q 479 583 479 556 l 479 627 q 477 650 479 636 l 479 654 q 477 669 477 663 l 477 680 q 479 695 477 689 q 477 709 477 705 q 475 808 475 786 l 479 810 l 489 810 q 549 762 500 810 l 549 745 l 545 738 q 553 736 547 736 q 559 743 553 739 l 568 743 q 613 711 576 743 l 616 709 l 616 749 q 614 802 616 770 q 665 812 614 812 l 678 812 m 955 781 q 1072 760 1072 770 q 1098 721 1098 744 l 1098 718 q 1089 666 1098 691 q 1021 678 1025 676 q 1022 704 1021 682 q 979 714 1022 710 q 966 682 968 714 q 1031 664 966 667 q 1081 612 1081 648 l 1081 611 q 1078 585 1081 600 l 1095 561 l 1095 559 q 1069 532 1069 543 q 1014 492 1053 492 q 905 515 905 502 q 883 556 892 515 q 886 601 886 579 q 892 602 890 602 q 957 595 945 599 q 954 573 955 577 q 995 559 954 562 q 1007 597 1007 559 q 933 611 1007 603 q 893 657 893 629 l 893 685 l 873 707 q 900 745 900 723 q 955 781 918 781 m 281 774 l 283 774 l 283 772 q 285 752 283 770 q 279 745 282 745 l 276 747 l 278 755 l 278 771 q 281 774 278 774 m 422 766 l 424 762 l 424 760 q 422 745 424 754 q 424 740 424 742 l 420 738 q 417 741 417 738 l 417 743 q 422 766 417 766 m 292 749 l 302 749 q 326 740 307 745 l 326 736 q 293 743 314 736 q 288 747 288 743 l 292 749 m 396 741 q 407 736 407 740 q 381 728 400 736 l 379 731 q 396 741 389 741 m 286 736 l 288 736 q 322 721 294 736 l 322 715 l 314 715 l 314 714 q 324 705 319 714 l 324 704 q 322 702 324 702 l 324 699 q 302 688 317 688 l 300 688 q 278 705 278 690 q 293 718 278 718 l 293 719 l 288 719 q 271 714 279 714 l 269 714 l 269 721 q 286 736 269 734 m 340 734 q 345 723 345 728 l 345 721 q 340 715 345 718 l 338 719 l 340 723 q 336 733 336 730 l 340 734 m 350 734 q 353 712 353 725 l 350 711 q 347 724 347 717 l 347 731 q 350 734 347 734 m 415 733 l 427 719 l 427 718 q 424 714 427 714 l 420 714 q 417 718 417 714 q 398 714 414 718 l 398 712 q 414 701 414 708 q 391 683 408 683 q 385 688 385 686 l 386 692 q 367 701 367 694 l 367 702 q 376 709 371 709 l 372 714 l 372 715 q 415 733 372 724 m 254 721 q 257 718 254 718 l 259 718 l 259 721 l 254 721 m 324 715 q 334 709 334 712 q 330 701 332 701 q 326 704 326 701 l 328 707 q 321 711 323 711 l 321 712 q 324 715 321 715 m 252 711 l 256 690 l 259 690 l 257 699 l 257 712 l 256 712 l 252 711 m 286 709 q 293 702 286 706 l 295 702 l 293 705 l 293 709 l 295 712 l 290 712 q 286 709 286 712 m 311 711 l 311 701 q 319 704 316 704 q 311 711 318 707 m 436 711 l 436 707 q 441 709 439 709 l 441 711 l 436 711 m 396 707 q 398 702 398 704 q 396 697 396 699 q 405 704 404 700 q 396 707 399 707 m 374 701 l 378 699 l 381 699 l 381 705 q 374 701 374 703 m 436 702 l 436 697 l 437 697 l 437 702 l 436 702 m 355 699 q 370 669 363 696 q 369 667 369 669 q 353 682 353 667 l 355 699 m 338 697 l 340 693 l 340 683 q 341 659 340 673 q 334 649 338 649 l 331 650 q 333 657 333 656 l 331 675 q 338 697 334 697 m 321 693 l 324 693 l 328 692 q 330 693 328 693 l 331 690 l 331 683 q 322 673 325 673 q 321 678 321 676 q 326 688 326 686 l 326 690 l 324 690 q 302 675 324 677 l 295 675 q 278 686 286 675 l 278 688 q 281 692 278 692 q 296 682 287 682 l 305 682 q 321 693 321 684 m 369 693 q 395 680 381 680 q 417 688 408 680 l 418 685 q 395 671 418 675 q 366 692 376 671 l 369 693 m 353 601 l 350 602 q 331 601 338 601 l 326 601 q 322 597 322 600 q 340 593 338 593 l 370 602 l 370 604 l 367 604 q 353 601 362 604 m 386 604 q 374 580 386 594 q 381 571 377 572 q 393 593 387 571 l 393 599 q 386 604 393 602 m 302 589 q 315 563 302 569 q 322 576 320 563 l 322 578 q 314 595 314 578 l 314 599 q 302 589 305 599 m 300 477 q 312 412 304 477 q 338 444 331 441 q 374 429 372 433 l 372 404 q 381 360 372 396 l 381 358 q 340 329 374 348 q 285 339 285 335 l 288 360 q 264 470 276 448 l 269 473 l 281 473 q 300 477 283 473 m 733 477 l 768 477 q 771 471 771 477 q 766 451 766 456 l 766 446 l 780 446 q 783 442 783 446 l 783 441 q 777 427 783 427 l 764 429 q 763 423 763 425 q 761 374 761 400 q 774 363 774 366 q 758 341 767 348 q 720 367 720 363 q 730 432 730 386 q 720 437 720 432 l 720 441 q 725 451 721 451 q 730 449 728 449 q 732 454 732 452 q 730 475 730 472 l 733 477 m 574 461 l 575 461 q 593 434 593 441 q 577 408 581 410 l 575 408 q 565 427 572 408 l 559 427 q 555 408 556 408 q 565 378 555 378 q 589 370 589 376 q 574 348 578 349 l 572 348 l 522 360 q 520 365 520 363 l 526 384 q 508 432 526 432 q 507 434 507 432 q 520 460 508 446 q 555 432 555 450 l 556 432 q 574 461 570 460 m 649 460 q 697 441 678 444 l 699 437 q 692 387 692 408 q 706 368 692 378 l 706 367 q 687 346 693 346 q 661 372 661 359 l 659 372 q 630 348 632 348 q 603 377 603 361 q 614 408 603 408 q 625 410 624 410 l 625 413 l 611 429 l 611 431 q 649 460 640 460 m 437 454 l 439 454 q 489 441 465 446 q 491 439 489 439 q 489 420 489 427 q 494 365 489 386 q 452 339 472 355 q 404 353 425 349 l 401 357 q 404 368 401 361 q 393 425 401 397 l 393 427 q 426 444 395 431 q 437 454 426 447 m 847 446 q 893 420 858 437 l 893 416 q 880 353 887 416 q 881 348 881 350 l 831 330 q 789 353 806 348 l 789 357 q 795 412 795 385 q 793 425 795 416 q 826 437 793 433 q 847 446 841 446 m 119 437 q 123 434 123 437 l 123 427 q 154 319 145 319 q 163 312 159 319 l 163 310 q 156 288 161 288 l 152 288 q 118 298 118 296 q 85 420 118 323 q 83 422 83 420 l 83 429 q 119 437 89 429 m 625 435 l 625 429 q 661 401 645 401 q 663 408 663 404 l 663 420 q 625 435 645 435 m 429 431 l 429 429 q 439 372 433 372 q 462 367 460 367 l 460 378 l 460 396 q 434 429 460 429 q 429 431 433 429 m 928 432 q 954 404 954 416 l 954 397 l 955 397 q 977 422 975 422 l 979 422 q 991 393 991 404 l 991 391 q 970 368 972 368 q 962 391 966 368 l 959 391 q 945 351 952 391 q 974 334 945 345 l 974 330 q 955 312 974 328 l 954 312 q 905 336 951 312 q 919 396 919 368 q 905 408 919 404 q 928 432 905 416 m 829 423 l 829 422 q 826 367 826 402 q 848 357 842 357 q 855 403 855 394 l 855 406 q 829 423 848 416 m 314 397 q 322 360 319 360 q 348 357 338 357 q 338 413 339 413 l 328 415 l 326 415 q 314 397 322 415 m 197 415 q 238 408 224 408 l 241 410 q 250 404 250 408 l 250 393 q 269 342 253 342 q 274 339 274 342 q 262 315 274 330 l 260 315 q 230 332 230 321 l 228 332 q 204 301 208 301 q 170 336 170 308 q 166 349 166 347 q 185 360 179 360 l 185 361 q 166 377 185 363 q 197 415 189 415 m 1019 412 q 1048 391 1029 412 l 1048 387 q 1031 327 1031 345 q 1043 319 1041 319 q 1067 368 1058 319 q 1070 380 1070 368 l 1070 393 l 1072 396 q 1110 382 1110 388 q 1070 260 1094 354 l 1067 258 l 1040 258 q 1036 264 1036 258 q 1051 313 1043 274 l 1050 313 l 1024 294 q 991 322 991 318 q 1010 380 1002 336 l 1003 393 l 1003 394 q 1019 412 1003 408 m 635 403 q 633 396 633 400 l 633 389 q 642 372 633 376 l 648 372 q 661 391 661 382 q 635 403 644 403 m 178 384 q 219 358 183 370 l 221 358 l 222 361 q 200 386 222 386 q 186 387 188 387 l 178 384 m 197 358 l 197 351 q 214 327 197 327 q 226 349 226 341 q 197 358 220 353 m 355 322 q 415 282 385 322 q 420 277 418 282 q 412 255 420 267 q 398 258 406 258 q 422 222 422 235 q 391 195 422 199 l 381 195 q 340 219 356 195 q 321 243 321 233 l 321 258 q 326 262 321 262 q 347 255 331 258 l 347 256 q 321 296 321 279 q 355 322 321 317 m 566 320 l 591 320 q 637 277 602 320 l 663 197 l 659 195 l 633 195 q 608 210 619 210 q 601 195 604 195 l 574 195 q 536 233 571 195 q 566 320 562 320 m 665 320 l 671 319 l 684 320 q 725 281 688 320 l 725 252 q 726 212 725 235 q 725 195 725 206 l 697 195 q 661 236 661 227 l 661 294 l 659 315 q 665 320 662 315 m 742 320 q 758 319 748 320 q 764 320 760 320 q 793 296 770 320 l 793 315 q 807 320 793 319 l 807 319 l 811 320 q 812 319 812 320 l 816 320 q 857 279 822 320 l 857 198 q 854 195 857 195 l 823 195 l 799 217 l 799 198 q 795 195 799 195 l 773 195 q 735 234 735 230 l 735 313 q 742 320 735 316 m 326 293 q 359 264 326 276 l 360 260 l 360 255 q 348 250 359 250 q 326 255 342 250 l 326 241 q 350 234 326 237 q 379 256 379 239 l 379 264 q 353 286 379 277 q 345 294 345 293 q 350 301 347 301 l 357 301 q 374 298 360 301 q 378 312 378 302 q 355 317 368 315 q 326 293 326 314 m 433 319 l 465 319 q 524 272 484 319 q 532 252 532 264 q 494 220 532 224 l 494 198 q 491 195 494 195 l 471 195 q 441 220 462 195 q 429 233 439 220 l 429 315 q 433 319 429 319 m 434 313 l 433 293 l 433 239 q 436 236 433 236 l 453 236 l 453 258 q 477 265 453 261 q 489 284 489 274 l 489 291 q 465 313 489 313 l 434 313 m 566 313 l 543 236 l 563 236 q 570 252 566 252 l 593 252 q 600 236 597 252 l 620 236 l 620 238 q 596 313 596 310 l 566 313 m 665 313 l 665 236 l 684 236 l 684 313 l 665 313 m 741 313 l 741 236 l 758 236 l 758 269 l 755 290 l 759 291 q 790 236 788 237 l 816 236 l 816 313 l 799 313 l 799 260 l 797 260 q 768 313 794 260 l 741 313 m 582 301 q 591 269 585 296 q 587 265 591 265 l 575 265 q 572 269 572 265 q 582 301 578 301 m 458 300 q 471 293 471 297 l 471 290 q 458 277 471 277 l 456 277 q 453 281 453 277 l 453 296 q 458 300 453 300 m 116 182 l 1079 182 q 1103 162 1103 180 l 1103 52 q 1079 31 1103 34 l 116 31 q 92 52 92 34 l 92 162 q 116 182 92 180 m 135 143 l 135 104 l 130 97 l 135 90 l 135 75 q 156 54 135 72 l 173 54 l 182 60 l 183 60 l 192 54 l 209 54 q 230 75 212 54 l 230 90 l 235 97 l 230 104 l 230 143 l 209 143 l 209 81 q 205 78 209 78 l 195 78 q 192 81 192 78 l 192 90 l 199 98 q 192 105 196 98 l 192 143 l 173 143 l 173 105 l 166 97 q 173 90 169 97 l 173 81 q 170 78 173 78 l 159 78 q 156 81 156 78 l 156 143 l 135 143 m 248 127 l 248 105 q 241 97 248 104 l 248 88 l 248 64 q 264 54 254 54 l 288 54 q 305 79 305 54 l 305 90 l 311 97 l 305 104 l 305 117 q 285 143 305 143 l 267 143 q 248 127 248 143 m 324 127 l 324 105 l 317 97 l 324 88 l 324 69 q 340 54 326 54 l 363 54 q 381 79 381 54 l 381 90 l 386 97 l 381 104 l 381 114 q 363 143 381 143 l 343 143 q 324 127 324 143 m 401 143 l 401 105 l 396 98 l 401 92 l 401 57 q 405 54 402 54 l 443 54 q 460 83 460 54 l 460 92 l 465 98 l 460 105 l 460 116 q 439 143 460 143 l 401 143 m 481 127 l 481 111 q 474 100 481 100 l 474 98 q 481 90 481 91 l 481 69 q 496 54 483 54 l 520 54 q 537 75 537 54 l 537 85 l 517 85 q 511 73 517 73 l 505 73 q 500 78 503 73 l 500 90 l 507 98 l 500 107 l 500 119 q 510 124 501 124 l 511 124 q 517 112 517 124 l 537 112 l 537 117 q 517 143 537 143 l 500 143 q 481 127 481 143 m 551 143 l 551 105 l 545 97 q 551 90 547 97 l 551 73 q 570 54 551 54 l 593 54 q 608 69 608 56 l 608 90 l 614 98 q 608 105 612 98 l 608 143 l 589 143 l 589 78 q 584 73 589 75 l 575 73 q 572 76 572 73 l 572 143 l 551 143 m 622 143 l 622 124 l 639 124 q 642 121 642 123 l 642 105 l 637 98 l 637 97 l 642 90 l 642 54 l 663 54 l 663 90 l 668 97 l 663 104 l 663 121 q 667 124 663 124 l 684 124 l 684 143 l 622 143 m 689 143 l 689 124 l 707 124 q 711 121 711 123 l 711 105 l 704 97 q 711 85 711 94 l 711 54 l 730 54 l 730 90 l 736 98 q 730 105 734 98 l 730 121 q 733 124 730 124 l 751 124 l 751 143 l 689 143 m 764 143 l 764 105 l 758 97 q 764 90 760 97 l 764 54 l 819 54 l 819 73 l 787 73 q 783 76 783 73 l 783 85 q 787 88 784 88 l 809 88 l 809 109 l 787 109 q 783 112 783 109 l 783 121 q 787 124 784 124 l 819 124 l 819 143 l 764 143 m 835 143 l 835 105 l 828 97 q 835 90 831 97 l 835 54 l 854 54 l 854 79 l 857 79 q 869 54 869 56 l 892 54 l 892 56 l 878 83 q 890 98 890 88 l 890 127 q 871 143 890 143 l 835 143 m 948 143 l 948 105 q 941 97 948 104 q 948 90 944 97 l 948 54 l 1005 54 l 1005 73 l 970 73 q 967 76 967 73 l 967 85 q 970 88 968 88 l 993 88 l 993 109 l 970 109 q 967 112 967 109 l 967 121 q 970 124 968 124 l 1005 124 l 1005 143 l 948 143 m 1012 119 l 1012 117 q 1022 94 1018 111 q 1043 88 1028 88 l 1051 88 q 1055 85 1055 87 l 1055 76 q 1051 73 1055 73 l 1043 73 q 1038 83 1038 73 l 1019 83 l 1019 69 q 1038 54 1019 54 l 1057 54 q 1076 73 1076 54 q 1082 79 1078 73 q 1074 100 1076 79 q 1050 109 1067 109 l 1043 109 q 1038 114 1040 109 l 1038 117 q 1044 124 1038 120 l 1050 124 q 1057 112 1054 124 l 1060 114 l 1070 114 l 1074 112 l 1076 116 l 1076 126 q 1055 143 1076 143 l 1038 143 q 1017 121 1017 143 q 1012 119 1014 119 m 278 124 l 279 124 q 285 119 282 124 l 285 78 q 279 73 285 75 l 273 73 q 267 78 270 73 l 267 119 q 278 124 269 124 m 353 124 l 355 124 q 360 119 357 124 l 360 78 q 355 73 360 75 l 348 73 q 343 78 346 73 l 343 119 q 353 124 345 124 m 857 124 l 866 124 q 871 119 868 124 l 871 105 q 866 100 871 103 l 857 100 q 854 104 854 100 l 854 121 q 857 124 854 124 m 426 123 l 436 123 q 439 119 439 122 l 439 78 q 434 73 439 75 l 426 73 q 422 76 422 73 l 422 119 q 426 123 422 123 m 907 62 q 912 54 908 54 l 922 54 q 926 57 926 54 l 926 68 q 921 73 926 70 l 918 73 q 907 62 907 73 m 208 2 q 221 -3 221 -2 q 238 2 235 2 q 256 -8 250 2 l 254 -18 l 281 -77 q 309 -15 290 -66 q 326 2 311 2 q 341 -1 339 -1 q 362 2 353 2 q 374 -5 374 -1 l 374 -14 q 366 -28 366 -22 l 366 -66 q 385 -85 366 -77 l 386 -94 q 369 -111 386 -98 q 366 -121 366 -117 l 366 -149 q 372 -176 372 -175 q 366 -184 372 -179 l 355 -184 q 343 -180 343 -184 q 330 -184 337 -184 l 322 -184 q 311 -176 313 -184 l 311 -172 q 317 -149 317 -151 l 317 -113 l 305 -136 q 296 -139 305 -139 q 283 -137 290 -139 q 269 -139 276 -139 l 267 -139 q 248 -115 256 -139 l 247 -115 l 247 -151 q 254 -172 247 -153 l 254 -176 q 240 -184 252 -184 q 222 -182 232 -184 q 202 -184 214 -184 q 192 -172 192 -184 q 199 -151 192 -170 l 199 -110 q 178 -96 186 -106 q 197 -73 178 -88 l 197 -68 q 199 -28 197 -60 q 190 -8 190 -9 q 208 2 190 1 m 420 2 l 434 -3 q 452 2 448 2 q 469 -10 469 -1 q 467 -20 467 -19 l 494 -77 q 520 -17 502 -73 l 529 -1 q 539 2 529 2 q 555 -1 552 -1 q 574 2 567 2 q 587 -6 583 2 l 587 -14 l 578 -24 l 578 -66 q 597 -85 578 -77 q 600 -92 597 -90 q 582 -111 600 -98 q 578 -121 578 -117 l 578 -153 q 585 -175 585 -173 q 574 -184 583 -184 l 568 -184 q 556 -180 556 -184 q 543 -184 550 -184 l 536 -184 q 524 -176 526 -184 l 524 -173 q 529 -153 524 -169 l 529 -115 l 527 -115 q 510 -139 524 -139 q 496 -137 503 -139 q 482 -139 490 -139 l 481 -139 q 463 -117 467 -139 l 460 -115 l 460 -153 q 467 -168 460 -159 l 467 -176 q 453 -184 465 -184 q 436 -182 445 -184 q 415 -184 427 -184 l 412 -184 q 405 -176 409 -184 l 405 -166 q 412 -151 412 -157 q 410 -144 412 -147 q 412 -125 412 -132 l 412 -110 q 391 -96 404 -110 q 410 -73 391 -87 l 410 -58 q 412 -31 410 -48 q 404 -12 407 -16 l 404 -6 q 420 2 408 2 m 623 2 q 639 -3 636 -3 l 651 2 q 670 -8 662 2 l 668 -17 q 682 -44 679 -44 q 696 -3 694 -20 l 707 2 q 725 -3 711 2 q 742 2 739 2 q 755 -6 755 -3 l 755 -14 q 718 -77 718 -65 q 732 -94 732 -87 q 722 -108 732 -99 q 759 -170 737 -146 l 759 -176 q 744 -185 754 -185 l 728 -184 q 709 -185 716 -185 q 696 -176 701 -185 l 696 -175 q 697 -168 696 -171 q 680 -137 684 -137 l 678 -137 q 667 -159 678 -141 l 665 -166 l 667 -176 q 651 -185 660 -182 q 633 -184 649 -185 q 614 -185 618 -185 q 603 -178 603 -183 l 603 -172 q 641 -106 641 -119 q 630 -92 635 -104 q 646 -79 638 -79 q 604 -12 618 -26 l 604 -8 q 623 2 608 2 m 780 2 l 799 -3 q 811 2 807 2 q 828 -15 828 2 q 838 -43 828 -20 l 840 -43 l 854 -18 l 852 -10 l 852 -8 q 866 2 859 2 q 883 -3 883 -1 q 902 2 899 2 q 916 -12 916 -1 q 876 -77 897 -35 q 892 -91 891 -87 l 892 -96 q 880 -110 880 -107 q 919 -172 904 -154 l 919 -176 q 903 -185 919 -181 q 890 -184 899 -185 q 866 -185 876 -185 q 854 -159 855 -185 q 840 -137 842 -137 l 838 -137 q 825 -165 825 -161 l 825 -176 q 807 -185 825 -182 q 793 -184 795 -184 l 773 -185 q 763 -178 763 -182 l 763 -175 q 789 -132 763 -172 q 800 -106 800 -111 q 790 -91 790 -100 q 804 -80 797 -80 l 804 -79 q 764 -14 785 -35 l 764 -6 q 780 2 764 -2 m 977 2 q 993 -12 993 0 q 986 -33 986 -23 l 986 -54 q 985 -70 986 -61 q 1003 -91 985 -73 l 1003 -92 q 988 -110 1003 -102 l 985 -123 q 986 -147 986 -138 l 986 -155 q 993 -176 993 -174 q 977 -184 986 -184 q 960 -180 960 -184 q 947 -184 954 -184 l 941 -184 q 929 -172 929 -184 q 938 -149 938 -153 l 938 -134 q 921 -92 938 -110 l 921 -91 q 937 -68 937 -77 l 937 -31 q 929 -10 929 -12 l 929 -6 q 947 1 929 -1 q 960 -3 960 0 l 977 2 z "},"a":{"ha":812,"x_min":-41,"x_max":806,"o":"m 478 975 q 571 945 557 974 q 680 486 610 871 q 707 275 690 436 q 760 96 743 96 q 806 46 806 71 q 654 0 806 7 l 650 0 l 472 23 q 382 60 382 23 q 429 136 429 109 l 429 139 q 389 254 415 254 q 342 258 363 254 q 250 254 299 254 q 224 275 231 254 q 290 330 224 330 q 363 360 363 330 l 363 367 q 319 572 333 473 q 280 757 305 572 q 257 892 273 774 q 303 965 265 965 l 478 975 m 220 730 l 231 730 q 257 648 257 703 q 171 330 257 621 l 134 182 l 134 162 q 204 73 134 106 l 208 56 l 208 50 q 155 26 208 31 l 104 26 q 28 23 73 26 q -41 53 -19 23 l -41 63 q 35 125 -37 71 q 81 254 81 177 q 128 446 102 351 q 171 589 161 543 l 214 727 l 220 730 z "},"b":{"ha":869,"x_min":0,"x_max":800,"o":"m 494 947 q 671 903 631 934 q 779 752 779 832 q 782 712 782 732 q 720 585 782 661 l 627 526 l 627 517 q 699 477 627 500 q 766 406 762 428 q 800 286 800 336 q 763 177 773 193 q 637 66 719 99 q 568 47 574 47 q 488 54 528 54 l 476 54 q 417 51 451 54 q 386 87 391 51 l 386 91 q 448 140 386 129 q 473 186 473 170 q 476 329 473 231 q 439 468 476 468 q 393 502 393 490 l 393 517 q 460 564 393 545 q 482 635 482 595 l 482 709 q 448 848 482 837 q 395 876 440 858 q 386 903 386 889 q 470 943 386 943 q 494 947 492 947 m 309 935 q 337 897 337 935 l 337 894 q 352 696 337 857 l 352 675 q 365 332 352 557 q 355 199 355 221 l 355 109 q 330 63 355 63 l 330 60 l 216 66 q 77 63 151 63 l 56 63 q 0 97 0 63 q 50 140 0 113 l 52 155 l 52 313 q 46 505 52 404 q 56 761 56 698 l 56 838 q 12 879 56 859 l 3 891 l 3 907 q 46 931 20 931 q 309 935 224 935 z "},"c":{"ha":827,"x_min":0,"x_max":739,"o":"m 374 975 q 404 939 404 975 q 355 870 404 891 q 345 844 345 850 l 345 827 q 358 706 345 784 q 355 680 358 698 q 371 401 358 493 q 358 121 366 344 q 407 62 358 115 q 414 33 414 41 l 414 30 q 381 0 414 5 l 374 0 q 135 118 282 0 q 0 492 0 260 l 0 496 q 43 699 21 663 q 262 939 128 880 q 374 975 344 975 m 483 972 q 621 926 610 926 l 633 926 q 690 965 659 926 l 699 965 q 739 893 739 965 l 739 667 q 699 601 739 601 q 631 742 675 601 q 463 897 585 840 q 453 932 453 915 q 483 972 453 972 m 703 289 q 732 250 732 277 q 588 43 693 117 q 483 10 557 18 q 456 43 456 10 l 456 52 q 499 102 456 90 q 663 239 590 102 q 703 289 675 289 z "},"d":{"ha":941,"x_min":0,"x_max":865,"o":"m 142 987 q 329 983 233 983 q 370 929 370 983 q 400 509 383 650 l 400 342 q 393 207 393 221 l 393 92 q 400 58 393 85 q 353 0 382 0 q 139 24 165 24 l 71 24 q 0 64 0 24 q 58 115 1 81 l 61 132 l 61 142 q 47 539 61 299 q 61 719 61 671 l 61 875 q 10 919 61 906 l 0 932 l 0 939 q 142 987 0 987 m 468 983 l 478 983 q 631 946 551 983 q 746 844 640 946 q 841 688 808 787 q 865 532 854 688 l 865 515 q 715 156 865 397 q 570 54 622 54 q 465 20 541 37 l 448 20 q 420 61 420 39 q 461 105 420 84 q 512 186 512 126 l 512 342 q 509 417 512 402 q 512 505 512 455 l 512 814 q 488 888 512 874 q 431 949 431 914 l 431 953 q 468 983 431 983 z "},"e":{"ha":752,"x_min":0,"x_max":671,"o":"m 226 941 l 303 941 q 340 882 340 941 l 343 839 q 340 688 340 762 q 359 294 353 476 q 356 180 356 235 q 359 78 356 161 q 307 47 359 50 q 244 41 272 47 q 9 78 33 68 l 0 90 l 0 100 q 46 146 0 117 q 56 180 53 156 l 50 736 q 53 848 53 774 q 6 888 52 866 l 3 904 q 43 938 3 927 q 226 941 165 941 m 449 938 l 606 938 q 653 895 653 938 l 653 861 q 659 728 653 831 q 622 672 659 672 q 576 749 600 672 q 439 857 539 824 q 399 898 399 862 q 449 938 399 938 m 513 672 l 517 672 q 548 502 548 672 l 548 443 q 511 341 548 341 q 464 409 487 341 q 399 477 464 431 q 390 505 390 494 q 449 579 390 539 q 498 669 488 658 l 513 672 m 622 326 l 628 326 q 665 199 665 326 q 671 143 668 199 q 637 59 671 59 q 588 50 637 53 q 390 87 390 56 l 390 96 q 446 143 390 138 q 578 257 537 179 q 622 326 609 323 z "},"f":{"ha":773,"x_min":0,"x_max":742,"o":"m 125 978 q 271 975 191 978 q 347 978 311 978 q 389 922 389 978 q 395 655 395 760 q 389 222 389 307 l 389 111 q 454 62 389 79 q 468 31 468 44 q 420 0 460 0 l 215 0 q 38 3 152 0 q 0 28 0 18 l 0 45 q 66 97 3 54 l 69 121 l 69 159 q 49 468 49 368 l 49 503 q 73 787 49 553 l 73 860 q 21 919 73 899 q 14 940 14 930 l 14 950 q 125 978 14 978 m 486 975 l 541 975 q 669 971 597 975 q 707 975 688 975 q 739 933 739 969 l 739 850 q 742 725 739 802 q 714 683 730 683 l 707 683 q 655 763 674 683 q 600 839 628 815 q 471 895 550 878 q 451 940 451 916 q 486 975 456 975 m 589 686 q 628 610 628 673 l 628 604 q 610 371 610 441 l 610 361 q 586 312 610 329 l 569 312 q 524 409 555 313 q 458 461 516 420 q 451 489 451 474 l 451 499 q 510 569 451 534 q 562 673 526 588 q 589 686 576 686 z "},"g":{"ha":806,"x_min":0,"x_max":737,"o":"m 458 939 q 604 889 518 929 l 626 889 q 678 920 640 889 l 688 920 q 712 895 696 920 q 715 765 715 812 l 715 669 q 675 597 715 597 q 616 718 646 597 q 443 864 546 864 q 418 907 418 880 q 458 939 418 933 m 334 935 l 350 935 q 366 904 366 928 q 322 848 366 873 q 304 802 313 833 q 300 152 300 345 q 338 87 300 120 l 340 68 l 340 62 q 319 34 340 34 l 310 34 q 186 90 186 74 q 65 226 75 179 q 12 387 12 322 q 0 461 4 387 q 53 709 0 576 q 239 901 117 848 q 334 935 271 922 m 455 486 l 641 486 q 737 458 718 486 l 737 439 q 706 390 706 403 q 709 198 709 227 q 505 46 709 109 q 425 34 455 34 q 403 65 403 34 q 443 117 403 90 q 455 189 455 136 l 455 384 q 397 431 455 412 q 387 455 387 446 q 455 486 401 486 z "},"h":{"ha":968,"x_min":0,"x_max":896,"o":"m 665 965 q 873 945 688 965 q 896 916 896 934 q 843 869 896 888 q 833 833 838 854 q 840 326 837 738 q 837 115 837 210 q 892 73 841 100 q 896 53 892 70 q 857 20 891 35 q 800 23 818 23 l 724 23 q 566 3 663 23 l 445 13 q 395 0 427 13 q 16 33 16 16 q 3 59 3 47 q 50 102 3 74 l 53 119 l 53 155 l 36 448 q 56 814 50 606 q 36 876 56 876 q 0 912 3 896 q 79 958 11 958 l 85 958 q 247 949 231 949 l 349 949 q 385 952 363 949 q 448 932 437 932 l 461 932 l 540 962 q 665 965 652 965 m 372 804 q 376 576 372 731 l 372 543 q 376 534 376 537 l 372 504 q 395 109 386 138 q 445 82 433 82 q 511 151 511 102 l 511 158 q 507 214 511 193 l 520 441 q 500 448 509 448 l 445 448 q 415 477 415 452 l 415 491 q 458 540 415 540 l 517 540 q 527 550 519 540 q 494 869 527 869 q 451 892 456 892 q 376 823 376 869 q 372 804 372 823 z "},"i":{"ha":465,"x_min":0,"x_max":408,"o":"m 116 934 l 197 934 q 395 915 395 934 q 408 893 408 910 l 408 887 q 354 846 396 870 q 348 771 348 826 q 351 708 348 717 q 348 589 348 633 l 348 140 q 401 94 348 123 q 408 75 408 83 l 408 65 q 354 37 393 37 q 195 34 296 37 q 0 81 0 34 q 54 125 0 98 q 62 150 62 140 l 62 313 q 41 492 41 425 l 41 498 q 60 764 41 590 l 60 833 q 16 874 60 852 l 6 887 l 6 903 q 116 934 26 934 z "},"j":{"ha":755,"x_min":0,"x_max":716,"o":"m 454 975 q 635 972 534 972 l 659 972 q 716 938 716 972 l 716 928 q 663 888 708 914 l 659 871 l 659 814 q 673 635 659 772 q 676 323 673 517 q 602 81 676 143 q 410 0 515 0 q 296 40 296 0 l 296 57 q 333 118 296 75 q 336 185 336 163 q 330 249 336 213 q 347 373 338 249 l 347 397 q 357 857 357 760 q 309 905 357 905 q 286 924 286 920 l 286 935 q 387 972 286 972 q 454 975 408 972 m 172 400 q 296 282 238 400 q 302 249 302 256 q 235 141 287 175 q 215 115 215 133 l 215 108 q 239 50 239 59 q 212 27 239 31 q 40 121 93 54 q 0 232 0 179 q 141 400 0 350 l 172 400 z "},"k":{"ha":869,"x_min":0,"x_max":821,"o":"m 164 924 q 392 887 392 918 q 395 875 392 886 q 349 832 395 867 q 331 404 340 832 l 331 145 q 377 106 331 123 l 380 91 l 380 79 q 347 60 370 60 l 271 60 q 43 57 187 60 q 0 91 0 64 q 49 130 0 109 q 58 173 58 156 q 52 549 58 330 q 55 760 55 627 q 21 857 55 857 l 9 872 l 9 881 q 121 918 9 918 q 164 924 121 923 m 650 918 q 787 884 787 918 q 793 878 793 883 l 793 872 q 720 820 793 846 q 583 668 618 750 l 583 653 q 769 145 599 594 q 818 94 777 132 q 821 81 821 88 q 745 54 821 54 q 468 57 558 57 q 437 87 437 65 l 437 97 q 471 142 471 129 l 471 163 q 383 465 383 431 q 541 702 383 484 q 568 772 568 741 l 568 784 q 511 857 568 826 q 495 884 495 872 q 620 918 495 918 l 650 918 z "},"l":{"ha":737,"x_min":0,"x_max":699,"o":"m 227 972 q 340 974 227 972 q 454 931 454 975 q 389 883 454 909 q 375 846 375 865 l 375 825 q 385 726 385 749 l 385 703 q 375 542 385 682 l 375 422 q 382 34 375 233 q 303 0 382 0 q 239 3 266 3 l 65 3 q 0 41 0 3 l 0 44 q 54 89 0 67 q 62 106 54 95 q 65 276 62 131 q 62 426 65 365 q 65 696 65 543 l 65 852 q 7 913 65 890 l 0 935 q 227 972 0 968 m 672 334 q 699 303 688 330 q 696 225 696 241 q 699 51 696 180 q 665 14 693 14 q 460 7 491 10 q 430 44 430 14 q 508 102 430 90 q 614 249 580 149 q 672 334 633 334 z "},"m":{"ha":1006,"x_min":0,"x_max":949,"o":"m 741 945 q 770 941 758 941 l 792 941 q 949 906 949 937 l 949 899 q 905 854 949 877 l 901 839 l 901 739 l 888 473 q 892 448 888 465 q 879 123 885 326 q 930 79 879 103 l 933 62 l 933 59 q 850 31 933 37 l 818 33 l 571 33 q 516 59 540 33 l 516 75 q 577 111 521 85 q 590 155 590 125 l 590 752 q 606 925 590 925 q 738 945 622 934 l 741 945 m 125 938 q 215 935 168 935 l 311 935 q 378 829 359 935 l 462 579 l 469 576 l 481 576 q 516 656 493 576 l 523 659 l 529 646 q 526 633 529 639 q 529 572 529 598 q 433 242 529 557 q 375 53 395 102 q 366 46 368 46 l 356 46 q 311 146 336 52 q 141 678 269 267 q 77 848 86 846 q 19 880 77 857 q 6 903 6 899 q 58 935 16 935 q 125 938 109 935 m 96 559 l 100 559 q 151 435 123 534 q 154 409 151 427 q 151 258 151 325 q 170 140 151 161 q 247 72 246 77 l 247 56 q 170 27 247 32 q 0 72 0 27 q 48 117 0 87 q 83 194 83 158 l 83 467 q 96 559 85 559 z "},"n":{"ha":821,"x_min":0,"x_max":779,"o":"m 197 918 q 280 909 264 909 l 323 909 q 394 826 363 909 q 637 401 403 821 q 687 284 687 326 l 693 105 q 659 44 693 44 l 545 44 q 490 96 512 44 q 286 438 426 182 q 46 836 129 713 q 0 876 0 851 q 166 912 0 912 q 197 918 166 918 m 579 912 l 616 909 l 631 909 q 770 890 770 909 q 779 869 779 880 q 711 808 779 861 q 690 678 690 779 l 690 512 q 681 478 690 478 l 675 478 q 625 570 625 535 q 607 804 625 804 q 530 876 538 860 l 530 878 q 579 912 530 905 m 90 656 l 92 656 q 148 536 148 591 q 151 407 148 452 q 148 225 148 332 l 148 207 q 228 93 148 136 q 237 71 237 82 q 206 47 237 52 q 52 41 188 47 q 0 77 0 50 q 58 130 0 85 q 83 266 83 157 l 83 370 q 77 638 83 471 q 90 656 83 656 z "},"o":{"ha":917,"x_min":0,"x_max":861,"o":"m 492 972 q 732 837 631 943 q 847 608 827 722 q 861 533 861 564 l 861 489 q 789 226 842 312 q 587 24 686 56 q 496 3 522 3 l 483 3 q 459 27 459 3 l 459 44 q 503 87 459 49 q 516 118 516 106 l 516 206 q 509 489 516 255 q 519 847 519 737 q 466 914 519 873 q 463 928 463 920 l 463 935 q 492 972 463 972 m 361 968 l 378 968 q 395 935 395 961 l 395 931 q 345 874 395 911 q 334 837 334 848 l 334 783 q 351 574 345 707 l 351 479 q 334 165 334 235 l 334 121 q 385 58 334 87 q 391 27 391 35 q 371 0 387 0 q 135 111 275 0 q 0 422 31 227 l 0 425 q 47 719 0 572 q 273 945 130 879 q 361 968 331 968 z "}}}
